<svg width="150" height="150" viewBox="0 0 150 150" fill="none" xmlns="http://www.w3.org/2000/svg">
<g id="Skincare-bro 1">
<g id="freepik--background-simple--inject-2">
<path id="Vector" d="M52.608 131.679C52.608 131.679 75.348 139.779 97.404 126.831C119.46 113.883 130.35 88.2419 139.719 67.6979C149.088 47.1539 143.28 26.2679 126.198 16.7609C109.116 7.25392 97.758 21.2999 73.968 22.0139C50.178 22.7279 43.737 19.3139 24.168 32.8679C4.59899 46.4219 1.42499 78.4319 17.301 102.09C33.177 125.748 52.608 131.679 52.608 131.679Z" fill="#92E3A9"/>
<path id="Vector_2" opacity="0.7" d="M52.608 131.679C52.608 131.679 75.348 139.779 97.404 126.831C119.46 113.883 130.35 88.2419 139.719 67.6979C149.088 47.1539 143.28 26.2679 126.198 16.7609C109.116 7.25392 97.758 21.2999 73.968 22.0139C50.178 22.7279 43.737 19.3139 24.168 32.8679C4.59899 46.4219 1.42499 78.4319 17.301 102.09C33.177 125.748 52.608 131.679 52.608 131.679Z" fill="white"/>
</g>
<g id="freepik--Wall--inject-2">
<path id="Vector_3" d="M22.641 60.54H15.519C14.8347 60.54 14.28 61.0948 14.28 61.779V68.901C14.28 69.5853 14.8347 70.14 15.519 70.14H22.641C23.3253 70.14 23.88 69.5853 23.88 68.901V61.779C23.88 61.0948 23.3253 60.54 22.641 60.54Z" stroke="#949494" stroke-linecap="round" stroke-linejoin="round"/>
<path id="Vector_4" d="M33.0541 60.54H25.9321C25.2478 60.54 24.6931 61.0948 24.6931 61.779V68.901C24.6931 69.5853 25.2478 70.14 25.9321 70.14H33.0541C33.7383 70.14 34.2931 69.5853 34.2931 68.901V61.779C34.2931 61.0948 33.7383 60.54 33.0541 60.54Z" stroke="#949494" stroke-linecap="round" stroke-linejoin="round"/>
<path id="Vector_5" d="M43.467 60.54H36.345C35.6607 60.54 35.106 61.0948 35.106 61.779V68.901C35.106 69.5853 35.6607 70.14 36.345 70.14H43.467C44.1513 70.14 44.706 69.5853 44.706 68.901V61.779C44.706 61.0948 44.1513 60.54 43.467 60.54Z" stroke="#949494" stroke-linecap="round" stroke-linejoin="round"/>
<path id="Vector_6" d="M53.8771 60.54H46.7551C46.0708 60.54 45.5161 61.0948 45.5161 61.779V68.901C45.5161 69.5853 46.0708 70.14 46.7551 70.14H53.8771C54.5613 70.14 55.1161 69.5853 55.1161 68.901V61.779C55.1161 61.0948 54.5613 60.54 53.8771 60.54Z" stroke="#949494" stroke-linecap="round" stroke-linejoin="round"/>
<path id="Vector_7" d="M64.29 60.54H57.168C56.4837 60.54 55.929 61.0948 55.929 61.779V68.901C55.929 69.5853 56.4837 70.14 57.168 70.14H64.29C64.9743 70.14 65.529 69.5853 65.529 68.901V61.779C65.529 61.0948 64.9743 60.54 64.29 60.54Z" stroke="#949494" stroke-linecap="round" stroke-linejoin="round"/>
<path id="Vector_8" d="M74.703 60.54H67.581C66.8968 60.54 66.342 61.0948 66.342 61.779V68.901C66.342 69.5853 66.8968 70.14 67.581 70.14H74.703C75.3873 70.14 75.942 69.5853 75.942 68.901V61.779C75.942 61.0948 75.3873 60.54 74.703 60.54Z" stroke="#949494" stroke-linecap="round" stroke-linejoin="round"/>
<path id="Vector_9" d="M85.113 60.54H77.991C77.3067 60.54 76.752 61.0948 76.752 61.779V68.901C76.752 69.5853 77.3067 70.14 77.991 70.14H85.113C85.7973 70.14 86.352 69.5853 86.352 68.901V61.779C86.352 61.0948 85.7973 60.54 85.113 60.54Z" stroke="#949494" stroke-linecap="round" stroke-linejoin="round"/>
<path id="Vector_10" d="M95.526 60.54H88.404C87.7198 60.54 87.165 61.0948 87.165 61.779V68.901C87.165 69.5853 87.7198 70.14 88.404 70.14H95.526C96.2103 70.14 96.765 69.5853 96.765 68.901V61.779C96.765 61.0948 96.2103 60.54 95.526 60.54Z" stroke="#949494" stroke-linecap="round" stroke-linejoin="round"/>
<path id="Vector_11" d="M105.939 60.54H98.817C98.1327 60.54 97.578 61.0948 97.578 61.779V68.901C97.578 69.5853 98.1327 70.14 98.817 70.14H105.939C106.623 70.14 107.178 69.5853 107.178 68.901V61.779C107.178 61.0948 106.623 60.54 105.939 60.54Z" stroke="#949494" stroke-linecap="round" stroke-linejoin="round"/>
<path id="Vector_12" d="M116.349 60.54H109.227C108.543 60.54 107.988 61.0948 107.988 61.779V68.901C107.988 69.5853 108.543 70.14 109.227 70.14H116.349C117.033 70.14 117.588 69.5853 117.588 68.901V61.779C117.588 61.0948 117.033 60.54 116.349 60.54Z" stroke="#949494" stroke-linecap="round" stroke-linejoin="round"/>
<path id="Vector_13" d="M126.762 60.54H119.64C118.956 60.54 118.401 61.0948 118.401 61.779V68.901C118.401 69.5853 118.956 70.14 119.64 70.14H126.762C127.446 70.14 128.001 69.5853 128.001 68.901V61.779C128.001 61.0948 127.446 60.54 126.762 60.54Z" stroke="#949494" stroke-linecap="round" stroke-linejoin="round"/>
<path id="Vector_14" d="M137.175 60.54H130.053C129.369 60.54 128.814 61.0948 128.814 61.779V68.901C128.814 69.5853 129.369 70.14 130.053 70.14H137.175C137.859 70.14 138.414 69.5853 138.414 68.901V61.779C138.414 61.0948 137.859 60.54 137.175 60.54Z" stroke="#949494" stroke-linecap="round" stroke-linejoin="round"/>
<path id="Vector_15" d="M22.641 70.8H15.519C14.8347 70.8 14.28 71.3548 14.28 72.0391V79.161C14.28 79.8453 14.8347 80.4 15.519 80.4H22.641C23.3253 80.4 23.88 79.8453 23.88 79.161V72.0391C23.88 71.3548 23.3253 70.8 22.641 70.8Z" stroke="#949494" stroke-linecap="round" stroke-linejoin="round"/>
<path id="Vector_16" d="M33.0541 70.8H25.9321C25.2478 70.8 24.6931 71.3548 24.6931 72.0391V79.161C24.6931 79.8453 25.2478 80.4 25.9321 80.4H33.0541C33.7383 80.4 34.2931 79.8453 34.2931 79.161V72.0391C34.2931 71.3548 33.7383 70.8 33.0541 70.8Z" stroke="#949494" stroke-linecap="round" stroke-linejoin="round"/>
<path id="Vector_17" d="M43.467 70.8H36.345C35.6607 70.8 35.106 71.3548 35.106 72.0391V79.161C35.106 79.8453 35.6607 80.4 36.345 80.4H43.467C44.1513 80.4 44.706 79.8453 44.706 79.161V72.0391C44.706 71.3548 44.1513 70.8 43.467 70.8Z" stroke="#949494" stroke-linecap="round" stroke-linejoin="round"/>
<path id="Vector_18" d="M53.8771 70.8H46.7551C46.0708 70.8 45.5161 71.3548 45.5161 72.0391V79.161C45.5161 79.8453 46.0708 80.4 46.7551 80.4H53.8771C54.5613 80.4 55.1161 79.8453 55.1161 79.161V72.0391C55.1161 71.3548 54.5613 70.8 53.8771 70.8Z" stroke="#949494" stroke-linecap="round" stroke-linejoin="round"/>
<path id="Vector_19" d="M64.29 70.8H57.168C56.4837 70.8 55.929 71.3548 55.929 72.0391V79.161C55.929 79.8453 56.4837 80.4 57.168 80.4H64.29C64.9743 80.4 65.529 79.8453 65.529 79.161V72.0391C65.529 71.3548 64.9743 70.8 64.29 70.8Z" stroke="#949494" stroke-linecap="round" stroke-linejoin="round"/>
<path id="Vector_20" d="M74.703 70.8H67.581C66.8968 70.8 66.342 71.3548 66.342 72.0391V79.161C66.342 79.8453 66.8968 80.4 67.581 80.4H74.703C75.3873 80.4 75.942 79.8453 75.942 79.161V72.0391C75.942 71.3548 75.3873 70.8 74.703 70.8Z" stroke="#949494" stroke-linecap="round" stroke-linejoin="round"/>
<path id="Vector_21" d="M85.113 70.8H77.991C77.3067 70.8 76.752 71.3548 76.752 72.0391V79.161C76.752 79.8453 77.3067 80.4 77.991 80.4H85.113C85.7973 80.4 86.352 79.8453 86.352 79.161V72.0391C86.352 71.3548 85.7973 70.8 85.113 70.8Z" stroke="#949494" stroke-linecap="round" stroke-linejoin="round"/>
<path id="Vector_22" d="M95.526 70.8H88.404C87.7198 70.8 87.165 71.3548 87.165 72.0391V79.161C87.165 79.8453 87.7198 80.4 88.404 80.4H95.526C96.2103 80.4 96.765 79.8453 96.765 79.161V72.0391C96.765 71.3548 96.2103 70.8 95.526 70.8Z" stroke="#949494" stroke-linecap="round" stroke-linejoin="round"/>
<path id="Vector_23" d="M105.939 70.8H98.817C98.1327 70.8 97.578 71.3548 97.578 72.0391V79.161C97.578 79.8453 98.1327 80.4 98.817 80.4H105.939C106.623 80.4 107.178 79.8453 107.178 79.161V72.0391C107.178 71.3548 106.623 70.8 105.939 70.8Z" stroke="#949494" stroke-linecap="round" stroke-linejoin="round"/>
<path id="Vector_24" d="M116.349 70.8H109.227C108.543 70.8 107.988 71.3548 107.988 72.0391V79.161C107.988 79.8453 108.543 80.4 109.227 80.4H116.349C117.033 80.4 117.588 79.8453 117.588 79.161V72.0391C117.588 71.3548 117.033 70.8 116.349 70.8Z" stroke="#949494" stroke-linecap="round" stroke-linejoin="round"/>
<path id="Vector_25" d="M126.762 70.8H119.64C118.956 70.8 118.401 71.3548 118.401 72.0391V79.161C118.401 79.8453 118.956 80.4 119.64 80.4H126.762C127.446 80.4 128.001 79.8453 128.001 79.161V72.0391C128.001 71.3548 127.446 70.8 126.762 70.8Z" stroke="#949494" stroke-linecap="round" stroke-linejoin="round"/>
<path id="Vector_26" d="M137.175 70.8H130.053C129.369 70.8 128.814 71.3548 128.814 72.0391V79.161C128.814 79.8453 129.369 80.4 130.053 80.4H137.175C137.859 80.4 138.414 79.8453 138.414 79.161V72.0391C138.414 71.3548 137.859 70.8 137.175 70.8Z" stroke="#949494" stroke-linecap="round" stroke-linejoin="round"/>
<path id="Vector_27" d="M22.641 81.0601H15.519C14.8347 81.0601 14.28 81.6148 14.28 82.2991V89.4211C14.28 90.1053 14.8347 90.6601 15.519 90.6601H22.641C23.3253 90.6601 23.88 90.1053 23.88 89.4211V82.2991C23.88 81.6148 23.3253 81.0601 22.641 81.0601Z" stroke="#949494" stroke-linecap="round" stroke-linejoin="round"/>
<path id="Vector_28" d="M33.0541 81.0601H25.9321C25.2478 81.0601 24.6931 81.6148 24.6931 82.2991V89.4211C24.6931 90.1053 25.2478 90.6601 25.9321 90.6601H33.0541C33.7383 90.6601 34.2931 90.1053 34.2931 89.4211V82.2991C34.2931 81.6148 33.7383 81.0601 33.0541 81.0601Z" stroke="#949494" stroke-linecap="round" stroke-linejoin="round"/>
<path id="Vector_29" d="M43.467 81.0601H36.345C35.6607 81.0601 35.106 81.6148 35.106 82.2991V89.4211C35.106 90.1053 35.6607 90.6601 36.345 90.6601H43.467C44.1513 90.6601 44.706 90.1053 44.706 89.4211V82.2991C44.706 81.6148 44.1513 81.0601 43.467 81.0601Z" stroke="#949494" stroke-linecap="round" stroke-linejoin="round"/>
<path id="Vector_30" d="M53.8771 81.0601H46.7551C46.0708 81.0601 45.5161 81.6148 45.5161 82.2991V89.4211C45.5161 90.1053 46.0708 90.6601 46.7551 90.6601H53.8771C54.5613 90.6601 55.1161 90.1053 55.1161 89.4211V82.2991C55.1161 81.6148 54.5613 81.0601 53.8771 81.0601Z" stroke="#949494" stroke-linecap="round" stroke-linejoin="round"/>
<path id="Vector_31" d="M64.29 81.0601H57.168C56.4837 81.0601 55.929 81.6148 55.929 82.2991V89.4211C55.929 90.1053 56.4837 90.6601 57.168 90.6601H64.29C64.9743 90.6601 65.529 90.1053 65.529 89.4211V82.2991C65.529 81.6148 64.9743 81.0601 64.29 81.0601Z" stroke="#949494" stroke-linecap="round" stroke-linejoin="round"/>
<path id="Vector_32" d="M74.703 81.0601H67.581C66.8968 81.0601 66.342 81.6148 66.342 82.2991V89.4211C66.342 90.1053 66.8968 90.6601 67.581 90.6601H74.703C75.3873 90.6601 75.942 90.1053 75.942 89.4211V82.2991C75.942 81.6148 75.3873 81.0601 74.703 81.0601Z" stroke="#949494" stroke-linecap="round" stroke-linejoin="round"/>
<path id="Vector_33" d="M85.113 81.0601H77.991C77.3067 81.0601 76.752 81.6148 76.752 82.2991V89.4211C76.752 90.1053 77.3067 90.6601 77.991 90.6601H85.113C85.7973 90.6601 86.352 90.1053 86.352 89.4211V82.2991C86.352 81.6148 85.7973 81.0601 85.113 81.0601Z" stroke="#949494" stroke-linecap="round" stroke-linejoin="round"/>
<path id="Vector_34" d="M95.526 81.0601H88.404C87.7198 81.0601 87.165 81.6148 87.165 82.2991V89.4211C87.165 90.1053 87.7198 90.6601 88.404 90.6601H95.526C96.2103 90.6601 96.765 90.1053 96.765 89.4211V82.2991C96.765 81.6148 96.2103 81.0601 95.526 81.0601Z" stroke="#949494" stroke-linecap="round" stroke-linejoin="round"/>
<path id="Vector_35" d="M105.939 81.0601H98.817C98.1327 81.0601 97.578 81.6148 97.578 82.2991V89.4211C97.578 90.1053 98.1327 90.6601 98.817 90.6601H105.939C106.623 90.6601 107.178 90.1053 107.178 89.4211V82.2991C107.178 81.6148 106.623 81.0601 105.939 81.0601Z" stroke="#949494" stroke-linecap="round" stroke-linejoin="round"/>
<path id="Vector_36" d="M116.349 81.0601H109.227C108.543 81.0601 107.988 81.6148 107.988 82.2991V89.4211C107.988 90.1053 108.543 90.6601 109.227 90.6601H116.349C117.033 90.6601 117.588 90.1053 117.588 89.4211V82.2991C117.588 81.6148 117.033 81.0601 116.349 81.0601Z" stroke="#949494" stroke-linecap="round" stroke-linejoin="round"/>
<path id="Vector_37" d="M126.762 81.0601H119.64C118.956 81.0601 118.401 81.6148 118.401 82.2991V89.4211C118.401 90.1053 118.956 90.6601 119.64 90.6601H126.762C127.446 90.6601 128.001 90.1053 128.001 89.4211V82.2991C128.001 81.6148 127.446 81.0601 126.762 81.0601Z" stroke="#949494" stroke-linecap="round" stroke-linejoin="round"/>
<path id="Vector_38" d="M137.175 81.0601H130.053C129.369 81.0601 128.814 81.6148 128.814 82.2991V89.4211C128.814 90.1053 129.369 90.6601 130.053 90.6601H137.175C137.859 90.6601 138.414 90.1053 138.414 89.4211V82.2991C138.414 81.6148 137.859 81.0601 137.175 81.0601Z" stroke="#949494" stroke-linecap="round" stroke-linejoin="round"/>
<path id="Vector_39" d="M22.641 91.3201H15.519C14.8347 91.3201 14.28 91.8748 14.28 92.5591V99.6811C14.28 100.365 14.8347 100.92 15.519 100.92H22.641C23.3253 100.92 23.88 100.365 23.88 99.6811V92.5591C23.88 91.8748 23.3253 91.3201 22.641 91.3201Z" stroke="#949494" stroke-linecap="round" stroke-linejoin="round"/>
<path id="Vector_40" d="M33.0541 91.3201H25.9321C25.2478 91.3201 24.6931 91.8748 24.6931 92.5591V99.6811C24.6931 100.365 25.2478 100.92 25.9321 100.92H33.0541C33.7383 100.92 34.2931 100.365 34.2931 99.6811V92.5591C34.2931 91.8748 33.7383 91.3201 33.0541 91.3201Z" stroke="#949494" stroke-linecap="round" stroke-linejoin="round"/>
<path id="Vector_41" d="M43.467 91.3201H36.345C35.6607 91.3201 35.106 91.8748 35.106 92.5591V99.6811C35.106 100.365 35.6607 100.92 36.345 100.92H43.467C44.1513 100.92 44.706 100.365 44.706 99.6811V92.5591C44.706 91.8748 44.1513 91.3201 43.467 91.3201Z" stroke="#949494" stroke-linecap="round" stroke-linejoin="round"/>
<path id="Vector_42" d="M53.8771 91.3201H46.7551C46.0708 91.3201 45.5161 91.8748 45.5161 92.5591V99.6811C45.5161 100.365 46.0708 100.92 46.7551 100.92H53.8771C54.5613 100.92 55.1161 100.365 55.1161 99.6811V92.5591C55.1161 91.8748 54.5613 91.3201 53.8771 91.3201Z" stroke="#949494" stroke-linecap="round" stroke-linejoin="round"/>
<path id="Vector_43" d="M64.29 91.3201H57.168C56.4837 91.3201 55.929 91.8748 55.929 92.5591V99.6811C55.929 100.365 56.4837 100.92 57.168 100.92H64.29C64.9743 100.92 65.529 100.365 65.529 99.6811V92.5591C65.529 91.8748 64.9743 91.3201 64.29 91.3201Z" stroke="#949494" stroke-linecap="round" stroke-linejoin="round"/>
<path id="Vector_44" d="M74.703 91.3201H67.581C66.8968 91.3201 66.342 91.8748 66.342 92.5591V99.6811C66.342 100.365 66.8968 100.92 67.581 100.92H74.703C75.3873 100.92 75.942 100.365 75.942 99.6811V92.5591C75.942 91.8748 75.3873 91.3201 74.703 91.3201Z" stroke="#949494" stroke-linecap="round" stroke-linejoin="round"/>
<path id="Vector_45" d="M85.113 91.3201H77.991C77.3067 91.3201 76.752 91.8748 76.752 92.5591V99.6811C76.752 100.365 77.3067 100.92 77.991 100.92H85.113C85.7973 100.92 86.352 100.365 86.352 99.6811V92.5591C86.352 91.8748 85.7973 91.3201 85.113 91.3201Z" stroke="#949494" stroke-linecap="round" stroke-linejoin="round"/>
<path id="Vector_46" d="M95.526 91.3201H88.404C87.7198 91.3201 87.165 91.8748 87.165 92.5591V99.6811C87.165 100.365 87.7198 100.92 88.404 100.92H95.526C96.2103 100.92 96.765 100.365 96.765 99.6811V92.5591C96.765 91.8748 96.2103 91.3201 95.526 91.3201Z" stroke="#949494" stroke-linecap="round" stroke-linejoin="round"/>
<path id="Vector_47" d="M105.939 91.3201H98.817C98.1327 91.3201 97.578 91.8748 97.578 92.5591V99.6811C97.578 100.365 98.1327 100.92 98.817 100.92H105.939C106.623 100.92 107.178 100.365 107.178 99.6811V92.5591C107.178 91.8748 106.623 91.3201 105.939 91.3201Z" stroke="#949494" stroke-linecap="round" stroke-linejoin="round"/>
<path id="Vector_48" d="M116.349 91.3201H109.227C108.543 91.3201 107.988 91.8748 107.988 92.5591V99.6811C107.988 100.365 108.543 100.92 109.227 100.92H116.349C117.033 100.92 117.588 100.365 117.588 99.6811V92.5591C117.588 91.8748 117.033 91.3201 116.349 91.3201Z" stroke="#949494" stroke-linecap="round" stroke-linejoin="round"/>
<path id="Vector_49" d="M126.762 91.3201H119.64C118.956 91.3201 118.401 91.8748 118.401 92.5591V99.6811C118.401 100.365 118.956 100.92 119.64 100.92H126.762C127.446 100.92 128.001 100.365 128.001 99.6811V92.5591C128.001 91.8748 127.446 91.3201 126.762 91.3201Z" stroke="#949494" stroke-linecap="round" stroke-linejoin="round"/>
<path id="Vector_50" d="M137.175 91.3201H130.053C129.369 91.3201 128.814 91.8748 128.814 92.5591V99.6811C128.814 100.365 129.369 100.92 130.053 100.92H137.175C137.859 100.92 138.414 100.365 138.414 99.6811V92.5591C138.414 91.8748 137.859 91.3201 137.175 91.3201Z" stroke="#949494" stroke-linecap="round" stroke-linejoin="round"/>
<path id="Vector_51" d="M22.641 101.94H15.519C14.8347 101.94 14.28 102.495 14.28 103.179V110.301C14.28 110.985 14.8347 111.54 15.519 111.54H22.641C23.3253 111.54 23.88 110.985 23.88 110.301V103.179C23.88 102.495 23.3253 101.94 22.641 101.94Z" stroke="#949494" stroke-linecap="round" stroke-linejoin="round"/>
<path id="Vector_52" d="M33.0541 101.94H25.9321C25.2478 101.94 24.6931 102.495 24.6931 103.179V110.301C24.6931 110.985 25.2478 111.54 25.9321 111.54H33.0541C33.7383 111.54 34.2931 110.985 34.2931 110.301V103.179C34.2931 102.495 33.7383 101.94 33.0541 101.94Z" stroke="#949494" stroke-linecap="round" stroke-linejoin="round"/>
<path id="Vector_53" d="M43.467 101.94H36.345C35.6607 101.94 35.106 102.495 35.106 103.179V110.301C35.106 110.985 35.6607 111.54 36.345 111.54H43.467C44.1513 111.54 44.706 110.985 44.706 110.301V103.179C44.706 102.495 44.1513 101.94 43.467 101.94Z" stroke="#949494" stroke-linecap="round" stroke-linejoin="round"/>
<path id="Vector_54" d="M53.8771 101.94H46.7551C46.0708 101.94 45.5161 102.495 45.5161 103.179V110.301C45.5161 110.985 46.0708 111.54 46.7551 111.54H53.8771C54.5613 111.54 55.1161 110.985 55.1161 110.301V103.179C55.1161 102.495 54.5613 101.94 53.8771 101.94Z" stroke="#949494" stroke-linecap="round" stroke-linejoin="round"/>
<path id="Vector_55" d="M64.29 101.94H57.168C56.4837 101.94 55.929 102.495 55.929 103.179V110.301C55.929 110.985 56.4837 111.54 57.168 111.54H64.29C64.9743 111.54 65.529 110.985 65.529 110.301V103.179C65.529 102.495 64.9743 101.94 64.29 101.94Z" stroke="#949494" stroke-linecap="round" stroke-linejoin="round"/>
<path id="Vector_56" d="M74.703 101.94H67.581C66.8968 101.94 66.342 102.495 66.342 103.179V110.301C66.342 110.985 66.8968 111.54 67.581 111.54H74.703C75.3873 111.54 75.942 110.985 75.942 110.301V103.179C75.942 102.495 75.3873 101.94 74.703 101.94Z" stroke="#949494" stroke-linecap="round" stroke-linejoin="round"/>
<path id="Vector_57" d="M85.113 101.94H77.991C77.3067 101.94 76.752 102.495 76.752 103.179V110.301C76.752 110.985 77.3067 111.54 77.991 111.54H85.113C85.7973 111.54 86.352 110.985 86.352 110.301V103.179C86.352 102.495 85.7973 101.94 85.113 101.94Z" stroke="#949494" stroke-linecap="round" stroke-linejoin="round"/>
<path id="Vector_58" d="M95.526 101.94H88.404C87.7198 101.94 87.165 102.495 87.165 103.179V110.301C87.165 110.985 87.7198 111.54 88.404 111.54H95.526C96.2103 111.54 96.765 110.985 96.765 110.301V103.179C96.765 102.495 96.2103 101.94 95.526 101.94Z" stroke="#949494" stroke-linecap="round" stroke-linejoin="round"/>
<path id="Vector_59" d="M105.939 101.94H98.817C98.1327 101.94 97.578 102.495 97.578 103.179V110.301C97.578 110.985 98.1327 111.54 98.817 111.54H105.939C106.623 111.54 107.178 110.985 107.178 110.301V103.179C107.178 102.495 106.623 101.94 105.939 101.94Z" stroke="#949494" stroke-linecap="round" stroke-linejoin="round"/>
<path id="Vector_60" d="M116.349 101.94H109.227C108.543 101.94 107.988 102.495 107.988 103.179V110.301C107.988 110.985 108.543 111.54 109.227 111.54H116.349C117.033 111.54 117.588 110.985 117.588 110.301V103.179C117.588 102.495 117.033 101.94 116.349 101.94Z" stroke="#949494" stroke-linecap="round" stroke-linejoin="round"/>
<path id="Vector_61" d="M126.762 101.94H119.64C118.956 101.94 118.401 102.495 118.401 103.179V110.301C118.401 110.985 118.956 111.54 119.64 111.54H126.762C127.446 111.54 128.001 110.985 128.001 110.301V103.179C128.001 102.495 127.446 101.94 126.762 101.94Z" stroke="#949494" stroke-linecap="round" stroke-linejoin="round"/>
<path id="Vector_62" d="M137.175 101.94H130.053C129.369 101.94 128.814 102.495 128.814 103.179V110.301C128.814 110.985 129.369 111.54 130.053 111.54H137.175C137.859 111.54 138.414 110.985 138.414 110.301V103.179C138.414 102.495 137.859 101.94 137.175 101.94Z" stroke="#949494" stroke-linecap="round" stroke-linejoin="round"/>
<path id="Vector_63" d="M22.641 112.2H15.519C14.8347 112.2 14.28 112.755 14.28 113.439V120.561C14.28 121.245 14.8347 121.8 15.519 121.8H22.641C23.3253 121.8 23.88 121.245 23.88 120.561V113.439C23.88 112.755 23.3253 112.2 22.641 112.2Z" stroke="#949494" stroke-linecap="round" stroke-linejoin="round"/>
<path id="Vector_64" d="M33.0541 112.2H25.9321C25.2478 112.2 24.6931 112.755 24.6931 113.439V120.561C24.6931 121.245 25.2478 121.8 25.9321 121.8H33.0541C33.7383 121.8 34.2931 121.245 34.2931 120.561V113.439C34.2931 112.755 33.7383 112.2 33.0541 112.2Z" stroke="#949494" stroke-linecap="round" stroke-linejoin="round"/>
<path id="Vector_65" d="M43.467 112.2H36.345C35.6607 112.2 35.106 112.755 35.106 113.439V120.561C35.106 121.245 35.6607 121.8 36.345 121.8H43.467C44.1513 121.8 44.706 121.245 44.706 120.561V113.439C44.706 112.755 44.1513 112.2 43.467 112.2Z" stroke="#949494" stroke-linecap="round" stroke-linejoin="round"/>
<path id="Vector_66" d="M53.8771 112.2H46.7551C46.0708 112.2 45.5161 112.755 45.5161 113.439V120.561C45.5161 121.245 46.0708 121.8 46.7551 121.8H53.8771C54.5613 121.8 55.1161 121.245 55.1161 120.561V113.439C55.1161 112.755 54.5613 112.2 53.8771 112.2Z" stroke="#949494" stroke-linecap="round" stroke-linejoin="round"/>
<path id="Vector_67" d="M64.29 112.2H57.168C56.4837 112.2 55.929 112.755 55.929 113.439V120.561C55.929 121.245 56.4837 121.8 57.168 121.8H64.29C64.9743 121.8 65.529 121.245 65.529 120.561V113.439C65.529 112.755 64.9743 112.2 64.29 112.2Z" stroke="#949494" stroke-linecap="round" stroke-linejoin="round"/>
<path id="Vector_68" d="M74.703 112.2H67.581C66.8968 112.2 66.342 112.755 66.342 113.439V120.561C66.342 121.245 66.8968 121.8 67.581 121.8H74.703C75.3873 121.8 75.942 121.245 75.942 120.561V113.439C75.942 112.755 75.3873 112.2 74.703 112.2Z" stroke="#949494" stroke-linecap="round" stroke-linejoin="round"/>
<path id="Vector_69" d="M85.113 112.2H77.991C77.3067 112.2 76.752 112.755 76.752 113.439V120.561C76.752 121.245 77.3067 121.8 77.991 121.8H85.113C85.7973 121.8 86.352 121.245 86.352 120.561V113.439C86.352 112.755 85.7973 112.2 85.113 112.2Z" stroke="#949494" stroke-linecap="round" stroke-linejoin="round"/>
<path id="Vector_70" d="M95.526 112.2H88.404C87.7198 112.2 87.165 112.755 87.165 113.439V120.561C87.165 121.245 87.7198 121.8 88.404 121.8H95.526C96.2103 121.8 96.765 121.245 96.765 120.561V113.439C96.765 112.755 96.2103 112.2 95.526 112.2Z" stroke="#949494" stroke-linecap="round" stroke-linejoin="round"/>
<path id="Vector_71" d="M105.939 112.2H98.817C98.1327 112.2 97.578 112.755 97.578 113.439V120.561C97.578 121.245 98.1327 121.8 98.817 121.8H105.939C106.623 121.8 107.178 121.245 107.178 120.561V113.439C107.178 112.755 106.623 112.2 105.939 112.2Z" stroke="#949494" stroke-linecap="round" stroke-linejoin="round"/>
<path id="Vector_72" d="M116.349 112.2H109.227C108.543 112.2 107.988 112.755 107.988 113.439V120.561C107.988 121.245 108.543 121.8 109.227 121.8H116.349C117.033 121.8 117.588 121.245 117.588 120.561V113.439C117.588 112.755 117.033 112.2 116.349 112.2Z" stroke="#949494" stroke-linecap="round" stroke-linejoin="round"/>
<path id="Vector_73" d="M126.762 112.2H119.64C118.956 112.2 118.401 112.755 118.401 113.439V120.561C118.401 121.245 118.956 121.8 119.64 121.8H126.762C127.446 121.8 128.001 121.245 128.001 120.561V113.439C128.001 112.755 127.446 112.2 126.762 112.2Z" stroke="#949494" stroke-linecap="round" stroke-linejoin="round"/>
<path id="Vector_74" d="M137.175 112.2H130.053C129.369 112.2 128.814 112.755 128.814 113.439V120.561C128.814 121.245 129.369 121.8 130.053 121.8H137.175C137.859 121.8 138.414 121.245 138.414 120.561V113.439C138.414 112.755 137.859 112.2 137.175 112.2Z" stroke="#949494" stroke-linecap="round" stroke-linejoin="round"/>
<path id="Vector_75" d="M22.641 122.46H15.519C14.8347 122.46 14.28 123.015 14.28 123.699V130.821C14.28 131.505 14.8347 132.06 15.519 132.06H22.641C23.3253 132.06 23.88 131.505 23.88 130.821V123.699C23.88 123.015 23.3253 122.46 22.641 122.46Z" stroke="#949494" stroke-linecap="round" stroke-linejoin="round"/>
<path id="Vector_76" d="M33.0541 122.46H25.9321C25.2478 122.46 24.6931 123.015 24.6931 123.699V130.821C24.6931 131.505 25.2478 132.06 25.9321 132.06H33.0541C33.7383 132.06 34.2931 131.505 34.2931 130.821V123.699C34.2931 123.015 33.7383 122.46 33.0541 122.46Z" stroke="#949494" stroke-linecap="round" stroke-linejoin="round"/>
<path id="Vector_77" d="M43.467 122.46H36.345C35.6607 122.46 35.106 123.015 35.106 123.699V130.821C35.106 131.505 35.6607 132.06 36.345 132.06H43.467C44.1513 132.06 44.706 131.505 44.706 130.821V123.699C44.706 123.015 44.1513 122.46 43.467 122.46Z" stroke="#949494" stroke-linecap="round" stroke-linejoin="round"/>
<path id="Vector_78" d="M53.8771 122.46H46.7551C46.0708 122.46 45.5161 123.015 45.5161 123.699V130.821C45.5161 131.505 46.0708 132.06 46.7551 132.06H53.8771C54.5613 132.06 55.1161 131.505 55.1161 130.821V123.699C55.1161 123.015 54.5613 122.46 53.8771 122.46Z" stroke="#949494" stroke-linecap="round" stroke-linejoin="round"/>
<path id="Vector_79" d="M64.29 122.46H57.168C56.4837 122.46 55.929 123.015 55.929 123.699V130.821C55.929 131.505 56.4837 132.06 57.168 132.06H64.29C64.9743 132.06 65.529 131.505 65.529 130.821V123.699C65.529 123.015 64.9743 122.46 64.29 122.46Z" stroke="#949494" stroke-linecap="round" stroke-linejoin="round"/>
<path id="Vector_80" d="M74.703 122.46H67.581C66.8968 122.46 66.342 123.015 66.342 123.699V130.821C66.342 131.505 66.8968 132.06 67.581 132.06H74.703C75.3873 132.06 75.942 131.505 75.942 130.821V123.699C75.942 123.015 75.3873 122.46 74.703 122.46Z" stroke="#949494" stroke-linecap="round" stroke-linejoin="round"/>
<path id="Vector_81" d="M85.113 122.46H77.991C77.3067 122.46 76.752 123.015 76.752 123.699V130.821C76.752 131.505 77.3067 132.06 77.991 132.06H85.113C85.7973 132.06 86.352 131.505 86.352 130.821V123.699C86.352 123.015 85.7973 122.46 85.113 122.46Z" stroke="#949494" stroke-linecap="round" stroke-linejoin="round"/>
<path id="Vector_82" d="M95.526 122.46H88.404C87.7198 122.46 87.165 123.015 87.165 123.699V130.821C87.165 131.505 87.7198 132.06 88.404 132.06H95.526C96.2103 132.06 96.765 131.505 96.765 130.821V123.699C96.765 123.015 96.2103 122.46 95.526 122.46Z" stroke="#949494" stroke-linecap="round" stroke-linejoin="round"/>
<path id="Vector_83" d="M105.939 122.46H98.817C98.1327 122.46 97.578 123.015 97.578 123.699V130.821C97.578 131.505 98.1327 132.06 98.817 132.06H105.939C106.623 132.06 107.178 131.505 107.178 130.821V123.699C107.178 123.015 106.623 122.46 105.939 122.46Z" stroke="#949494" stroke-linecap="round" stroke-linejoin="round"/>
<path id="Vector_84" d="M116.349 122.46H109.227C108.543 122.46 107.988 123.015 107.988 123.699V130.821C107.988 131.505 108.543 132.06 109.227 132.06H116.349C117.033 132.06 117.588 131.505 117.588 130.821V123.699C117.588 123.015 117.033 122.46 116.349 122.46Z" stroke="#949494" stroke-linecap="round" stroke-linejoin="round"/>
<path id="Vector_85" d="M126.762 122.46H119.64C118.956 122.46 118.401 123.015 118.401 123.699V130.821C118.401 131.505 118.956 132.06 119.64 132.06H126.762C127.446 132.06 128.001 131.505 128.001 130.821V123.699C128.001 123.015 127.446 122.46 126.762 122.46Z" stroke="#949494" stroke-linecap="round" stroke-linejoin="round"/>
<path id="Vector_86" d="M137.175 122.46H130.053C129.369 122.46 128.814 123.015 128.814 123.699V130.821C128.814 131.505 129.369 132.06 130.053 132.06H137.175C137.859 132.06 138.414 131.505 138.414 130.821V123.699C138.414 123.015 137.859 122.46 137.175 122.46Z" stroke="#949494" stroke-linecap="round" stroke-linejoin="round"/>
</g>
<g id="freepik--Character--inject-2">
<path id="Vector_87" d="M108.807 30.6001C108.807 30.6001 113.607 40.2001 114.807 45.0001C116.007 49.8001 114.408 56.6011 114.408 58.2001C114.408 59.7991 117.207 70.6021 118.806 73.2001C120.405 75.7981 120.207 77.2021 120.207 77.2021C120.207 77.2021 115.806 79.4011 113.406 80.2021L111 81.0001C111 81.0001 104.4 69.4021 104.001 66.0001C103.602 62.5981 106.401 53.6011 106.8 46.6021C107.199 39.6031 106.8 26.4001 108.807 30.6001Z" fill="white" stroke="#263238" stroke-miterlimit="10"/>
<path id="Vector_88" d="M76.9231 65.6429C76.9231 65.6429 73.3231 66.7289 72.0331 67.8179C70.7431 68.9069 58.8841 88.14 58.2331 89.769C57.5821 91.398 59.433 95.3099 62.253 97.8089C65.073 100.308 66.819 107.808 66.819 107.808L59.211 134.76H112.677C112.899 133.461 112.035 129.105 106.482 121.392C104.082 118.071 102.462 115.851 102.462 115.851L103.224 113.568C103.224 113.568 106.482 111.393 108.765 104.766C111.048 98.1389 112.461 89.6609 112.785 85.8659C113.109 82.0709 113.328 75.9659 111.585 72.2819C109.842 68.5979 105.285 67.7159 105.285 67.7159C105.285 67.7159 90.8311 65.2169 89.4181 64.8929C88.0051 64.5689 76.9231 65.6429 76.9231 65.6429Z" fill="#92E3A9" stroke="#263238" stroke-miterlimit="10"/>
<path id="Vector_89" d="M72.603 112.572L71.145 134.754H73.479L73.917 112.572H72.603Z" fill="white" stroke="#263238" stroke-miterlimit="10"/>
<path id="Vector_90" d="M74.604 112.572L75.378 134.754H77.712L75.915 112.572H74.604Z" fill="white" stroke="#263238" stroke-miterlimit="10"/>
<path id="Vector_91" d="M98.583 126.339C98.637 126.906 98.673 127.47 98.691 128.016" stroke="#263238" stroke-miterlimit="10"/>
<path id="Vector_92" d="M96.525 116.418C97.3134 119.056 97.9238 121.744 98.352 124.464" stroke="#263238" stroke-miterlimit="10"/>
<path id="Vector_93" d="M92.8921 120.75C92.9791 123.75 92.9431 127.761 92.3521 130.797" stroke="#263238" stroke-miterlimit="10"/>
<path id="Vector_94" d="M92.661 116.418C92.661 116.418 92.742 117.318 92.814 118.746" stroke="#263238" stroke-miterlimit="10"/>
<path id="Vector_95" d="M94.824 113.946C96.3263 112.944 97.7725 111.86 99.156 110.7" stroke="#263238" stroke-miterlimit="10"/>
<path id="Vector_96" d="M103.224 113.568C103.224 113.568 97.908 114.693 90.507 113.793C83.106 112.893 82.2 112.692 82.2 112.692C82.2 112.692 82.5 114.291 86.1 114.891C89.7 115.491 92.811 116.508 102.456 115.851C102.462 115.851 103.839 115.044 103.224 113.568Z" fill="white" stroke="#263238" stroke-miterlimit="10"/>
<path id="Vector_97" d="M64.707 84.8999C64.707 84.8999 58.8 87.1919 57 88.0919C55.2 88.9919 54.402 92.6909 54.6 94.9919C54.798 97.2929 56.1 106.191 56.1 107.793C56.1 109.395 58.2 110.493 60.501 110.991C62.802 111.489 67.2 112.092 68.901 111.393C70.602 110.694 71.955 107.613 72.027 103.353C72.099 99.0929 70.5 91.1999 70.008 87.9929C69.516 84.7859 64.707 84.8999 64.707 84.8999Z" fill="white" stroke="#263238" stroke-miterlimit="10"/>
<path id="Vector_98" d="M69.6421 66.513C69.6421 66.513 65.5141 62.913 65.1871 62.493C64.8601 62.073 65.2951 61.08 65.2951 61.08C65.2951 61.08 68.3401 57.711 68.3401 57.057C68.3401 56.403 67.4701 56.733 66.8191 57.276C66.8191 57.276 67.2511 55.863 66.7081 55.863C66.1651 55.863 64.9801 56.853 64.3081 57.399C63.8633 57.8161 63.5301 58.338 63.3391 58.917C63.3391 58.917 63.4501 56.406 62.6881 56.733C61.9261 57.06 61.7101 59.013 61.3831 60.102C61.0561 61.191 60.1831 64.23 60.1831 64.23L60.8341 65.751L59.2051 64.551C59.2051 64.551 58.9861 60.651 58.8781 59.877C58.7701 59.103 57.7921 59.442 57.7921 61.617C57.7991 63.2922 57.9446 64.9639 58.2271 66.615C58.3351 67.05 65.5081 72.375 66.0511 72.915C66.6641 73.4377 67.3182 73.9102 68.0071 74.328C68.0071 74.328 66.4861 79.218 65.1811 82.479C63.8761 85.74 62.2471 89.652 61.8121 92.151C61.3771 94.65 63.7681 99.213 64.0951 99.756C64.4221 100.299 67.2451 102.582 68.5501 100.083C69.8551 97.584 71.3761 86.607 71.9191 81.936C72.4621 77.265 72.7891 73.785 73.1191 72.372C73.4491 70.959 73.0111 66.177 72.5761 65.091C72.1411 64.005 70.1581 63.591 69.5071 62.184C68.8561 60.777 68.0071 59.223 67.5781 60.636C67.1491 62.049 67.6861 62.592 68.1211 63.57C68.5561 64.548 69.6421 66.513 69.6421 66.513Z" fill="white" stroke="#263238" stroke-miterlimit="10"/>
<path id="Vector_99" d="M63.339 58.917C63.3196 59.5698 63.2474 60.2199 63.123 60.861C62.904 62.061 62.688 63.471 62.688 63.471L64.101 65.208" stroke="#263238" stroke-miterlimit="10"/>
<path id="Vector_100" d="M66.8191 57.2759C66.8191 57.2759 66.0751 58.1579 65.6971 58.6199C65.3191 59.0819 64.6021 59.7989 64.6021 59.7989C64.6021 59.7989 63.9691 62.6189 63.9691 62.7479C63.9691 62.8769 65.1481 64.1789 65.1481 64.1789" stroke="#263238" stroke-miterlimit="10"/>
<path id="Vector_101" d="M60.84 65.751L62.208 66.792" stroke="#263238" stroke-miterlimit="10"/>
<path id="Vector_102" d="M62.307 67.1909L65.706 64.1909" stroke="#263238" stroke-miterlimit="10"/>
<path id="Vector_103" d="M67.608 69.093C67.608 69.093 70.407 70.392 70.506 72.192C70.605 73.992 69.708 74.592 69.708 74.592" stroke="#263238" stroke-miterlimit="10"/>
<path id="Vector_104" d="M83.118 63.9C83.118 63.9 77.577 64.767 76.923 65.637C76.269 66.507 75.837 76.071 75.723 83.037C75.609 90.003 76.593 94.137 76.593 94.137L72.027 103.374L74.202 104.895C74.202 104.895 93.327 85.77 96.045 81.966C98.763 78.162 106.695 69.141 106.695 68.166C106.695 67.191 101.478 65.34 99.738 64.908C97.998 64.476 95.175 64.473 92.133 64.146C89.091 63.819 83.118 63.9 83.118 63.9Z" fill="white" stroke="#263238" stroke-miterlimit="10"/>
<path id="Vector_105" d="M81.2731 88.7668L76.5991 94.1158" stroke="#263238" stroke-miterlimit="10"/>
<path id="Vector_106" d="M76.593 31.4818C76.593 31.4818 71.661 37.4278 71.661 39.4498C71.661 41.4718 71.661 44.6338 70.905 45.7738C70.149 46.9138 67.236 48.1738 67.869 49.5658C68.0606 49.9761 68.343 50.3373 68.6949 50.6221C69.0468 50.907 69.4589 51.108 69.9 51.2098C69.9 51.2098 71.799 57.9118 72.81 59.5558C73.821 61.1998 76.11 61.4518 77.109 61.1998C78.108 60.9478 80.523 59.5558 80.523 59.5558C80.523 59.5558 83.559 65.4988 83.685 66.3838C83.811 67.2688 80.775 84.7198 80.775 86.4838C80.775 88.2478 81.282 88.7608 81.282 88.7608C81.282 88.7608 94.686 69.9178 96.078 68.1478C97.47 66.3778 98.607 65.1148 98.607 65.1148C98.607 65.1148 95.445 60.9418 94.308 57.9148C93.171 54.8878 92.79 53.9938 93.423 53.1148C94.056 52.2358 95.064 50.8408 95.064 50.8408C95.064 50.8408 85.077 39.2068 81.789 35.0338C78.501 30.8608 77.733 29.9668 76.593 31.4818Z" fill="white" stroke="#263238" stroke-miterlimit="10"/>
<path id="Vector_107" d="M80.514 59.556L84.606 56.793L81.807 61.392L80.514 59.556Z" fill="#263238" stroke="#263238" stroke-miterlimit="10"/>
<path id="Vector_108" d="M74.907 43.605L74.472 44.733" stroke="#263238" stroke-miterlimit="10" stroke-linecap="round"/>
<path id="Vector_109" d="M77.34 44.9069C77.34 44.9069 74.64 45.6899 73.257 44.4719" stroke="#263238" stroke-width="2" stroke-miterlimit="10" stroke-linecap="round"/>
<path id="Vector_110" d="M76.923 31.104C76.803 31.2209 76.6926 31.3473 76.593 31.482C76.593 31.482 75.573 32.715 74.46 34.248C75.744 35.448 79.05 38.466 80.262 39.069C81.699 39.789 77.574 32.22 76.923 31.104Z" fill="#263238"/>
<path id="Vector_111" d="M90 48.6808C90 48.6808 91.035 51.6238 92.049 52.5268C93.063 53.4298 93.849 52.5268 94.869 51.1708C95.889 49.8148 95.094 48.1258 94.644 48.1258C94.194 48.1258 90.018 47.2258 90.018 47.2258L90 48.6808Z" fill="#263238" stroke="#263238" stroke-miterlimit="10"/>
<path id="Vector_112" d="M85.824 49.6919C85.824 49.6919 86.457 52.0919 88.224 51.4619C89.991 50.8319 89.994 48.6809 89.994 48.6809" stroke="#263238" stroke-miterlimit="10"/>
<path id="Vector_113" d="M73.689 41.7C73.689 41.7 75.429 40.224 76.905 41.961" stroke="#263238" stroke-width="2" stroke-miterlimit="10" stroke-linecap="round"/>
<path id="Vector_114" d="M75.255 45.9929C75.255 46.5449 75.081 46.9919 74.865 46.9919C74.649 46.9919 74.472 46.5449 74.472 45.9929C74.472 45.4409 74.649 44.9939 74.865 44.9939C75.081 44.9939 75.255 45.4409 75.255 45.9929Z" fill="#263238"/>
<path id="Vector_115" d="M70.911 53.0759C70.911 53.0759 72.213 54.0299 73.611 51.8579" stroke="#263238" stroke-miterlimit="10" stroke-linecap="round"/>
<path id="Vector_116" d="M74.319 30.3448C74.319 30.3448 78.87 38.4448 81.021 41.4718C83.172 44.4988 93.159 50.7028 93.921 51.3358C94.683 51.9688 96.576 51.5878 97.083 51.2098C97.59 50.8318 102.783 49.0588 104.418 45.6448C106.053 42.2308 107.718 33.7588 105.681 29.5858C103.644 25.4128 97.716 23.1358 94.173 22.7578C92.1018 22.5225 90.0053 22.6504 87.978 23.1358C87.978 23.1358 86.334 22.5058 84.183 23.6428C82.032 24.7798 81.528 25.4128 81.528 25.4128C81.528 25.4128 76.974 26.8048 74.319 30.3448Z" fill="white" stroke="#263238" stroke-miterlimit="10"/>
<path id="Vector_117" d="M89.871 22.758C89.871 22.758 92.4 20.862 94.425 20.358C96.45 19.854 102.138 21.117 104.16 22.254C106.182 23.391 110.991 33.636 111.876 36.924C112.761 40.212 110.736 45.7769 110.61 49.0619C110.484 52.347 114.657 63.48 115.164 64.869C115.671 66.258 115.794 66.261 112.764 68.031C109.734 69.801 101.886 71.7 99.987 72.327C98.088 72.954 96.069 68.28 94.8 63.729C93.531 59.178 93.915 54.129 95.181 47.418C96.447 40.707 97.329 34.644 96.696 29.586C96.063 24.528 92.4 22.5 89.871 22.758Z" fill="white" stroke="#263238" stroke-miterlimit="10"/>
<path id="Vector_118" d="M87.975 23.136C90.3705 24.8982 92.0697 27.447 92.775 30.336C93.912 35.136 95.43 37.536 96.567 38.436" stroke="#263238" stroke-miterlimit="10"/>
<path id="Vector_119" d="M81.525 25.4128C81.525 25.4128 90.411 28.2958 94.077 34.3648" stroke="#263238" stroke-miterlimit="10"/>
<path id="Vector_120" d="M41.674 66.0336C44.2703 65.0963 44.5908 59.3943 42.39 53.2978C40.1891 47.2013 36.3002 43.0189 33.7038 43.9562C31.1075 44.8935 30.787 50.5955 32.9879 56.692C35.1888 62.7885 39.0777 66.9709 41.674 66.0336Z" fill="white" stroke="#263238" stroke-miterlimit="10"/>
<path id="Vector_121" d="M42.2229 65.9267C44.8192 64.9894 45.1397 59.2874 42.9388 53.1909C40.738 47.0944 36.8491 42.912 34.2527 43.8493C31.6564 44.7866 31.3359 50.4886 33.5368 56.5851C35.7376 62.6816 39.6266 66.864 42.2229 65.9267Z" fill="white" stroke="#263238" stroke-miterlimit="10"/>
<path id="Vector_122" d="M38.196 59.229L38.148 60.228" stroke="#263238" stroke-miterlimit="10" stroke-linecap="round"/>
<path id="Vector_123" d="M38.805 46.821L38.259 57.96" stroke="#263238" stroke-miterlimit="10" stroke-linecap="round"/>
<path id="Vector_124" d="M37.359 49.845L36.966 56.94" stroke="#263238" stroke-miterlimit="10" stroke-linecap="round"/>
<path id="Vector_125" d="M42.804 63.4319L42.747 64.0379" stroke="#263238" stroke-miterlimit="10" stroke-linecap="round"/>
<path id="Vector_126" d="M43.2751 58.386L42.9301 62.07" stroke="#263238" stroke-miterlimit="10" stroke-linecap="round"/>
<path id="Vector_127" d="M41.679 66.0331L45.285 76.0321L47.52 74.7211L42.6 65.6851L41.679 66.0331Z" fill="#263238" stroke="#263238" stroke-miterlimit="10"/>
<path id="Vector_128" d="M67.47 97.8C67.47 97.8 58.014 92.475 55.734 89.652C54.6045 88.2991 53.5519 86.8839 52.581 85.413C52.581 85.413 51.822 79.326 51.495 77.481C51.168 75.636 48.777 71.937 48.342 70.632C47.9788 69.4998 47.7246 68.3355 47.583 67.155C47.475 66.285 46.278 66.504 45.735 67.698C45.192 68.892 46.062 70.959 46.17 71.721C46.2648 72.2762 46.4104 72.8215 46.605 73.35C46.605 73.35 43.344 70.308 43.005 70.089C42.666 69.87 41.919 69.873 41.703 71.067C41.487 72.261 42.462 73.785 42.462 73.785C42.462 73.785 40.833 74.985 40.833 75.741C40.8596 76.3972 40.9318 77.0508 41.049 77.697C41.049 77.697 40.29 80.304 40.398 80.958C40.506 81.612 41.484 83.565 41.484 83.565C41.484 83.565 40.284 83.673 39.963 83.349C39.642 83.025 38.877 81.282 38.442 81.717C38.007 82.152 38.226 83.784 38.442 84.327C38.658 84.87 39.642 84.87 40.29 85.629C40.938 86.388 43.875 86.499 44.418 86.829C44.961 87.159 50.94 93.129 53.766 95.847C56.592 98.565 64.74 106.608 65.283 107.586C65.826 108.564 67.35 109.758 67.35 109.758L67.47 97.8Z" fill="white" stroke="#263238" stroke-miterlimit="10"/>
<path id="Vector_129" d="M46.605 73.3589L49.431 75.8579" stroke="#263238" stroke-miterlimit="10"/>
<path id="Vector_130" d="M42.4741 73.7939L44.2141 76.6199" stroke="#263238" stroke-miterlimit="10"/>
<path id="Vector_131" d="M41.061 77.7061L42.474 80.3131" stroke="#263238" stroke-miterlimit="10"/>
<g id="Vector_132">
<path d="M99.963 79.335L82.563 99.984C82.563 99.984 81.1501 99.333 80.607 99.876C80.3071 100.163 80.0504 100.493 79.845 100.854L76.695 99.984C76.695 99.984 69.522 96.723 68.109 96.723C66.696 96.723 66.261 96.942 66.261 97.485C66.261 98.028 66.3721 118.458 66.3721 119.871C66.3721 121.284 66.48 122.589 68.328 123.24C70.176 123.891 76.0441 124.869 77.673 124.761C79.3021 124.653 80.6071 123.675 81.0421 122.805C81.4771 121.935 81.477 118.242 81.477 118.242C81.477 118.242 86.0401 118.785 89.3011 116.067C92.5621 113.349 102.993 98.028 104.514 95.967C106.035 93.906 109.404 88.575 110.382 86.619" fill="#92E3A9"/>
<path d="M99.963 79.335L82.563 99.984C82.563 99.984 81.1501 99.333 80.6071 99.876C80.3071 100.163 80.0504 100.493 79.845 100.854L76.695 99.984C76.695 99.984 69.522 96.723 68.109 96.723C66.696 96.723 66.261 96.942 66.261 97.485C66.261 98.028 66.3721 118.458 66.3721 119.871C66.3721 121.284 66.48 122.589 68.328 123.24C70.176 123.891 76.0441 124.869 77.6731 124.761C79.3021 124.653 80.6071 123.675 81.0421 122.805C81.4771 121.935 81.477 118.242 81.477 118.242C81.477 118.242 86.0401 118.785 89.3011 116.067C92.5621 113.349 102.993 98.028 104.514 95.967C106.035 93.906 109.404 88.575 110.382 86.619" stroke="#263238" stroke-miterlimit="10"/>
</g>
<path id="Vector_133" d="M77.973 100.332L76.707 99.9839C76.707 99.9839 69.534 96.7229 68.121 96.7229C66.708 96.7229 66.273 96.9419 66.273 97.4849C66.273 98.0279 66.384 118.458 66.384 119.871C66.384 121.284 66.492 122.589 68.34 123.24C70.188 123.891 76.056 124.869 77.685 124.761C79.314 124.653 80.619 123.675 81.054 122.805C81.489 121.935 81.489 118.242 81.489 118.242C81.489 118.242 80.289 104.766 78.12 100.527L77.973 100.332Z" fill="white" stroke="#263238" stroke-miterlimit="10"/>
<path id="Vector_134" d="M105.504 94.659C105.504 94.659 108.873 92.16 110.178 89.769" stroke="#263238" stroke-miterlimit="10"/>
<path id="Vector_135" d="M84.558 106.824C84.663 107.073 84.762 107.328 84.858 107.592" stroke="#263238" stroke-miterlimit="10"/>
<path id="Vector_136" d="M79.8571 100.854C81.6266 102.135 83.0662 103.818 84.0571 105.765" stroke="#263238" stroke-miterlimit="10"/>
<path id="Vector_137" d="M82.902 100.527C82.902 100.527 85.074 101.94 85.725 103.788" stroke="#263238" stroke-miterlimit="10"/>
<path id="Vector_138" d="M81.366 51.048C81.261 51.048 81.219 51.027 81.21 50.997C81.954 50.625 82.527 50.202 82.749 49.797C83.433 48.546 81.954 47.862 80.703 48.204C80.703 48.204 77.328 48.894 75.621 49.578C73.914 50.262 73.647 51.729 75.921 52.071C76.059 52.092 76.2 52.107 76.35 52.116H76.299H76.413C76.9149 52.1325 77.4171 52.1014 77.913 52.023C78.156 52.023 78.285 52.053 78.141 52.125C77.682 52.356 76.683 52.968 78.066 53.124C79.449 53.28 82.668 51.972 82.974 51.588C83.28 51.204 81.828 51.048 81.366 51.048Z" fill="#92E3A9"/>
<path id="Vector_139" opacity="0.6" d="M81.366 51.048C81.261 51.048 81.219 51.027 81.21 50.997C81.954 50.625 82.527 50.202 82.749 49.797C83.433 48.546 81.954 47.862 80.703 48.204C80.703 48.204 77.328 48.894 75.621 49.578C73.914 50.262 73.647 51.729 75.921 52.071C76.059 52.092 76.2 52.107 76.35 52.116H76.299H76.413C76.9149 52.1325 77.4171 52.1014 77.913 52.023C78.156 52.023 78.285 52.053 78.141 52.125C77.682 52.356 76.683 52.968 78.066 53.124C79.449 53.28 82.668 51.972 82.974 51.588C83.28 51.204 81.828 51.048 81.366 51.048Z" fill="white"/>
</g>
<g id="freepik--Table--inject-2">
<path id="Vector_140" d="M8.70001 134.76H142.899" stroke="#263238" stroke-miterlimit="10"/>
</g>
<g id="freepik--Bottles--inject-2">
<path id="Vector_141" d="M52.995 136.8H48.795C48.5459 136.801 48.3054 136.709 48.1198 136.543C47.9342 136.377 47.8167 136.148 47.79 135.9L45.9 117H55.902L54 135.9C53.9733 136.148 53.8559 136.377 53.6703 136.543C53.4847 136.709 53.2441 136.801 52.995 136.8Z" fill="#92E3A9" stroke="#263238" stroke-miterlimit="10"/>
<path id="Vector_142" d="M53.253 136.806H48.471V138.6H53.253V136.806Z" fill="#263238" stroke="#263238" stroke-miterlimit="10"/>
<path id="Vector_143" d="M42.105 127.899H28.806C27.9776 127.899 27.306 128.57 27.306 129.399V137.1C27.306 137.928 27.9776 138.6 28.806 138.6H42.105C42.9335 138.6 43.605 137.928 43.605 137.1V129.399C43.605 128.57 42.9335 127.899 42.105 127.899Z" fill="white" stroke="#263238" stroke-miterlimit="10"/>
<path id="Vector_144" d="M38.724 130.05H27.954V135.219H38.724V130.05Z" fill="#263238" stroke="#263238" stroke-miterlimit="10"/>
<path id="Vector_145" d="M42.207 125.499H28.806V127.899H42.207V125.499Z" fill="white" stroke="#263238" stroke-miterlimit="10"/>
<path id="Vector_146" d="M29.007 126.9L36.306 125.499" stroke="#263238" stroke-miterlimit="10"/>
<path id="Vector_147" d="M31.806 128.001L40.506 125.601" stroke="#263238" stroke-miterlimit="10"/>
<path id="Vector_148" d="M38.907 128.001L42.108 126.6" stroke="#263238" stroke-miterlimit="10"/>
<path id="Vector_149" d="M18.672 108.768H17.436V110.07H18.672V108.768Z" fill="#92E3A9" stroke="#263238" stroke-miterlimit="10"/>
<path id="Vector_150" d="M19.323 109.941H16.851V110.526H19.323V109.941Z" fill="#92E3A9" stroke="#263238" stroke-miterlimit="10"/>
<path id="Vector_151" d="M25.8 120.084C25.6899 118.697 25.1602 117.376 24.2814 116.296C23.4027 115.217 22.2163 114.431 20.88 114.042L20.196 113.844L18.657 113.658H17.919L16.38 113.844L15.696 114.042C14.3583 114.43 13.1702 115.215 12.2898 116.295C11.4093 117.374 10.8782 118.696 10.767 120.084C10.527 122.996 10.5622 125.924 10.872 128.829C11.211 131.706 11.706 134.571 12.243 136.254C12.4617 136.936 12.8914 137.53 13.47 137.952C14.0485 138.374 14.7461 138.6 15.462 138.6H21.117C21.8324 138.6 22.5293 138.373 23.1073 137.951C23.6853 137.529 24.1145 136.935 24.333 136.254C24.87 134.571 25.365 131.706 25.704 128.829C26.0124 125.924 26.0445 122.995 25.8 120.084Z" fill="white" stroke="#263238" stroke-miterlimit="10"/>
<path id="Vector_152" d="M19.797 111.114H16.38V113.847H19.797V111.114Z" fill="#92E3A9" stroke="#263238" stroke-miterlimit="10"/>
<path id="Vector_153" d="M20.04 110.265H16.137V112.998H20.04V110.265Z" fill="#92E3A9" stroke="#263238" stroke-miterlimit="10"/>
<path id="Vector_154" d="M16.461 109.29C16.461 109.29 20.106 109.224 21.666 109.419L21.6 108.819C21.6 108.819 19.065 108.039 18.087 108.105C17.109 108.171 16.113 108.237 16.437 109.212L16.461 109.29Z" fill="#92E3A9" stroke="#263238" stroke-miterlimit="10"/>
<path id="Vector_155" d="M18.102 134.232C20.9104 134.232 23.187 130.408 23.187 125.691C23.187 120.974 20.9104 117.15 18.102 117.15C15.2937 117.15 13.017 120.974 13.017 125.691C13.017 130.408 15.2937 134.232 18.102 134.232Z" fill="#92E3A9" stroke="#263238" stroke-miterlimit="10"/>
</g>
<g id="freepik--Plant--inject-2">
<path id="Vector_156" d="M123.648 121.557C122.522 121.207 121.494 120.597 120.648 119.775C120.04 119.157 119.344 118.633 118.581 118.221C116.937 117.396 113.505 116.721 113.505 116.721C113.505 116.721 116.523 116.034 118.857 116.583C121.191 117.132 122.835 119.463 122.835 119.463C122.835 119.463 122.148 118.503 121.188 115.623C120.228 112.743 120.228 106.566 120.228 106.566C120.228 106.566 122.562 109.173 123.657 112.329C124.321 114.242 124.781 116.22 125.031 118.23C125.031 118.23 124.755 113.43 125.58 110.682C126.405 107.934 128.736 104.508 128.736 104.508C128.736 104.508 128.871 110.547 127.911 113.838C126.951 117.129 126.54 118.638 126.54 118.638C127.14 116.928 128.125 115.379 129.42 114.111C131.478 112.188 136.419 110.544 136.419 110.544C136.419 110.544 134.1 114.789 132.6 116.163C131.1 117.537 129.582 119.043 129.582 119.043C129.582 119.043 131.229 117.807 134.109 117.807C136.989 117.807 140.409 119.73 140.409 119.73C140.409 119.73 133.074 119.685 130.374 120.93C129.832 121.194 129.258 121.387 128.667 121.503L127.167 121.767C125.989 121.977 124.778 121.899 123.636 121.542L123.648 121.557Z" fill="#92E3A9" stroke="#263238" stroke-linecap="round" stroke-linejoin="round"/>
<path id="Vector_157" d="M123.615 120.231L121.926 119.061" stroke="#263238" stroke-linecap="round" stroke-linejoin="round"/>
<path id="Vector_158" d="M125.436 121.14L123.096 114.9" stroke="#263238" stroke-linecap="round" stroke-linejoin="round"/>
<path id="Vector_159" d="M125.436 121.14L126.735 112.818" stroke="#263238" stroke-linecap="round" stroke-linejoin="round"/>
<path id="Vector_160" d="M125.436 121.14L129.858 115.68" stroke="#263238" stroke-linecap="round" stroke-linejoin="round"/>
<path id="Vector_161" d="M126.36 121.032L131.028 118.929" stroke="#263238" stroke-linecap="round" stroke-linejoin="round"/>
<path id="Vector_162" d="M130.35 138.6H120.486C120.272 138.6 120.06 138.555 119.864 138.47C119.668 138.384 119.492 138.258 119.346 138.101C119.201 137.944 119.09 137.758 119.019 137.556C118.949 137.354 118.921 137.139 118.938 136.926L120.138 121.626H130.716L131.916 136.926C131.933 137.141 131.904 137.357 131.833 137.56C131.762 137.764 131.649 137.95 131.501 138.108C131.354 138.265 131.176 138.39 130.978 138.475C130.779 138.56 130.566 138.602 130.35 138.6Z" fill="white" stroke="#263238" stroke-linecap="round" stroke-linejoin="round"/>
<path id="Vector_163" d="M124.248 130.302C124.014 133.659 123.012 136.323 122.013 136.251C121.014 136.179 120.393 133.404 120.627 130.05C120.861 126.696 121.86 124.029 122.859 124.098C123.858 124.167 124.482 126.945 124.248 130.302Z" stroke="#92E3A9" stroke-miterlimit="10"/>
<path id="Vector_164" d="M126.069 130.302C126.303 133.659 127.305 136.323 128.304 136.251C129.303 136.179 129.924 133.404 129.69 130.05C129.456 126.696 128.457 124.029 127.458 124.098C126.459 124.167 125.835 126.945 126.069 130.302Z" stroke="#92E3A9" stroke-miterlimit="10"/>
</g>
</g>
</svg>
