<svg width="150" height="150" viewBox="0 0 150 150" fill="none" xmlns="http://www.w3.org/2000/svg">
<g id="Cardiologist-bro 1">
<g id="freepik--background-simple--inject-1">
<path id="Vector" d="M93.771 129.729C111.729 120.276 125.85 105.822 134.052 88.9649C141.774 73.0979 150.231 52.0649 145.689 43.7159C137.973 29.5079 20.286 6.91494 7.15798 19.7999C-5.97001 32.6849 46.692 135.384 68.958 136.8C76.596 137.289 85.449 134.1 93.771 129.729Z" fill="#92E3A9"/>
<path id="Vector_2" opacity="0.7" d="M93.771 129.729C111.729 120.276 125.85 105.822 134.052 88.9649C141.774 73.0979 150.231 52.0649 145.689 43.7159C137.973 29.5079 20.286 6.91494 7.15798 19.7999C-5.97001 32.6849 46.692 135.384 68.958 136.8C76.596 137.289 85.449 134.1 93.771 129.729Z" fill="white"/>
</g>
<g id="freepik--Shadows--inject-1">
<path id="Vector_3" d="M119.04 135.213C129.833 135.213 138.582 133.268 138.582 130.869C138.582 128.47 129.833 126.525 119.04 126.525C108.247 126.525 99.4979 128.47 99.4979 130.869C99.4979 133.268 108.247 135.213 119.04 135.213Z" fill="#263238"/>
<path id="Vector_4" d="M58.4819 135.213C69.2747 135.213 78.0239 133.268 78.0239 130.869C78.0239 128.47 69.2747 126.525 58.4819 126.525C47.6892 126.525 38.9399 128.47 38.9399 130.869C38.9399 133.268 47.6892 135.213 58.4819 135.213Z" fill="#263238"/>
</g>
<g id="freepik--Character--inject-1">
<path id="Vector_5" d="M111.966 123.723C111.966 123.723 110.382 126.075 109.797 126.582C109.212 127.089 106.047 128.931 105.339 129.186C104.631 129.441 104.685 129.885 104.868 130.266C105.051 130.647 106.119 131.466 109.053 131.346C111.987 131.226 112.245 131.22 113.334 130.968C114.423 130.716 117.483 130.905 117.483 130.905C117.483 130.905 119.523 130.839 119.982 130.332C120.441 129.825 120.264 126.201 120.264 126.201L111.966 123.723Z" fill="white" stroke="#263238" stroke-linecap="round" stroke-linejoin="round"/>
<path id="Vector_6" d="M120.264 128.958C119.568 129.042 118.521 129.198 117.066 129.507C114.066 130.14 113.733 130.332 109.395 130.407C107.826 130.458 106.259 130.256 104.754 129.807C104.752 129.969 104.792 130.129 104.868 130.272C105.051 130.653 106.119 131.472 109.053 131.352C111.987 131.232 112.245 131.226 113.334 130.971C114.423 130.716 117.483 130.911 117.483 130.911C117.483 130.911 119.523 130.845 119.982 130.338C120.141 130.155 120.222 129.6 120.264 128.958Z" fill="white" stroke="#263238" stroke-linecap="round" stroke-linejoin="round"/>
<path id="Vector_7" d="M122.715 125.058C122.467 125.857 122.129 126.625 121.707 127.347C120.978 128.616 118.776 130.014 117.483 130.905C116.19 131.796 116.241 132.174 117.183 132.618C118.125 133.062 121.761 133.254 122.973 133.191C124.185 133.128 127.773 132.111 128.292 132.048C128.811 131.985 129.438 132.114 129.906 131.097C130.374 130.08 129.846 127.536 129.846 127.536C129.846 127.536 126.846 125.187 125.646 124.932C124.446 124.677 123.369 124.359 122.715 125.058Z" fill="white" stroke="#263238" stroke-linecap="round" stroke-linejoin="round"/>
<path id="Vector_8" d="M129.9 131.1C130.028 130.774 130.092 130.427 130.089 130.077C129.408 130.263 128.748 130.521 128.121 130.845C127.023 131.481 125.721 132.18 122.721 132.243C120.644 132.242 118.569 132.091 116.514 131.793C116.367 132.123 116.61 132.363 117.165 132.621C118.11 133.068 121.743 133.257 122.955 133.194C124.167 133.131 127.755 132.114 128.274 132.051C128.793 131.988 129.444 132.114 129.9 131.1Z" fill="white" stroke="#263238" stroke-linecap="round" stroke-linejoin="round"/>
<path id="Vector_9" d="M109.884 90C109.884 90 110.784 102.414 111.246 105.399C111.708 108.384 112.332 119.799 112.326 120.099C112.343 120.685 112.33 121.272 112.287 121.857C112.224 122.031 111.636 122.091 111.57 122.382C111.477 123.078 111.442 123.78 111.465 124.482C111.516 124.782 112.104 124.833 113.088 125.418C114.072 126.003 117.111 126.9 118.23 126.9C119.349 126.9 120.402 127.017 120.405 126.84C120.408 126.663 120.477 123.561 120.498 122.64C120.519 121.719 120.231 121.47 120.306 120.708C120.381 119.946 120.111 90 120.111 90L121.104 90.3C121.104 90.3 121.725 109.857 121.908 112.2C122.091 114.543 121.842 122.979 121.842 122.979C121.842 122.979 121.308 123.213 121.302 123.447C121.281 124.491 121.644 125.652 121.821 126.675C122.865 126.422 123.947 126.37 125.01 126.522C125.967 126.624 127.11 126.693 128.01 127.062C128.593 127.328 129.217 127.492 129.855 127.548C130.03 127.438 130.18 127.293 130.295 127.121C130.41 126.95 130.488 126.756 130.524 126.552C130.645 125.589 130.483 124.612 130.056 123.741C129.495 122.571 129.336 121.809 129.438 119.937C129.54 118.065 130.938 110.445 130.998 107.937C131.058 105.429 131.394 98.1 131.469 97.395C131.544 96.69 131.952 88.9051 131.952 88.9051L130.8 87.3L109.86 88.059L109.884 90Z" fill="#92E3A9" stroke="#263238" stroke-linecap="round" stroke-linejoin="round"/>
<path id="Vector_10" d="M114.378 91.2391L120.141 95.3761H120.159C120.132 92.1781 120.111 90 120.111 90L121.104 90.3C121.104 90.3 121.17 92.3791 121.266 95.2621L127.905 91.002L120.858 87.675L115.839 87.858L114.378 91.2391Z" fill="#263238" stroke="#263238" stroke-linecap="round" stroke-linejoin="round"/>
<path id="Vector_11" d="M115.242 39.39L107.1 42.927C107.1 42.927 101.523 55.527 101.37 56.631C101.217 57.735 102.432 58.239 103.389 58.752C104.346 59.265 108.675 59.076 108.675 59.076L106.824 90.237C106.824 90.237 108.681 90.945 110.991 91.59C113.301 92.235 117.147 93 117.147 93L117.999 89.589L118.758 93.189C118.758 93.189 125.025 93.063 127.431 92.289C129.837 91.515 135.507 89.202 135.507 89.202L134.187 67.113L133.842 62.352L134.1 56.625C134.1 56.625 136.953 55.983 136.971 55.212C136.989 54.441 135.3 42.804 135 42.096C134.7 41.388 131.934 40.488 131.613 40.422C131.292 40.356 125.136 38.427 125.136 38.427C125.136 38.427 118.113 37.977 115.242 39.39Z" fill="white" stroke="#263238" stroke-linecap="round" stroke-linejoin="round"/>
<path id="Vector_12" d="M116.829 37.7189C116.829 37.7189 115.725 37.9739 115.524 38.2319C115.323 38.4899 113.637 41.7719 113.637 41.7719L115.362 42.6719L113.517 44.3429L118.287 53.2859L127.341 44.0999L125.43 42.8789L127.143 41.3339C127.143 41.3339 126.303 38.5049 125.739 37.7969C125.393 37.3678 124.961 37.0162 124.47 36.7649L116.829 37.7189Z" fill="white" stroke="#263238" stroke-linecap="round" stroke-linejoin="round"/>
<path id="Vector_13" d="M116.193 37.2029L116.514 40.1639L118.569 49.4279L124.413 39.3269L124.938 36.0479L116.091 35.9819L116.193 37.2029Z" fill="white" stroke="#263238" stroke-linecap="round" stroke-linejoin="round"/>
<path id="Vector_14" d="M116.022 24.7229C116.022 24.7229 114.111 26.3939 114.222 27.5519C114.344 28.453 114.563 29.3381 114.876 30.1919L115.026 32.1209L115.479 31.9919L115.29 28.9679L117.591 27.1019L121.71 27.2999C121.71 27.2999 122.91 28.5209 123.354 28.8449C123.798 29.1689 124.818 29.8739 124.818 29.8739L125.148 32.3819L125.667 32.2529C125.667 32.2529 125.829 30.7739 125.901 30.5159C125.973 30.2579 126.186 26.4629 126.138 25.6919C126.09 24.9209 123.492 22.7309 120.852 22.3469C118.212 21.9629 116.634 23.2469 116.103 23.8889C115.572 24.5309 116.022 24.7229 116.022 24.7229Z" fill="#263238" stroke="#263238" stroke-linecap="round" stroke-linejoin="round"/>
<path id="Vector_15" d="M117.924 26.2019C117.924 26.2019 115.293 28.3889 115.281 28.9679C115.269 29.5469 115.257 35.7869 115.581 36.3659C115.905 36.9449 117.705 39.5849 118.599 40.0979C119.493 40.6109 120.399 40.7429 121.179 40.1639C121.959 39.5849 124.479 36.9479 124.953 36.0479C125.427 35.1479 125.232 29.3549 125.232 29.3549C125.232 29.3549 125.532 29.7419 124.53 28.9049C123.89 28.3466 123.397 27.64 123.093 26.8469C123.093 26.8469 119.004 27.1019 117.924 26.2019Z" fill="white" stroke="#263238" stroke-linecap="round" stroke-linejoin="round"/>
<path id="Vector_16" d="M125.217 29.355C125.217 29.355 125.217 29.385 125.217 29.433C125.316 29.481 125.217 29.355 125.217 29.355Z" fill="white" stroke="#263238" stroke-linecap="round" stroke-linejoin="round"/>
<path id="Vector_17" d="M118.584 40.0979C119.484 40.6139 120.384 40.7429 121.164 40.1639C121.944 39.5849 124.464 36.9479 124.938 36.0479C125.379 35.2079 125.238 30.1199 125.22 29.4479C125.063 29.3629 124.915 29.2624 124.779 29.1479L124.818 29.8979L124.695 35.3669L123.579 36.2009C122.314 35.3933 120.843 34.9692 119.343 34.9799C116.943 35.0429 116.091 36.0089 116.091 36.0089L115.281 28.9949C115.281 29.5739 115.257 35.8139 115.581 36.3929C115.905 36.9719 117.69 39.5999 118.584 40.0979Z" fill="#263238" stroke="#263238" stroke-linecap="round" stroke-linejoin="round"/>
<g id="Vector_18">
<path d="M118.899 31.8V35.082C118.998 35.2213 119.137 35.3268 119.298 35.3842C119.459 35.4416 119.634 35.4482 119.799 35.403C119.946 35.356 120.078 35.2719 120.183 35.159C120.288 35.046 120.363 34.908 120.399 34.758" fill="white"/>
<path d="M118.899 31.8V35.082C118.998 35.2213 119.137 35.3268 119.298 35.3842C119.459 35.4416 119.634 35.4482 119.799 35.403C119.946 35.356 120.078 35.2719 120.183 35.159C120.288 35.046 120.363 34.908 120.399 34.758" stroke="#263238" stroke-linecap="round" stroke-linejoin="round"/>
</g>
<path id="Vector_19" d="M125.298 31.479C125.298 31.479 125.664 29.55 126.177 29.679C126.69 29.808 126.861 30.9 126.444 32.25C126.027 33.6 125.316 33.603 125.316 33.603L125.298 31.479Z" fill="white" stroke="#263238" stroke-linecap="round" stroke-linejoin="round"/>
<path id="Vector_20" d="M115.5 31.4788C115.5 31.4788 115.221 29.5468 114.699 29.6788C114.177 29.8108 113.964 30.8998 114.321 32.2528C114.678 33.6058 115.386 33.6028 115.386 33.6028L115.5 31.4788Z" fill="white" stroke="#263238" stroke-linecap="round" stroke-linejoin="round"/>
<path id="Vector_21" d="M120.921 30.8998C120.921 30.8998 122.475 30.6418 123.375 30.8998" stroke="#263238" stroke-linecap="round" stroke-linejoin="round"/>
<path id="Vector_22" d="M118.404 30.771C118.404 30.771 117.063 30.063 116.343 30.513" stroke="#263238" stroke-linecap="round" stroke-linejoin="round"/>
<path id="Vector_23" d="M122.568 32.2499C122.568 32.6069 122.394 32.8949 122.199 32.8949C122.004 32.8949 121.851 32.5949 121.857 32.2499C121.863 31.9049 122.031 31.6079 122.229 31.6079C122.427 31.6079 122.577 31.8959 122.568 32.2499Z" fill="#263238"/>
<path id="Vector_24" d="M118.047 32.2499C118.047 32.6039 117.876 32.8919 117.678 32.8919C117.48 32.8919 117.33 32.5919 117.339 32.2499C117.348 31.9079 117.51 31.6079 117.708 31.6079C117.906 31.6079 118.056 31.8959 118.047 32.2499Z" fill="#263238"/>
<path id="Vector_25" d="M118.533 36.561C118.999 36.7418 119.501 36.8071 119.997 36.7512C120.494 36.6953 120.969 36.5199 121.383 36.24" stroke="white" stroke-linecap="round" stroke-linejoin="round"/>
<path id="Vector_26" d="M109.23 46.467L109.914 52.617L110.472 48.75" stroke="#263238" stroke-linecap="round" stroke-linejoin="round"/>
<path id="Vector_27" d="M128.955 48.4229C128.745 48.8644 128.59 49.3298 128.493 49.8089C128.349 50.9189 129.309 55.3108 129.309 55.3108" stroke="#263238" stroke-linecap="round" stroke-linejoin="round"/>
<path id="Vector_28" d="M130.473 45.3569C130.473 45.3569 130.143 45.9569 129.753 46.7279" stroke="#263238" stroke-linecap="round" stroke-linejoin="round"/>
<path id="Vector_29" d="M130.494 56.184L133.332 54.084" stroke="#263238" stroke-linecap="round" stroke-linejoin="round"/>
<g id="Vector_30">
<path d="M133.461 56.19L121.776 55.779L115.161 59.877L132.063 63.57C132.063 63.57 135.426 62.97 136.263 62.106C137.1 61.242 137.445 59.106 137.463 58.125C137.481 57.144 136.836 54.552 136.836 54.552" fill="white"/>
<path d="M133.461 56.19L121.776 55.779L115.161 59.877L132.063 63.57C132.063 63.57 135.426 62.97 136.263 62.106C137.1 61.242 137.445 59.106 137.463 58.125C137.481 57.144 136.836 54.552 136.836 54.552" stroke="#263238" stroke-linecap="round" stroke-linejoin="round"/>
</g>
<g id="Vector_31">
<path d="M104.64 54.3779L123.66 52.7729L124.542 56.6339L105.789 63.6419C105.789 63.6419 103.062 64.287 101.871 62.613C101.364 61.9408 101.002 61.1703 100.809 60.3505C100.617 59.5307 100.597 58.6797 100.752 57.8519C101.052 56.5019 102.234 55.0229 102.234 55.0229" fill="white"/>
<path d="M104.64 54.3779L123.66 52.7729L124.542 56.6339L105.789 63.6419C105.789 63.6419 103.062 64.287 101.871 62.613C101.364 61.9408 101.002 61.1703 100.809 60.3505C100.617 59.5307 100.597 58.6797 100.752 57.8519C101.052 56.5019 102.234 55.0229 102.234 55.0229" stroke="#263238" stroke-linecap="round" stroke-linejoin="round"/>
</g>
<path id="Vector_32" d="M123.78 53.2229C123.78 53.2229 126.687 53.1599 127.512 53.8019C128.337 54.4439 130.494 56.1839 130.494 56.1839L124.425 55.9979L123.78 53.2229Z" fill="white" stroke="#263238" stroke-linecap="round" stroke-linejoin="round"/>
<path id="Vector_33" d="M112.593 53.787C112.593 53.787 108.993 52.263 108.453 52.323C107.913 52.383 106.053 54.195 106.053 54.195L112.593 53.787Z" fill="white" stroke="#263238" stroke-linecap="round" stroke-linejoin="round"/>
<path id="Vector_34" d="M117.867 85.1189L117.885 87.0089" stroke="#263238" stroke-linecap="round" stroke-linejoin="round"/>
<path id="Vector_35" d="M117.828 61.5178L117.852 83.5918" stroke="#263238" stroke-linecap="round" stroke-linejoin="round"/>
<path id="Vector_36" d="M130.314 74.631C130.634 74.5518 130.943 74.4349 131.235 74.283" stroke="#263238" stroke-linecap="round" stroke-linejoin="round"/>
<path id="Vector_37" d="M123.135 73.8718L123.168 75.0448C123.168 75.0448 126.585 75.2338 129.135 74.8648" stroke="#263238" stroke-linecap="round" stroke-linejoin="round"/>
<path id="Vector_38" d="M124.2 73.5208C124.2 73.5208 128.25 73.6978 131.148 72.9958" stroke="#263238" stroke-linecap="round" stroke-linejoin="round"/>
<path id="Vector_39" d="M108.684 73.521C108.684 73.521 110.784 74.868 114.483 74.4" stroke="#263238" stroke-linecap="round" stroke-linejoin="round"/>
<path id="Vector_40" d="M108.828 72.3479C108.828 72.3479 111.033 73.6379 114.513 73.0529" stroke="#263238" stroke-linecap="round" stroke-linejoin="round"/>
</g>
<g id="freepik--Heartbeats--inject-1">
<path id="Vector_41" opacity="0.3" d="M8.17505 40.5031H11.7L13.557 35.2171L15.321 44.0311L16.989 32.2471L18.66 41.8021L20.331 37.3501L21.906 40.1341H25.2481L26.6401 25.1941L28.4941 50.9881L30.258 35.1241L31.743 44.1211L33.504 40.1341H76.0921L77.67 46.6291L79.524 34.1941L81.0091 42.8251L82.6801 35.8651L84.4441 40.1341H87.3181L89.1751 42.7321L90.9391 33.8251L92.5141 50.6161L94.2781 26.6791L95.856 42.6391L97.7101 33.2671L99.1951 40.0411H102.444" stroke="black" stroke-linecap="round" stroke-linejoin="round"/>
<path id="Vector_42" opacity="0.3" d="M8.17505 71.859H11.7L13.557 66.57L15.321 75.384L16.989 63.6L18.66 73.1551L20.331 68.703L21.906 71.487H25.2481L26.6401 56.55L28.4941 82.3411L30.258 66.477L31.743 75.477L33.504 71.487H76.0921L77.67 77.9821L79.524 65.5471L81.0091 74.178L82.6801 67.218L84.4441 71.487H87.3181L89.1751 74.085L90.9391 65.178L92.5141 81.972L94.2781 58.032L95.856 73.992L97.7101 64.62L99.1951 71.394H102.444" stroke="black" stroke-linecap="round" stroke-linejoin="round"/>
</g>
<g id="freepik--Heart--inject-1">
<path id="Vector_43" d="M21.861 99.3962C12.861 99.3962 6.79802 96.0242 5.49302 90.2132C3.99302 83.4902 9.51302 73.2332 25.209 66.6092C54.984 54.0422 84.99 59.2172 94.335 71.9372C95.9915 74.1565 97.2641 76.638 98.1 79.2782L95.658 80.0282C94.9041 77.6609 93.7582 75.437 92.268 73.4492C88.05 67.7102 78.639 63.5492 67.086 62.3492C54.078 60.9782 39.555 63.3272 26.193 68.9672C15.819 73.3472 6.22802 81.8672 7.97702 89.6672C9.06302 94.5032 14.793 97.1672 23.313 96.8252C31.65 96.4772 40.887 94.6952 50.76 91.5302L51.54 93.9632C41.448 97.1972 31.986 99.0182 23.418 99.3632C22.896 99.3872 22.374 99.3962 21.861 99.3962Z" fill="#263238" stroke="#263238" stroke-linecap="round" stroke-linejoin="round"/>
<path id="Vector_44" d="M31.2001 85.8002C31.2001 85.8002 33.7411 93.4202 40.8961 98.2682C49.0588 103.712 58.2965 107.338 67.9831 108.9C78.2941 110.517 82.9831 109.902 85.2991 106.668C87.6151 103.434 91.0711 96.4322 86.9911 81.4262C82.9111 66.4202 81.5281 67.4192 81.5281 67.4192C81.0052 64.8409 79.7171 62.4802 77.8321 60.6452C74.6791 57.5672 69.0601 55.5662 69.0601 55.5662C69.0601 55.5662 66.6751 58.4132 61.6711 58.4132C56.6671 58.4132 50.8201 56.3342 47.1241 56.4902C43.4281 56.6462 38.5831 61.5692 34.8871 73.3442C31.1911 85.1192 31.2001 85.8002 31.2001 85.8002Z" fill="#92E3A9"/>
<path id="Vector_45" opacity="0.58" d="M78.45 99.6452C78.831 98.6942 79.02 97.9352 77.88 96.0452C76.74 94.1552 72.942 90.9152 72.561 87.8762C72.18 84.8372 71.991 82.5572 73.323 84.2762C74.655 85.9952 79.212 93.9632 79.782 89.0252C80.352 84.0872 75.222 79.1462 74.841 78.0062C74.46 76.8662 81.681 78.0062 80.73 74.9672C79.779 71.9282 75.411 71.7392 74.271 69.0782C73.131 66.4172 73.131 65.0882 71.991 64.3292C71.136 63.7592 62.67 59.4332 57.417 58.0292C56.604 57.9032 55.788 57.7562 54.984 57.6032C54.5201 57.5473 54.0502 57.6342 53.637 57.8522C53.637 57.8522 55.845 62.4272 57.366 63.7562C58.887 65.0852 63.255 65.0852 62.874 67.1762C62.493 69.2672 62.685 74.3942 64.584 76.8632C66.483 79.3322 68.763 76.4852 67.053 86.1632C65.343 95.8412 67.053 99.0812 67.623 100.41C68.193 101.739 68.952 104.97 64.395 105.348C61.569 105.585 61.296 106.695 61.77 107.595C63.801 108.123 65.877 108.561 67.983 108.891C76.035 110.154 80.661 110.055 83.403 108.414C83.4149 107.932 83.2776 107.459 83.01 107.058C81.489 104.583 78.072 100.593 78.45 99.6452Z" fill="white"/>
<path id="Vector_46" opacity="0.58" d="M42.9271 64.692C42.6841 66.891 37.7191 72.081 34.2091 75.492C31.2001 85.2 31.2001 85.8 31.2001 85.8C31.2001 85.8 33.7411 93.42 40.8961 98.268C44.8381 100.909 49.051 103.122 53.4631 104.868C53.0431 103.707 52.2781 102.324 50.9131 101.544C48.2521 100.023 46.5421 97.365 44.6431 95.085C42.7441 92.805 41.6041 93.375 40.0831 91.665C38.5621 89.955 40.0831 84.828 42.5551 84.066C45.0271 83.304 44.8321 81.027 45.2131 78.558C45.5941 76.089 48.4561 70.023 50.5321 68.679C52.6081 67.335 53.3821 62.601 53.3821 62.601C54.0631 60.39 53.7331 58.323 52.5151 57.108C50.4991 56.721 48.6361 56.412 47.1301 56.475C44.4841 56.616 43.3081 61.272 42.9271 64.692Z" fill="white"/>
<path id="Vector_47" d="M31.2001 85.8002C31.2001 85.8002 33.7411 93.4202 40.8961 98.2682C49.0588 103.712 58.2965 107.338 67.9831 108.9C78.2941 110.517 82.9831 109.902 85.2991 106.668C87.6151 103.434 91.0711 96.4322 86.9911 81.4262C82.9111 66.4202 81.5281 67.4192 81.5281 67.4192C81.0052 64.8409 79.7171 62.4802 77.8321 60.6452C74.6791 57.5672 69.0601 55.5662 69.0601 55.5662C69.0601 55.5662 66.6751 58.4132 61.6711 58.4132C56.6671 58.4132 50.8201 56.3342 47.1241 56.4902C43.4281 56.6462 38.5831 61.5692 34.8871 73.3442C31.1911 85.1192 31.2001 85.8002 31.2001 85.8002Z" stroke="#263238" stroke-linecap="round" stroke-linejoin="round"/>
<path id="Vector_48" d="M62.604 62.9551C62.604 62.9551 65.055 65.7841 67.626 68.4331C69.018 69.8671 71.394 76.0801 70.479 80.4181C69.564 84.7561 68.88 90.8071 70.707 94.1161C72.534 97.4251 72.192 101.193 74.133 103.59C76.074 105.987 78.471 106.215 78.699 108.498" stroke="#263238" stroke-linecap="round" stroke-linejoin="round"/>
<path id="Vector_49" d="M68.4241 69.3C68.4241 69.3 70.7461 70.425 71.7961 71.7C73.0709 73.2799 74.8377 74.3877 76.8151 74.8471C79.1371 75.3721 81.0841 77.247 81.6151 78.966" stroke="#263238" stroke-linecap="round" stroke-linejoin="round"/>
<path id="Vector_50" d="M78.462 88.4041C78.387 87.7291 77.262 85.4041 75.54 84.0601C73.818 82.7161 73.593 81.0601 72.993 80.0911C72.393 79.1221 70.671 78.9661 70.671 78.9661" stroke="#263238" stroke-linecap="round" stroke-linejoin="round"/>
<path id="Vector_51" d="M69.5491 87.9541C69.5491 87.9541 69.7741 89.0041 72.6211 90.7261C75.4681 92.4481 75.9211 94.6951 76.5901 95.9701" stroke="#263238" stroke-linecap="round" stroke-linejoin="round"/>
<path id="Vector_52" d="M74.418 92.2981C74.418 92.2981 74.793 94.6981 75.24 95.7451" stroke="#263238" stroke-linecap="round" stroke-linejoin="round"/>
<path id="Vector_53" d="M70.707 94.1162C70.707 94.1162 70.074 94.4702 69.924 98.8892C69.8196 101.833 70.491 104.753 71.871 107.355" stroke="#263238" stroke-linecap="round" stroke-linejoin="round"/>
<path id="Vector_54" d="M71.796 96.6421C72.2367 97.6656 72.8161 98.6236 73.518 99.4891C74.718 100.989 78.237 102.261 78.918 102.561" stroke="#263238" stroke-linecap="round" stroke-linejoin="round"/>
<path id="Vector_55" d="M66.477 67.281C66.477 67.281 66.027 68.406 65.805 71.028C65.583 73.65 66.705 74.697 66.705 74.697" stroke="#263238" stroke-linecap="round" stroke-linejoin="round"/>
<path id="Vector_56" d="M50.115 57.2102C50.115 57.2102 51.279 61.3712 49.614 67.0292C47.949 72.6872 41.961 77.5112 39.3 80.5052C36.639 83.4992 35.307 87.4952 36.471 90.1562C37.635 92.8172 39.633 97.1462 46.455 99.1562" stroke="#263238" stroke-linecap="round" stroke-linejoin="round"/>
<path id="Vector_57" d="M48.4501 70.0232C48.4501 70.0232 49.2811 71.0222 48.4501 75.3482C47.6191 79.6742 49.4491 82.6682 49.4491 82.6682" stroke="#263238" stroke-linecap="round" stroke-linejoin="round"/>
<path id="Vector_58" d="M36.969 84.1682C36.969 84.1682 34.806 86.1632 34.473 87.9932C34.14 89.8232 35.139 91.5002 35.139 91.5002" stroke="#263238" stroke-linecap="round" stroke-linejoin="round"/>
<path id="Vector_59" d="M41.295 96.645C41.295 96.645 43.293 99.309 45.795 100.641" stroke="#263238" stroke-linecap="round" stroke-linejoin="round"/>
<path id="Vector_60" d="M81.5281 67.404C81.0051 64.8258 79.7171 62.4651 77.8321 60.63C74.6791 57.552 69.0601 55.551 69.0601 55.551C69.0601 55.551 66.6751 58.398 61.6711 58.398C61.0891 58.398 60.4951 58.368 59.8981 58.32C59.0551 59.52 58.6651 60.846 59.2081 62.169C59.2081 62.169 59.5081 63.171 60.9781 63.708C62.4481 64.245 63.5941 62.94 65.2891 63.555C66.9841 64.17 67.5961 65.709 71.5891 65.955C75.5821 66.201 75.5941 66.111 76.5931 67.032C77.5921 67.953 80.0641 68.634 81.5281 67.404Z" fill="#C4C4C4" stroke="#263238" stroke-linecap="round" stroke-linejoin="round"/>
<path id="Vector_61" d="M32.733 59.4722C32.733 59.4722 30.423 65.3252 30.423 67.7102C30.423 70.0952 29.502 80.6402 29.886 84.1052C30.27 87.5702 33.348 86.1062 35.286 83.9492C37.224 81.7922 37.749 79.4852 41.364 76.1012C44.979 72.7172 46.434 71.4002 47.895 68.2502C49.356 65.1002 50.316 62.6252 49.644 60.8192C48.972 59.0132 45.123 55.4732 41.508 54.8582C37.893 54.2432 33.81 55.6202 32.733 59.4722Z" fill="#C4C4C4" stroke="#263238" stroke-linecap="round" stroke-linejoin="round"/>
<path id="Vector_62" d="M49.644 60.8191C49.644 60.8191 46.284 61.4461 44.649 60.1531C43.014 58.8601 40.767 57.8371 40.29 54.8401C39.813 51.8431 39.339 43.8091 41.448 39.9961C43.557 36.1831 46.284 34.5481 46.284 34.5481L42.267 30.0151C42.0586 29.7844 41.9082 29.5073 41.8284 29.2068C41.7487 28.9063 41.7418 28.591 41.8084 28.2873C41.875 27.9836 42.0132 27.7002 42.2114 27.4607C42.4096 27.2211 42.6621 27.0324 42.948 26.9101L43.008 26.8861C43.3613 26.7569 43.7444 26.7326 44.1111 26.8162C44.4779 26.8997 44.8126 27.0876 45.075 27.3571L48.6 30.9301C48.7049 31.0364 48.8303 31.1202 48.9686 31.1765C49.1069 31.2329 49.2552 31.2604 49.4044 31.2576C49.5537 31.2548 49.7009 31.2217 49.837 31.1602C49.9731 31.0988 50.0952 31.0103 50.196 30.9001C50.3747 30.7033 50.4762 30.4485 50.4817 30.1827C50.4873 29.9169 50.3964 29.6581 50.226 29.4541L46.926 25.5211C46.7375 25.2976 46.6097 25.0294 46.5549 24.7423C46.5 24.4552 46.5199 24.1588 46.6127 23.8816C46.7055 23.6043 46.8681 23.3557 47.0848 23.1595C47.3015 22.9632 47.565 22.826 47.85 22.7611H47.916C48.2694 22.6976 48.6334 22.7285 48.971 22.8507C49.3087 22.9729 49.6081 23.1821 49.839 23.4571L53.919 28.1851C54.0462 28.3319 54.2204 28.43 54.4118 28.4628C54.6033 28.4957 54.8002 28.4611 54.969 28.3651C55.1143 28.2843 55.2323 28.1622 55.3081 28.0143C55.384 27.8663 55.4142 27.6992 55.395 27.5341L54.693 21.4351C54.6588 21.1573 54.6909 20.8754 54.7867 20.6124C54.8825 20.3495 55.0394 20.113 55.2443 19.9224C55.4493 19.7318 55.6965 19.5925 55.9657 19.5159C56.2349 19.4394 56.5184 19.4278 56.793 19.4821H56.862C57.1829 19.569 57.4729 19.7441 57.6994 19.9875C57.9258 20.2309 58.0795 20.5328 58.143 20.8591L59.601 28.2121C59.601 28.2121 62.868 28.2811 65.253 36.4531C67.638 44.6251 65.73 49.3231 65.457 50.6161C65.184 51.9091 56.457 55.8601 53.607 57.8341C52.234 58.7581 50.9111 59.7545 49.644 60.8191Z" fill="#92E3A9" stroke="#263238" stroke-linecap="round" stroke-linejoin="round"/>
<path id="Vector_63" d="M35.931 33.276C35.5724 33.4703 35.2721 33.7568 35.0611 34.1059C34.8502 34.455 34.7362 34.8541 34.731 35.262C34.6262 37.9642 34.233 40.6474 33.558 43.266C32.6136 47.2088 32.2697 51.2716 32.538 55.317C32.607 56.817 32.742 59.472 32.742 59.472C32.742 59.472 35.466 57.156 37.032 56.136C38.598 55.116 40.677 56.559 40.677 56.559C40.677 56.559 40.02 51.642 41.04 49.2C42.06 46.758 46.761 43.959 48.6 43.344C50.439 42.729 51.324 41.712 50.778 39.669C50.232 37.626 48.939 37.269 48.123 37.488C47.307 37.707 45.807 38.034 43.56 38.388C41.313 38.742 41.109 37.707 40.971 36.075C40.935 35.631 40.914 35.223 40.902 34.875C40.8934 34.2878 40.6605 33.726 40.2511 33.3049C39.8417 32.8838 39.2868 32.6352 38.7 32.61C37.7344 32.5833 36.7789 32.8131 35.931 33.276Z" fill="#999999" stroke="#263238" stroke-linecap="round" stroke-linejoin="round"/>
<path id="Vector_64" d="M49.5909 42.4687C50.3298 42.3276 50.7288 41.1657 50.482 39.8735C50.2353 38.5813 49.4363 37.6482 48.6974 37.7892C47.9586 37.9303 47.5596 39.0922 47.8064 40.3844C48.0531 41.6766 48.8521 42.6098 49.5909 42.4687Z" fill="#454545" stroke="#263238" stroke-linecap="round" stroke-linejoin="round"/>
<path id="Vector_65" d="M48.603 30.9302L50.82 33.1562" stroke="#263238" stroke-linecap="round" stroke-linejoin="round"/>
<path id="Vector_66" d="M53.937 28.1731L55.515 30.0751" stroke="#263238" stroke-linecap="round" stroke-linejoin="round"/>
<path id="Vector_67" d="M49.644 60.8192C49.644 60.8192 50.4 50.8652 56.319 45.6002C62.238 40.3352 72.9 38.6072 74.217 38.5862C74.655 38.5862 75.354 39.9122 75.354 41.9912C75.354 44.0702 77.037 46.7072 76.053 47.1452C75.069 47.5832 69.885 48.2252 68.253 49.3202C66.621 50.4152 67.815 50.4152 68.799 52.9202C69.783 55.4252 69.894 56.0912 68.361 57.9512C66.828 59.8112 61.686 62.5472 57.861 62.0012C54.036 61.4552 53.484 59.2652 52.161 59.8112C50.838 60.3572 49.644 60.8192 49.644 60.8192Z" fill="#999999" stroke="#263238" stroke-linecap="round" stroke-linejoin="round"/>
<path id="Vector_68" d="M76.527 42.579C77.034 44.943 76.827 46.992 76.053 47.157C75.279 47.322 74.253 45.54 73.746 43.176C73.239 40.812 73.446 38.763 74.217 38.598C74.988 38.433 76.02 40.215 76.527 42.579Z" fill="#454545" stroke="#263238" stroke-linecap="round" stroke-linejoin="round"/>
<path id="Vector_69" d="M64.0801 54.7861C63.876 55.3036 63.7125 55.8363 63.5911 56.3791" stroke="#263238" stroke-linecap="round" stroke-linejoin="round"/>
<path id="Vector_70" d="M68.244 49.332C66.81 50.4268 65.6172 51.8055 64.74 53.382" stroke="#263238" stroke-linecap="round" stroke-linejoin="round"/>
<path id="Vector_71" d="M58.551 40.941C58.8214 40.5766 59.1161 40.2308 59.433 39.906" stroke="#263238" stroke-linecap="round" stroke-linejoin="round"/>
<path id="Vector_72" d="M54.774 47.061C54.774 47.061 56.106 44.55 57.534 42.384" stroke="#263238" stroke-linecap="round" stroke-linejoin="round"/>
<path id="Vector_73" d="M66.036 123.036C61.632 123.036 58.704 122.16 57.294 120.42C56.298 119.187 56.094 117.549 56.748 115.806C57.441 113.937 60.078 111.057 64.584 107.247C67.884 104.463 71.019 102.147 71.052 102.147L72.129 103.617C68.727 106.104 59.64 113.259 58.458 116.448C58.035 117.594 58.119 118.548 58.713 119.283C59.643 120.432 62.76 122.139 73.176 120.627L73.437 122.427C70.9876 122.806 68.5143 123.009 66.036 123.036Z" fill="white" stroke="#263238" stroke-linecap="round" stroke-linejoin="round"/>
<path id="Vector_74" d="M66.633 118.521C65.478 118.521 64.32 118.476 63.171 118.38C54.453 117.654 50.127 114.357 49.944 108.3L51.768 108.243C51.87 111.678 53.268 115.725 63.321 116.565C73.374 117.405 84.579 113.937 84.69 113.901L85.233 115.644C84.813 115.776 75.9 118.521 66.633 118.521Z" fill="white" stroke="#263238" stroke-linecap="round" stroke-linejoin="round"/>
<path id="Vector_75" d="M72.201 124.566C71.5584 124.569 70.9385 124.329 70.4648 123.895C69.9912 123.461 69.6987 122.864 69.6457 122.224C69.5927 121.584 69.783 120.947 70.1788 120.441C70.5746 119.934 71.1467 119.596 71.781 119.493C71.802 119.493 73.911 119.133 76.092 118.56C76.7472 118.387 77.4445 118.481 78.0304 118.821C78.6164 119.162 79.043 119.721 79.2165 120.377C79.3899 121.032 79.296 121.729 78.9553 122.315C78.6146 122.901 78.0552 123.328 77.4 123.501C74.985 124.137 72.726 124.515 72.633 124.53C72.4902 124.554 72.3457 124.566 72.201 124.566Z" fill="#263238" stroke="#263238" stroke-linecap="round" stroke-linejoin="round"/>
<path id="Vector_76" d="M51.102 112.299C50.6112 112.299 50.131 112.157 49.7186 111.891C49.3063 111.625 48.9794 111.246 48.777 110.799C47.958 108.999 47.934 106.8 47.934 106.554C47.9783 105.908 48.2662 105.303 48.7396 104.861C49.2129 104.419 49.8364 104.173 50.484 104.173C51.1316 104.173 51.755 104.419 52.2283 104.861C52.7017 105.303 52.9896 105.908 53.034 106.554C53.0403 107.285 53.1701 108.009 53.418 108.696C53.591 109.085 53.6645 109.51 53.6317 109.935C53.5988 110.359 53.4608 110.768 53.2299 111.125C52.9991 111.483 52.6829 111.777 52.3097 111.981C51.9366 112.186 51.5184 112.294 51.093 112.296L51.102 112.299Z" fill="#263238" stroke="#263238" stroke-linecap="round" stroke-linejoin="round"/>
<path id="Vector_77" d="M96.756 96.483C98.34 93.759 101.298 87.168 98.805 79.062C98.6482 78.5532 98.2958 78.1275 97.8252 77.8785C97.3545 77.6295 96.8043 77.5777 96.2955 77.7345C95.7867 77.8912 95.3609 78.2437 95.112 78.7143C94.863 79.1849 94.8112 79.7352 94.968 80.244C95.6719 82.5563 95.8988 84.9875 95.6347 87.3901C95.3707 89.7928 94.6213 92.1167 93.432 94.221C92.727 94.011 91.818 93.768 90.774 93.549C88.155 92.997 86.208 92.976 82.221 94.35C78.486 95.64 69.57 102.114 68.565 102.849C68.1513 103.169 67.8788 103.637 67.8054 104.155C67.732 104.673 67.8635 105.199 68.1719 105.621C68.4804 106.043 68.9414 106.328 69.4568 106.416C69.9723 106.503 70.5016 106.386 70.932 106.089C73.527 104.193 80.847 99.069 83.532 98.145C86.814 97.014 88.062 97.08 89.949 97.476C91.0238 97.6997 92.0846 97.9862 93.126 98.334C94.2175 99.6601 94.949 101.245 95.25 102.936C96.045 108.036 87.648 111.231 83.139 112.941L82.281 113.268C81.8421 113.436 81.4759 113.752 81.2462 114.161C81.0164 114.571 80.9377 115.049 81.0237 115.51C81.1097 115.972 81.355 116.389 81.7169 116.689C82.0787 116.989 82.5342 117.152 83.004 117.15C83.2502 117.149 83.4941 117.103 83.724 117.015L84.561 116.694C90.135 114.594 100.509 110.649 99.216 102.321C98.859 100.211 98.0169 98.2123 96.756 96.483Z" fill="white" stroke="#263238" stroke-linecap="round" stroke-linejoin="round"/>
<path id="Vector_78" d="M28.179 96.4591L28.638 98.9761C35.781 98.2261 43.461 96.5431 51.549 93.9511L50.769 91.5181C42.774 94.0831 35.199 95.7361 28.179 96.4591Z" fill="#263238" stroke="#263238" stroke-linecap="round" stroke-linejoin="round"/>
<path id="Vector_79" d="M78.9952 91.9971C83.1871 87.8052 83.1871 81.0088 78.9952 76.8169C74.8033 72.625 68.0069 72.625 63.8151 76.8169C59.6232 81.0088 59.6232 87.8052 63.8151 91.9971C68.0069 96.189 74.8033 96.189 78.9952 91.9971Z" fill="#263238" stroke="#263238" stroke-linecap="round" stroke-linejoin="round"/>
<path id="Vector_80" d="M79.9769 91.9993C84.1688 87.8074 84.1688 81.011 79.9769 76.8191C75.785 72.6272 68.9886 72.6272 64.7967 76.8191C60.6049 81.011 60.6049 87.8074 64.7967 91.9993C68.9886 96.1911 75.785 96.1912 79.9769 91.9993Z" fill="white" stroke="#263238" stroke-linecap="round" stroke-linejoin="round"/>
<path id="Vector_81" d="M51.717 94.4731L50.604 90.9991C57.0478 88.9529 63.3318 86.434 69.405 83.4631L71.076 86.7001C70.749 86.8741 62.943 90.8731 51.717 94.4731Z" fill="white" stroke="#263238" stroke-linecap="round" stroke-linejoin="round"/>
<path id="Vector_82" d="M71.406 88.755C73.8067 88.755 75.753 86.8088 75.753 84.408C75.753 82.0073 73.8067 80.061 71.406 80.061C69.0052 80.061 67.059 82.0073 67.059 84.408C67.059 86.8088 69.0052 88.755 71.406 88.755Z" fill="#263238" stroke="#263238" stroke-linecap="round" stroke-linejoin="round"/>
<path id="Vector_83" d="M72.1411 88.755C74.5419 88.755 76.4881 86.8088 76.4881 84.408C76.4881 82.0073 74.5419 80.061 72.1411 80.061C69.7403 80.061 67.7941 82.0073 67.7941 84.408C67.7941 86.8088 69.7403 88.755 72.1411 88.755Z" fill="white" stroke="#263238" stroke-linecap="round" stroke-linejoin="round"/>
</g>
</g>
</svg>
