<svg width="150" height="150" viewBox="0 0 150 150" fill="none" xmlns="http://www.w3.org/2000/svg">
<g id="Psychologist-bro 1">
<g id="freepik--background-simple--inject-2">
<path id="Vector" d="M118.851 23.3549C118.851 23.3549 103.692 10.9739 83.976 16.4549C64.26 21.9359 56.004 38.9369 44.7 50.6159C38.778 56.7299 30.03 58.9829 22.995 63.6899C0.494968 78.7409 3.83097 112.59 21.177 125.34C36.195 136.392 54.96 137.547 79.377 129.396C103.794 121.245 121.266 116.349 136.407 92.9999C151.548 69.6509 137.526 40.1579 118.851 23.3549Z" fill="#92E3A9"/>
<path id="Vector_2" opacity="0.7" d="M118.851 23.3549C118.851 23.3549 103.692 10.9739 83.976 16.4549C64.26 21.9359 56.004 38.9369 44.7 50.6159C38.778 56.7299 30.03 58.9829 22.995 63.6899C0.494968 78.7409 3.83097 112.59 21.177 125.34C36.195 136.392 54.96 137.547 79.377 129.396C103.794 121.245 121.266 116.349 136.407 92.9999C151.548 69.6509 137.526 40.1579 118.851 23.3549Z" fill="white"/>
</g>
<g id="freepik--Floor--inject-2">
<path id="Vector_3" d="M13.71 131.1H144.3" stroke="#263238" stroke-linecap="round" stroke-linejoin="round"/>
<path id="Vector_4" d="M9 131.1H11.616" stroke="#263238" stroke-linecap="round" stroke-linejoin="round"/>
</g>
<g id="freepik--Pictures--inject-2">
<path id="Vector_5" d="M41.676 27.8999H16.062V69.2999H41.676V27.8999Z" stroke="#263238" stroke-miterlimit="10"/>
<path id="Vector_6" d="M38.505 33.0269H19.233V64.1759H38.505V33.0269Z" stroke="#263238" stroke-miterlimit="10"/>
<path id="Vector_7" d="M135.6 27.8999H109.986V69.2999H135.6V27.8999Z" stroke="#263238" stroke-miterlimit="10"/>
<path id="Vector_8" d="M132.429 33.0269H113.157V64.1759H132.429V33.0269Z" stroke="#263238" stroke-miterlimit="10"/>
</g>
<g id="freepik--Bookshelf--inject-2">
<path id="Vector_9" d="M52.2839 48.696H49.8419V60.822H52.2839V48.696Z" fill="#263238"/>
<g id="Clip path group">
<mask id="mask0_339_4547" style="mask-type:luminance" maskUnits="userSpaceOnUse" x="49" y="48" width="4" height="13">
<g id="freepik--clip-path--inject-2">
<path id="Vector_10" d="M52.2839 48.696H49.8419V60.822H52.2839V48.696Z" fill="white"/>
</g>
</mask>
<g mask="url(#mask0_339_4547)">
<g id="Group">
<path id="Vector_11" d="M52.6169 50.1179H49.7129V50.6519H52.6169V50.1179Z" fill="#92E3A9"/>
<path id="Vector_12" d="M52.6169 58.9529H49.7129V59.4869H52.6169V58.9529Z" fill="#92E3A9"/>
</g>
</g>
</g>
<path id="Vector_13" d="M55.011 48.696H52.569V60.822H55.011V48.696Z" fill="#263238"/>
<g id="Clip path group_2">
<mask id="mask1_339_4547" style="mask-type:luminance" maskUnits="userSpaceOnUse" x="52" y="48" width="4" height="13">
<g id="freepik--clip-path-2--inject-2">
<path id="Vector_14" d="M55.011 48.696H52.569V60.822H55.011V48.696Z" fill="white"/>
</g>
</mask>
<g mask="url(#mask1_339_4547)">
<g id="Group_2">
<path id="Vector_15" d="M55.3439 50.1179H52.4399V50.6519H55.3439V50.1179Z" fill="#92E3A9"/>
<path id="Vector_16" d="M55.3439 58.9529H52.4399V59.4869H55.3439V58.9529Z" fill="#92E3A9"/>
</g>
</g>
</g>
<path id="Vector_17" d="M99.759 60.849V58.407H87.633V60.849H99.759Z" fill="#263238"/>
<g id="Clip path group_3">
<mask id="mask2_339_4547" style="mask-type:luminance" maskUnits="userSpaceOnUse" x="87" y="58" width="13" height="3">
<g id="freepik--clip-path-3--inject-2">
<path id="Vector_18" d="M99.7589 60.849V58.407H87.6329V60.849H99.7589Z" fill="white"/>
</g>
</mask>
<g mask="url(#mask2_339_4547)">
<g id="Group_3">
<path id="Vector_19" d="M98.334 61.1789V58.2749H97.8V61.1789H98.334Z" fill="#92E3A9"/>
<path id="Vector_20" d="M89.499 61.1789V58.2749H88.965V61.1789H89.499Z" fill="#92E3A9"/>
</g>
</g>
</g>
<path id="Vector_21" d="M99.756 58.3741V55.9321H87.63V58.3741H99.756Z" fill="#263238"/>
<g id="Clip path group_4">
<mask id="mask3_339_4547" style="mask-type:luminance" maskUnits="userSpaceOnUse" x="87" y="55" width="13" height="4">
<g id="freepik--clip-path-4--inject-2">
<path id="Vector_22" d="M99.756 58.3741V55.9321H87.63V58.3741H99.756Z" fill="white"/>
</g>
</mask>
<g mask="url(#mask3_339_4547)">
<g id="Group_4">
<path id="Vector_23" d="M98.334 58.7041V55.8H97.8V58.7041H98.334Z" fill="#92E3A9"/>
<path id="Vector_24" d="M89.502 58.704V55.8H88.968V58.704H89.502Z" fill="#92E3A9"/>
</g>
</g>
</g>
<path id="Vector_25" d="M57.2687 48.5961L54.9312 49.3027L58.44 60.91L60.7775 60.2033L57.2687 48.5961Z" fill="#263238"/>
<g id="Clip path group_5">
<mask id="mask4_339_4547" style="mask-type:luminance" maskUnits="userSpaceOnUse" x="54" y="48" width="7" height="13">
<g id="freepik--clip-path-5--inject-2">
<path id="Vector_26" d="M57.2687 48.5959L54.9312 49.3025L58.44 60.9097L60.7775 60.2031L57.2687 48.5959Z" fill="white"/>
</g>
</mask>
<g mask="url(#mask4_339_4547)">
<g id="Group_5">
<path id="Vector_27" d="M58.0002 49.8643L55.2205 50.7046L55.375 51.2157L58.1547 50.3754L58.0002 49.8643Z" fill="#92E3A9"/>
<path id="Vector_28" d="M60.5542 58.3186L57.7744 59.1589L57.9289 59.6701L60.7087 58.8298L60.5542 58.3186Z" fill="#92E3A9"/>
</g>
</g>
</g>
<path id="Vector_29" d="M75.057 56.9371C75.057 56.9371 73.158 54.6841 73.515 53.7961C73.872 52.9081 74.415 53.9731 74.415 53.9731C74.415 53.9731 72.816 50.3731 74.298 50.1781C75.78 49.9831 76.491 52.9651 76.491 52.9651C76.491 52.9651 77.025 49.8811 77.973 50.8891C78.921 51.8971 77.796 54.5071 77.796 54.5071C77.796 54.5071 79.752 52.9651 79.278 54.2701C78.804 55.5751 76.845 57.1141 76.845 57.1141L75.057 56.9371Z" fill="#92E3A9"/>
<path id="Vector_30" d="M75.3 57C75.3 57 72.75 54.924 73.758 54.45C74.766 53.976 75.357 54.984 75.357 54.984C75.357 54.984 74.757 51.366 75.891 51.366C77.025 51.366 76.791 54.213 76.791 54.213C76.791 54.213 77.442 51.96 78.036 52.791C78.63 53.622 77.205 57.237 77.205 57.237" stroke="#263238" stroke-miterlimit="10"/>
<path id="Vector_31" d="M78.198 56.4031H73.752L74.196 60.7321H77.754L78.198 56.4031Z" fill="#263238"/>
<path id="Vector_32" d="M60.4589 39.2219H55.8359V44.2379H60.4589V39.2219Z" fill="#92E3A9"/>
<path id="Vector_33" d="M59.286 34.833H57.012V39.849H59.286V34.833Z" fill="#92E3A9"/>
<path id="Vector_34" d="M52.2839 32.196H49.8419V44.322H52.2839V32.196Z" fill="#263238"/>
<g id="Clip path group_6">
<mask id="mask5_339_4547" style="mask-type:luminance" maskUnits="userSpaceOnUse" x="49" y="32" width="4" height="13">
<g id="freepik--clip-path-6--inject-2">
<path id="Vector_35" d="M52.2839 32.196H49.8419V44.322H52.2839V32.196Z" fill="white"/>
</g>
</mask>
<g mask="url(#mask5_339_4547)">
<g id="Group_6">
<path id="Vector_36" d="M52.6169 33.6182H49.7129V34.1522H52.6169V33.6182Z" fill="#92E3A9"/>
<path id="Vector_37" d="M52.6169 42.4531H49.7129V42.9871H52.6169V42.4531Z" fill="#92E3A9"/>
</g>
</g>
</g>
<path id="Vector_38" d="M102.394 32.2748L99.9896 31.8457L97.8589 43.783L100.263 44.2121L102.394 32.2748Z" fill="#263238"/>
<g id="Clip path group_7">
<mask id="mask6_339_4547" style="mask-type:luminance" maskUnits="userSpaceOnUse" x="97" y="31" width="6" height="14">
<g id="freepik--clip-path-7--inject-2">
<path id="Vector_39" d="M102.394 32.2748L99.9896 31.8457L97.859 43.783L100.263 44.2121L102.394 32.2748Z" fill="white"/>
</g>
</mask>
<g mask="url(#mask6_339_4547)">
<g id="Group_7">
<path id="Vector_40" d="M102.474 33.7349L99.6155 33.2246L99.5217 33.7503L102.381 34.2606L102.474 33.7349Z" fill="#92E3A9"/>
<path id="Vector_41" d="M100.919 42.4314L98.0605 41.9211L97.9667 42.4468L100.826 42.9571L100.919 42.4314Z" fill="#92E3A9"/>
</g>
</g>
</g>
<path id="Vector_42" d="M55.011 32.196H52.569V44.322H55.011V32.196Z" fill="#263238"/>
<g id="Clip path group_8">
<mask id="mask7_339_4547" style="mask-type:luminance" maskUnits="userSpaceOnUse" x="52" y="32" width="4" height="13">
<g id="freepik--clip-path-8--inject-2">
<path id="Vector_43" d="M55.011 32.196H52.569V44.322H55.011V32.196Z" fill="white"/>
</g>
</mask>
<g mask="url(#mask7_339_4547)">
<g id="Group_8">
<path id="Vector_44" d="M55.3439 33.6182H52.4399V34.1522H55.3439V33.6182Z" fill="#92E3A9"/>
<path id="Vector_45" d="M55.3439 42.4531H52.4399V42.9871H55.3439V42.4531Z" fill="#92E3A9"/>
</g>
</g>
</g>
<path id="Vector_46" d="M70.0859 32.196H67.6439V44.322H70.0859V32.196Z" fill="#263238"/>
<g id="Clip path group_9">
<mask id="mask8_339_4547" style="mask-type:luminance" maskUnits="userSpaceOnUse" x="67" y="32" width="4" height="13">
<g id="freepik--clip-path-9--inject-2">
<path id="Vector_47" d="M70.0859 32.196H67.6439V44.322H70.0859V32.196Z" fill="white"/>
</g>
</mask>
<g mask="url(#mask8_339_4547)">
<g id="Group_9">
<path id="Vector_48" d="M70.416 33.6182H67.512V34.1522H70.416V33.6182Z" fill="#92E3A9"/>
<path id="Vector_49" d="M70.416 42.4531H67.512V42.9871H70.416V42.4531Z" fill="#92E3A9"/>
</g>
</g>
</g>
<path id="Vector_50" d="M72.552 32.196H70.11V44.322H72.552V32.196Z" fill="#6B6B6B"/>
<g id="Clip path group_10">
<mask id="mask9_339_4547" style="mask-type:luminance" maskUnits="userSpaceOnUse" x="70" y="32" width="3" height="13">
<g id="freepik--clip-path-10--inject-2">
<path id="Vector_51" d="M72.552 32.196H70.11V44.322H72.552V32.196Z" fill="white"/>
</g>
</mask>
<g mask="url(#mask9_339_4547)">
<g id="Group_10">
<path id="Vector_52" d="M72.882 33.6182H69.978V34.1522H72.882V33.6182Z" fill="#92E3A9"/>
<path id="Vector_53" d="M72.882 42.4531H69.978V42.9871H72.882V42.4531Z" fill="#92E3A9"/>
</g>
</g>
</g>
<path id="Vector_54" d="M75.0179 32.196H72.5759V44.322H75.0179V32.196Z" fill="#263238"/>
<g id="Clip path group_11">
<mask id="mask10_339_4547" style="mask-type:luminance" maskUnits="userSpaceOnUse" x="72" y="32" width="4" height="13">
<g id="freepik--clip-path-11--inject-2">
<path id="Vector_55" d="M75.0179 32.196H72.5759V44.322H75.0179V32.196Z" fill="white"/>
</g>
</mask>
<g mask="url(#mask10_339_4547)">
<g id="Group_11">
<path id="Vector_56" d="M75.348 33.6182H72.444V34.1522H75.348V33.6182Z" fill="#92E3A9"/>
<path id="Vector_57" d="M75.348 42.4531H72.444V42.9871H75.348V42.4531Z" fill="#92E3A9"/>
</g>
</g>
</g>
<path id="Vector_58" d="M77.484 32.196H75.042V44.322H77.484V32.196Z" fill="#6B6B6B"/>
<g id="Clip path group_12">
<mask id="mask11_339_4547" style="mask-type:luminance" maskUnits="userSpaceOnUse" x="75" y="32" width="3" height="13">
<g id="freepik--clip-path-12--inject-2">
<path id="Vector_59" d="M77.484 32.196H75.042V44.322H77.484V32.196Z" fill="white"/>
</g>
</mask>
<g mask="url(#mask11_339_4547)">
<g id="Group_12">
<path id="Vector_60" d="M77.814 33.6182H74.91V34.1522H77.814V33.6182Z" fill="#92E3A9"/>
<path id="Vector_61" d="M77.814 42.4531H74.91V42.9871H77.814V42.4531Z" fill="#92E3A9"/>
</g>
</g>
</g>
<path id="Vector_62" d="M79.9499 32.196H77.5079V44.322H79.9499V32.196Z" fill="#263238"/>
<g id="Clip path group_13">
<mask id="mask12_339_4547" style="mask-type:luminance" maskUnits="userSpaceOnUse" x="77" y="32" width="3" height="13">
<g id="freepik--clip-path-13--inject-2">
<path id="Vector_63" d="M79.9499 32.196H77.5079V44.322H79.9499V32.196Z" fill="white"/>
</g>
</mask>
<g mask="url(#mask12_339_4547)">
<g id="Group_13">
<path id="Vector_64" d="M80.28 33.6182H77.376V34.1522H80.28V33.6182Z" fill="#92E3A9"/>
<path id="Vector_65" d="M80.28 42.4531H77.376V42.9871H80.28V42.4531Z" fill="#92E3A9"/>
</g>
</g>
</g>
<path id="Vector_66" d="M97.8149 44.3461V41.9041H85.6889V44.3461H97.8149Z" fill="#263238"/>
<g id="Clip path group_14">
<mask id="mask13_339_4547" style="mask-type:luminance" maskUnits="userSpaceOnUse" x="85" y="41" width="13" height="4">
<g id="freepik--clip-path-14--inject-2">
<path id="Vector_67" d="M97.8149 44.3461V41.9041H85.6889V44.3461H97.8149Z" fill="white"/>
</g>
</mask>
<g mask="url(#mask13_339_4547)">
<g id="Group_14">
<path id="Vector_68" d="M96.3899 44.6791V41.7751H95.8559V44.6791H96.3899Z" fill="#92E3A9"/>
<path id="Vector_69" d="M87.558 44.6791V41.7751H87.024V44.6791H87.558Z" fill="#92E3A9"/>
</g>
</g>
</g>
<path id="Vector_70" d="M47.949 27.801V62.154H103.8V27.801H47.949ZM84.231 29.1V44.301H67.5V29.1H84.231ZM49.374 29.1H66.09V44.301H49.374V29.1ZM49.374 60.858V45.654H66.09V60.858H49.374ZM67.512 60.858V45.654H84.231V60.858H67.512ZM102.372 60.858H85.653V45.654H102.372V60.858ZM85.653 44.301V29.1H102.372V44.301H85.653Z" stroke="#263238" stroke-linecap="round" stroke-linejoin="round"/>
</g>
<g id="freepik--Table--inject-2">
<path id="Vector_71" d="M62.115 110.484H57.183V131.1H62.115V110.484Z" fill="white" stroke="#263238" stroke-linecap="round" stroke-linejoin="round"/>
<path id="Vector_72" d="M94.56 110.484H89.628V131.1H94.56V110.484Z" fill="white" stroke="#263238" stroke-linecap="round" stroke-linejoin="round"/>
<path id="Vector_73" d="M94.563 108.303H57.183V111.531H94.563V108.303Z" fill="white" stroke="#263238" stroke-linecap="round" stroke-linejoin="round"/>
<path id="Vector_74" d="M73.2749 104.439C72.8154 103.711 72.3146 103.01 71.7749 102.339C71.0249 101.439 68.9249 99.7141 68.9249 99.7141L71.6249 101.139C71.6249 101.139 71.1749 99.8641 70.7249 98.8141C70.2749 97.7641 69.5249 95.2141 69.5249 95.2141C69.5249 95.2141 71.3249 98.2891 71.7749 98.8141C72.2249 99.3391 72.9749 100.464 72.9749 100.464C72.9749 100.464 73.0499 97.6141 73.4249 96.7141C73.7999 95.8141 75.3749 93.7141 75.3749 93.7141C75.3749 93.7141 74.8499 97.0141 74.8499 97.3891C74.8499 97.7641 75.0749 100.089 75.0749 100.089L75.9749 95.3641L76.0499 98.6641L76.7249 95.1391C76.7249 95.1391 77.2499 97.8391 77.3999 98.6641C77.4968 99.2845 77.5469 99.9112 77.5499 100.539L78.2249 98.0641L79.8749 95.2141C79.8749 95.2141 79.8749 98.4391 79.7999 98.7391C79.7249 99.0391 79.6499 100.989 79.6499 100.989L80.6249 99.9391L79.8749 102.264L80.8499 102.414L81.2999 102.789C81.2999 102.789 79.4999 103.326 78.7079 103.545C77.9159 103.764 76.4249 104.664 76.4249 104.664L73.2749 104.439Z" fill="#92E3A9"/>
<path id="Vector_75" d="M73.8 104.439C73.8 104.439 72.525 101.664 71.25 100.989C69.975 100.314 69.375 100.014 69.375 100.014C69.375 100.014 71.25 100.089 72.225 100.764C72.8473 101.22 73.3598 101.81 73.725 102.489C73.5268 101.552 73.4262 100.597 73.425 99.6392C73.425 98.0642 73.8 94.6892 73.8 94.6892C73.8 94.6892 73.725 98.8892 74.1 100.314C74.3661 101.269 74.7175 102.198 75.15 103.089C75.15 103.089 75.3 101.739 75.525 100.389C75.8058 99.0716 76.1563 97.7697 76.575 96.4892L75.975 101.889C76.3774 101.217 76.7284 100.515 77.025 99.7892C77.475 98.6642 79.725 97.1642 79.725 97.1642C79.725 97.1642 78 99.3392 77.625 100.539C77.25 101.739 76.875 102.789 76.875 102.789C77.2901 102.146 77.7952 101.565 78.375 101.064C79.275 100.314 80.925 99.8642 80.925 99.8642C80.925 99.8642 78.675 101.514 78.45 102.039C78.225 102.564 77.85 103.539 77.85 103.539C77.85 103.539 79.95 101.739 81.75 101.214C81.75 101.214 78.975 103.164 78.225 104.514L73.8 104.439Z" stroke="#263238" stroke-linecap="round" stroke-linejoin="round"/>
<path id="Vector_76" d="M72.2339 103.845C72.1104 104.284 72.0449 104.737 72.0389 105.192C72.0389 107.94 73.6769 108.168 75.6959 108.168C77.7149 108.168 79.3529 108.015 79.3529 105.192C79.347 104.737 79.2814 104.284 79.1579 103.845H72.2339Z" fill="#263238" stroke="#263238" stroke-linecap="round" stroke-linejoin="round"/>
<path id="Vector_77" d="M72.0389 105.192C72.0389 105.252 72.0389 105.306 72.0389 105.366H79.3409C79.3409 105.306 79.3409 105.252 79.3409 105.192C79.3409 105.069 79.3409 104.943 79.3229 104.814H72.0569C72.0449 104.938 72.0389 105.064 72.0389 105.192Z" fill="#92E3A9"/>
<path id="Vector_78" d="M79.287 106.059C79.287 105.975 79.311 105.885 79.32 105.792H72.072C72.072 105.885 72.093 105.975 72.108 106.059H79.287Z" fill="#92E3A9"/>
</g>
<g id="freepik--character-2--inject-2">
<path id="Vector_79" d="M135.351 110.343L137.04 130.968H136.449L133.407 110.514L135.351 110.343Z" fill="white" stroke="#263238" stroke-linecap="round" stroke-linejoin="round"/>
<path id="Vector_80" d="M122.676 110.343L124.365 130.968H123.774L120.732 110.514L122.676 110.343Z" fill="white" stroke="#263238" stroke-linecap="round" stroke-linejoin="round"/>
<path id="Vector_81" d="M121.155 110.343L119.463 130.968H120.057L123.099 110.514L121.155 110.343Z" fill="white" stroke="#263238" stroke-linecap="round" stroke-linejoin="round"/>
<path id="Vector_82" d="M106.788 110.343L105.099 130.968H105.69L108.732 110.514L106.788 110.343Z" fill="white" stroke="#263238" stroke-linecap="round" stroke-linejoin="round"/>
<path id="Vector_83" d="M122.247 77.418H141C141 77.418 143.25 78.042 142.251 80.67C141.252 83.298 135.63 111.06 135.63 111.06H105.864L103.989 93.801C103.989 93.801 103.611 91.299 105.363 90.924C107.115 90.549 114.243 90.798 115.62 90.048C116.997 89.298 120.096 78.417 120.096 78.417C120.096 78.417 120.369 77.163 122.247 77.418Z" fill="#92E3A9" stroke="#263238" stroke-linecap="round" stroke-linejoin="round"/>
<path id="Vector_84" d="M120.819 107.13H105.855" stroke="#263238" stroke-linecap="round" stroke-linejoin="round"/>
<path id="Vector_85" d="M131.904 55.719C130.659 54.7736 129.182 54.18 127.629 54C125.214 53.793 121.698 56.7 121.629 58.275C121.56 59.85 120.666 59.586 120.39 60.483C120.114 61.38 121.215 61.239 121.215 61.86C121.215 62.481 119.769 63.24 119.907 63.792C120.045 64.344 121.56 64.896 121.56 65.238C121.56 65.58 120.732 66.204 121.422 66.756C122.112 67.308 122.802 66.894 123.078 67.584C123.354 68.274 123.978 68.964 124.182 68.484C124.386 68.004 123.699 65.184 123.975 63.174C124.251 61.164 124.803 60.279 126.939 59.451C129.075 58.623 130.593 58.002 131.49 57.174C132.387 56.346 131.904 55.719 131.904 55.719Z" fill="#263238"/>
<g id="Clip path group_15">
<mask id="mask14_339_4547" style="mask-type:luminance" maskUnits="userSpaceOnUse" x="119" y="53" width="14" height="16">
<g id="freepik--clip-path-15--inject-2">
<path id="Vector_86" d="M131.904 55.719C130.659 54.7736 129.182 54.18 127.629 54C125.214 53.793 121.698 56.7 121.629 58.275C121.56 59.85 120.666 59.586 120.39 60.483C120.114 61.38 121.215 61.239 121.215 61.86C121.215 62.481 119.769 63.24 119.907 63.792C120.045 64.344 121.56 64.896 121.56 65.238C121.56 65.58 120.732 66.204 121.422 66.756C122.112 67.308 122.802 66.894 123.078 67.584C123.354 68.274 123.978 68.964 124.182 68.484C124.386 68.004 123.699 65.184 123.975 63.174C124.251 61.164 124.803 60.279 126.939 59.451C129.075 58.623 130.593 58.002 131.49 57.174C132.387 56.346 131.904 55.719 131.904 55.719Z" fill="white"/>
</g>
</mask>
<g mask="url(#mask14_339_4547)">
<g id="Group_15">
<path id="Vector_87" d="M128.949 55.986C128.949 55.986 127.149 54.696 125.853 55.812C124.557 56.928 124.653 58.305 123.702 58.737C122.751 59.169 121.38 59.424 121.902 60.627C122.424 61.83 123.366 63.627 122.334 63.981C121.302 64.335 120.534 65.271 120.87 65.616" stroke="#666666" stroke-linecap="round" stroke-linejoin="round"/>
</g>
</g>
</g>
<path id="Vector_88" d="M131.904 55.719C130.659 54.7736 129.182 54.18 127.629 54C125.214 53.793 121.698 56.7 121.629 58.275C121.56 59.85 120.666 59.586 120.39 60.483C120.114 61.38 121.215 61.239 121.215 61.86C121.215 62.481 119.769 63.24 119.907 63.792C120.045 64.344 121.56 64.896 121.56 65.238C121.56 65.58 120.732 66.204 121.422 66.756C122.112 67.308 122.802 66.894 123.078 67.584C123.354 68.274 123.978 68.964 124.182 68.484C124.386 68.004 123.699 65.184 123.975 63.174C124.251 61.164 124.803 60.279 126.939 59.451C129.075 58.623 130.593 58.002 131.49 57.174C132.387 56.346 131.904 55.719 131.904 55.719Z" stroke="#263238" stroke-linecap="round" stroke-linejoin="round"/>
<path id="Vector_89" d="M127.5 57.165C127.5 57.165 124.053 58.752 123.57 60.063C123.087 61.374 123.432 63.717 123.294 64.062C123.156 64.407 122.052 65.028 122.19 65.301C122.41 65.6058 122.664 65.8838 122.949 66.129C122.949 66.129 123.087 69.714 123.984 69.99C124.881 70.266 127.284 69.51 127.284 69.51L128.733 74.817L134.661 73.164L132.456 68.13C132.456 68.13 135.156 64.614 135.42 62.268C135.684 59.922 133.353 56.751 131.628 56.406C129.903 56.061 127.767 57.027 127.767 57.027L127.5 57.165Z" fill="#B2B2B2" stroke="#263238" stroke-linecap="round" stroke-linejoin="round"/>
<path id="Vector_90" d="M124.56 64.266C124.731 64.266 124.869 63.9732 124.869 63.612C124.869 63.2508 124.731 62.958 124.56 62.958C124.389 62.958 124.251 63.2508 124.251 63.612C124.251 63.9732 124.389 64.266 124.56 64.266Z" fill="#263238"/>
<path id="Vector_91" d="M124.113 61.7161C124.113 61.7161 124.872 60.816 125.697 61.854" stroke="#263238" stroke-linecap="round" stroke-linejoin="round"/>
<path id="Vector_92" d="M120.444 91.0229C120.444 91.0229 114.492 92.3099 113.571 92.4329C112.65 92.5559 111.669 92.1899 111.423 92.1329C111.177 92.0759 109.215 91.0889 108.969 91.0889C108.723 91.0889 107.988 91.704 107.19 91.887C106.392 92.07 105.351 91.7039 105.165 92.0729C104.979 92.4419 105.84 92.5619 106.269 92.6249C106.698 92.6879 107.682 92.685 107.682 92.685C107.682 92.685 106.086 93.6059 105.84 93.7289C105.594 93.8519 103.938 93.36 104.061 93.912C104.184 94.464 106.638 94.7729 107.682 94.8929C108.726 95.0129 111.423 94.0979 111.423 94.0979C111.423 94.0979 114.981 94.8929 116.523 94.8329C118.065 94.7729 120.141 94.6499 120.141 94.6499L120.444 91.0229Z" fill="#B2B2B2" stroke="#263238" stroke-linecap="round" stroke-linejoin="round"/>
<g id="Vector_93">
<path d="M106.761 94.704C106.761 94.704 104.307 93.723 104.799 93.723C105.291 93.723 106.515 94.275 106.515 94.275C106.515 94.275 105.594 93.417 105.915 93.417C106.236 93.417 108 94.2 108 94.2C108 94.2 106.833 93.525 107.508 93.648C108.183 93.771 109.608 94.2 109.608 94.2" fill="#B2B2B2"/>
<path d="M106.761 94.704C106.761 94.704 104.307 93.723 104.799 93.723C105.291 93.723 106.515 94.275 106.515 94.275C106.515 94.275 105.594 93.417 105.915 93.417C106.236 93.417 108 94.2 108 94.2C108 94.2 106.833 93.525 107.508 93.648C108.183 93.771 109.608 94.2 109.608 94.2" stroke="#263238" stroke-linecap="round" stroke-linejoin="round"/>
</g>
<path id="Vector_94" d="M100.998 94.377C100.998 94.377 96.798 94.377 95.868 96.735C94.938 99.093 102.468 126.153 102.468 126.153C102.468 126.153 99.801 129.126 97.953 129.846C96.105 130.566 95.799 130.77 96.516 130.974C97.233 131.178 100.62 131.274 102.366 130.77C104.112 130.266 106.47 128.922 107.394 128.511C108.318 128.1 106.983 127.281 106.368 125.742C105.753 124.203 103.455 114.795 103.353 111.819C103.251 108.843 102.222 100.635 102.222 100.635C102.222 100.635 105.507 102.996 111.663 104.124C117.819 105.252 111.87 97.659 109.098 95.916C106.326 94.173 100.998 94.377 100.998 94.377Z" fill="#263238" stroke="#263238" stroke-linecap="round" stroke-linejoin="round"/>
<path id="Vector_95" d="M103.5 127.587L102.3 126.33C101.7 126.972 99.525 129.231 97.947 129.846C96.099 130.563 95.793 130.77 96.51 130.974C97.227 131.178 100.614 131.274 102.36 130.77C104.106 130.266 106.464 128.922 107.388 128.511C108.255 128.127 107.133 127.38 106.488 126.018L103.5 127.587Z" fill="white" stroke="#263238" stroke-linecap="round" stroke-linejoin="round"/>
<path id="Vector_96" d="M96.423 130.5C96.036 130.725 96.102 130.845 96.522 130.965C97.242 131.172 100.626 131.265 102.372 130.761C104.118 130.257 106.476 128.913 107.4 128.502C107.823 128.313 107.769 128.037 107.529 127.647C105.486 128.607 101.19 130.593 100.443 130.692C99.534 130.821 96.855 130.554 96.423 130.5Z" fill="#263238" stroke="#263238" stroke-linecap="round" stroke-linejoin="round"/>
<path id="Vector_97" d="M134.247 72.3359L127.284 74.3339C127.284 74.3339 126.663 76.8869 124.803 78.2669C122.943 79.6469 120.603 80.9669 120.045 83.2979C119.487 85.6289 119.631 87.8489 119.769 89.9189C119.907 91.9889 118.251 96.3299 118.251 96.3299C118.251 96.3299 107.7 94.0559 104.184 94.1999C100.668 94.3439 98.118 93.8549 97.566 97.3709C97.014 100.887 99.366 125.205 99.366 125.205C99.366 125.205 95.781 128.505 94.194 129.483C92.607 130.461 91.299 131.067 92.196 131.412C93.093 131.757 97.575 131.274 99.228 130.998C100.881 130.722 103.779 130.584 104.193 129.618C104.607 128.652 103.158 124.173 103.227 123.759C103.296 123.345 103.428 113.643 104.049 110.127C104.462 107.569 104.738 104.992 104.877 102.405C104.877 102.405 120.255 106.68 124.047 106.68C127.839 106.68 130.32 106.128 131.424 99.7799C132.528 93.4319 131.631 92.5379 132.942 89.9879C134.253 87.4379 135.492 84.2639 135.642 80.3339C135.792 76.4039 134.247 72.3359 134.247 72.3359Z" fill="white" stroke="#263238" stroke-linecap="round" stroke-linejoin="round"/>
<path id="Vector_98" d="M122.136 100.02C119.76 98.0969 118.755 96.8489 118.344 96.0779C118.287 96.2399 118.251 96.3299 118.251 96.3299C118.251 96.3299 107.7 94.0559 104.184 94.1999C100.668 94.3439 98.118 93.8549 97.566 97.3709C97.014 100.887 99.366 125.205 99.366 125.205C99.366 125.205 95.781 128.505 94.194 129.483C92.607 130.461 91.299 131.067 92.196 131.412C93.093 131.757 97.575 131.274 99.228 130.998C100.881 130.722 103.779 130.584 104.193 129.618C104.607 128.652 103.158 124.173 103.227 123.759C103.296 123.345 103.428 113.643 104.049 110.127C104.462 107.569 104.738 104.992 104.877 102.405C104.877 102.405 120.255 106.68 124.047 106.68C126.825 106.68 128.901 106.38 130.245 103.725C127.818 103.149 124.665 102.066 122.136 100.02Z" fill="#263238" stroke="#263238" stroke-linecap="round" stroke-linejoin="round"/>
<path id="Vector_99" d="M99.126 125.418C98.301 126.168 95.526 128.658 94.191 129.477C92.607 130.44 91.296 131.061 92.193 131.406C93.09 131.751 97.572 131.268 99.225 130.992C100.878 130.716 103.776 130.578 104.19 129.612C104.436 129.039 104.022 127.212 103.662 125.748L100.218 126.87L99.126 125.418Z" fill="white" stroke="#263238" stroke-linecap="round" stroke-linejoin="round"/>
<path id="Vector_100" d="M92.193 131.4C93.093 131.745 97.572 131.262 99.225 130.986C100.878 130.71 103.776 130.572 104.19 129.606C104.208 129.562 104.222 129.517 104.232 129.471C100.845 130.173 94.995 130.671 92.007 130.899C91.833 131.1 91.86 131.28 92.193 131.4Z" fill="#263238" stroke="#263238" stroke-linecap="round" stroke-linejoin="round"/>
<path id="Vector_101" d="M127.284 74.3339C127.284 74.3339 126.663 76.8869 124.803 78.2669C122.943 79.6469 120.603 80.9669 120.045 83.2979C119.487 85.6289 119.631 87.8489 119.769 89.9189C119.907 91.9889 118.251 96.3299 118.251 96.3299C118.251 96.3299 116.979 96.0569 115.17 95.7029C115.596 98.3789 117.537 106.026 125.787 106.608C128.604 106.341 130.497 105.093 131.421 99.7799C132.525 93.4349 131.628 92.5379 132.939 89.9879C134.25 87.4379 135.489 84.2639 135.639 80.3339C135.789 76.4039 134.259 72.3359 134.259 72.3359L127.284 74.3339Z" fill="white" stroke="#263238" stroke-linecap="round" stroke-linejoin="round"/>
<path id="Vector_102" d="M126.663 76.128L134.661 73.989" stroke="#263238" stroke-linecap="round" stroke-linejoin="round"/>
<g id="Vector_103">
<path d="M109.971 84.9509C109.971 84.9509 109.644 82.8719 109.263 83.1689C108.882 83.4659 109.35 85.3109 109.35 85.3109C109.564 85.3856 109.787 85.429 110.013 85.4399" fill="#B2B2B2"/>
<path d="M109.971 84.9509C109.971 84.9509 109.644 82.8719 109.263 83.1689C108.882 83.4659 109.35 85.3109 109.35 85.3109C109.564 85.3856 109.787 85.429 110.013 85.4399" stroke="#263238" stroke-linecap="round" stroke-linejoin="round"/>
</g>
<g id="Vector_104">
<path d="M134.316 77.6459C134.316 77.6459 133.902 75.6449 131.352 75.9899C128.802 76.3349 127.905 77.5769 127.215 80.9549C126.525 84.3329 125.49 89.8499 125.49 89.8499C125.49 89.8499 116.664 84.3329 115.356 83.4359C114.048 82.5389 112.389 82.4039 111.633 82.9529C110.877 83.5019 108.804 85.5059 108.804 85.5059C108.804 85.5059 107.769 83.4359 107.631 84.1259C107.493 84.8159 107.976 86.6099 109.011 87.0239C110.046 87.4379 111.903 86.0069 112.11 85.9379C112.317 85.8689 110.868 87.3869 111.351 87.4559C111.834 87.5249 112.251 86.9039 113.151 86.3519C113.747 85.9651 114.283 85.4942 114.744 84.9539C114.744 84.9539 119.64 89.6429 121.155 90.8159C122.67 91.9889 126.801 95.0999 127.629 95.0999C128.457 95.0999 129.558 93.7889 130.11 92.6159C130.662 91.4429 134.04 83.9159 134.523 80.2739" fill="#B2B2B2"/>
<path d="M134.316 77.6459C134.316 77.6459 133.902 75.6449 131.352 75.9899C128.802 76.3349 127.905 77.5769 127.215 80.9549C126.525 84.3329 125.49 89.8499 125.49 89.8499C125.49 89.8499 116.664 84.3329 115.356 83.4359C114.048 82.5389 112.389 82.4039 111.633 82.9529C110.877 83.5019 108.804 85.5059 108.804 85.5059C108.804 85.5059 107.769 83.4359 107.631 84.1259C107.493 84.8159 107.976 86.6099 109.011 87.0239C110.046 87.4379 111.903 86.0069 112.11 85.9379C112.317 85.8689 110.868 87.3869 111.351 87.4559C111.834 87.5249 112.251 86.9039 113.151 86.3519C113.747 85.9651 114.283 85.4942 114.744 84.9539C114.744 84.9539 119.64 89.6429 121.155 90.8159C122.67 91.9889 126.801 95.0999 127.629 95.0999C128.457 95.0999 129.558 93.7889 130.11 92.6159C130.662 91.4429 134.04 83.9159 134.523 80.2739" stroke="#263238" stroke-linecap="round" stroke-linejoin="round"/>
</g>
<g id="Vector_105">
<path d="M112.11 85.9381L112.41 85.3801C112.281 85.1284 112.171 84.8677 112.08 84.6001C112.066 84.482 112.079 84.3623 112.12 84.2504C112.16 84.1385 112.225 84.0374 112.311 83.9551" fill="white"/>
<path d="M112.11 85.9381L112.41 85.3801C112.281 85.1284 112.171 84.8677 112.08 84.6001C112.066 84.482 112.079 84.3623 112.12 84.2504C112.16 84.1385 112.225 84.0374 112.311 83.9551" stroke="#263238" stroke-linecap="round" stroke-linejoin="round"/>
</g>
<g id="Vector_106">
<path d="M109.281 86.0489C109.281 86.0489 107.04 83.9009 106.86 84.5849C106.68 85.2689 108.873 87.0239 108.873 87.0239C109.051 87.0613 109.237 87.0378 109.4 86.9573C109.563 86.8768 109.694 86.7439 109.773 86.5799" fill="#B2B2B2"/>
<path d="M109.281 86.0489C109.281 86.0489 107.04 83.9009 106.86 84.5849C106.68 85.2689 108.873 87.0239 108.873 87.0239C109.051 87.0613 109.237 87.0378 109.4 86.9573C109.563 86.8768 109.694 86.7439 109.773 86.5799" stroke="#263238" stroke-linecap="round" stroke-linejoin="round"/>
</g>
<g id="Vector_107">
<path d="M110.193 86.1481C110.193 86.1481 109.143 83.2291 108.678 83.7481C108.213 84.2671 109.395 86.8261 109.395 86.8261C109.395 86.8261 109.563 87.4471 110.805 86.5981" fill="#B2B2B2"/>
<path d="M110.193 86.1481C110.193 86.1481 109.143 83.2291 108.678 83.7481C108.213 84.2671 109.395 86.8261 109.395 86.8261C109.395 86.8261 109.563 87.4471 110.805 86.5981" stroke="#263238" stroke-linecap="round" stroke-linejoin="round"/>
</g>
<path id="Vector_108" d="M139.827 90.615C139.827 90.615 135.225 94.47 129.699 94.854C124.173 95.238 121.764 96.255 121.413 99.303C121.062 102.351 120.645 110.967 120.645 110.967L135.531 111.06L138.984 94.701L139.827 90.615Z" fill="#92E3A9" stroke="#263238" stroke-linecap="round" stroke-linejoin="round"/>
<path id="Vector_109" d="M136.083 95.0071C136.083 95.0071 134.703 96.8491 131.25 97.1551C127.797 97.4611 125.187 97.9231 124.35 99.0751" stroke="#263238" stroke-linecap="round" stroke-linejoin="round"/>
<path id="Vector_110" d="M141.54 68.322C140.907 68.139 141.903 66.963 142.356 65.877C142.809 64.791 141.54 64.155 140.556 63.612C139.572 63.069 140.556 61.98 140.466 60.531C140.376 59.082 139.266 59.109 138.744 58.269C138.222 57.429 139.197 54.645 135.666 54.282C132.135 53.919 130.776 54.465 129.324 55.182C128.625 55.5587 128.05 56.1297 127.668 56.826C127.335 57.141 127.068 57.537 127.227 57.918C127.572 58.746 127.917 59.298 127.434 60.195C126.951 61.092 127.227 61.917 127.641 62.262C128.055 62.607 128.055 63.504 127.365 64.194C126.675 64.884 126.882 65.433 127.503 65.778C128.124 66.123 128.814 67.02 128.193 67.848C127.572 68.676 127.779 69.846 129.021 70.122C129.417 70.1863 129.807 70.2868 130.185 70.422L130.485 71.745C130.398 72.318 130.29 72.84 130.749 72.945C130.943 72.9705 131.141 72.9337 131.313 72.84C131.532 72.7955 131.748 72.7343 131.958 72.657C132.411 72.474 132.591 73.557 133.044 74.457C133.497 75.357 134.844 74.91 135.582 74.274C135.656 74.2054 135.744 74.1544 135.84 74.1248C135.936 74.0952 136.038 74.0877 136.137 74.103C136.404 74.3095 136.727 74.4326 137.064 74.457C137.5 74.6823 137.992 74.7761 138.48 74.727C139.839 74.547 139.656 74.004 139.839 73.188C140.022 72.372 140.739 72.372 141.831 71.466C142.923 70.56 142.173 68.502 141.54 68.322Z" fill="#263238"/>
<g id="Clip path group_16">
<mask id="mask15_339_4547" style="mask-type:luminance" maskUnits="userSpaceOnUse" x="126" y="54" width="17" height="21">
<g id="freepik--clip-path-16--inject-2">
<path id="Vector_111" d="M141.54 68.322C140.907 68.139 141.903 66.963 142.356 65.877C142.809 64.791 141.54 64.155 140.556 63.612C139.572 63.069 140.556 61.98 140.466 60.531C140.376 59.082 139.266 59.109 138.744 58.269C138.222 57.429 139.197 54.645 135.666 54.282C132.135 53.919 130.776 54.465 129.324 55.182C128.625 55.5587 128.05 56.1297 127.668 56.826C127.335 57.141 127.068 57.537 127.227 57.918C127.572 58.746 127.917 59.298 127.434 60.195C126.951 61.092 127.227 61.917 127.641 62.262C128.055 62.607 128.055 63.504 127.365 64.194C126.675 64.884 126.882 65.433 127.503 65.778C128.124 66.123 128.814 67.02 128.193 67.848C127.572 68.676 127.779 69.846 129.021 70.122C129.417 70.1863 129.807 70.2868 130.185 70.422L130.485 71.745C130.398 72.318 130.29 72.84 130.749 72.945C130.943 72.9705 131.141 72.9337 131.313 72.84C131.532 72.7955 131.748 72.7343 131.958 72.657C132.411 72.474 132.591 73.557 133.044 74.457C133.497 75.357 134.844 74.91 135.582 74.274C135.656 74.2054 135.744 74.1544 135.84 74.1248C135.936 74.0952 136.038 74.0877 136.137 74.103C136.404 74.3095 136.727 74.4326 137.064 74.457C137.5 74.6823 137.992 74.7761 138.48 74.727C139.839 74.547 139.656 74.004 139.839 73.188C140.022 72.372 140.739 72.372 141.831 71.466C142.923 70.56 142.173 68.502 141.54 68.322Z" fill="white"/>
</g>
</mask>
<g mask="url(#mask15_339_4547)">
<g id="Group_16">
<path id="Vector_112" d="M129.033 55.554C129.033 55.554 129.807 55.986 129.465 57.273C129.123 58.56 128.517 59.166 129.12 59.595C129.723 60.024 131.268 60.885 130.92 61.995C130.572 63.105 129.459 64.143 130.404 64.833C131.349 65.523 133.326 65.949 133.242 67.326C133.158 68.703 132.552 69.726 133.326 70.164C134.1 70.602 135.306 69.819 135.477 70.764C135.648 71.709 135.132 72.999 135.735 73.164C136.338 73.329 137.265 72.984 137.535 73.593C137.698 73.9704 137.757 74.3849 137.706 74.793" stroke="#666666" stroke-linecap="round" stroke-linejoin="round"/>
<path id="Vector_113" d="M130.668 54.438C130.668 54.438 132.468 54.954 132.387 56.415C132.306 57.876 131.613 60.015 132.216 60.369C132.819 60.723 134.451 61.23 134.28 62.349C134.109 63.468 133.506 64.41 134.022 64.842C134.538 65.274 136.083 66.042 136.083 66.732C136.083 67.422 135.225 67.422 135.825 68.367C136.425 69.312 138.321 69.225 138.405 70.515C138.489 71.805 137.976 72.495 138.234 72.753C138.492 73.011 139.179 73.782 139.434 73.869C139.689 73.956 139.521 75.159 139.521 75.159" stroke="#666666" stroke-linecap="round" stroke-linejoin="round"/>
<path id="Vector_114" d="M133.248 53.2319C133.248 53.2319 135.912 54.6959 135.741 56.4149C135.57 58.1339 135.312 58.9949 135.741 59.4149C136.17 59.8349 137.115 60.4469 137.115 61.3079" stroke="#666666" stroke-linecap="round" stroke-linejoin="round"/>
<path id="Vector_115" d="M137.46 63.552C137.46 63.552 137.289 65.1 137.976 65.442C138.663 65.784 140.298 67.506 140.298 68.442C140.298 69.378 139.782 70.335 140.385 71.022C140.999 71.6462 141.66 72.2219 142.362 72.744" stroke="#666666" stroke-linecap="round" stroke-linejoin="round"/>
</g>
</g>
</g>
<path id="Vector_116" d="M141.54 68.322C140.907 68.139 141.903 66.963 142.356 65.877C142.809 64.791 141.54 64.155 140.556 63.612C139.572 63.069 140.556 61.98 140.466 60.531C140.376 59.082 139.266 59.109 138.744 58.269C138.222 57.429 139.197 54.645 135.666 54.282C132.135 53.919 130.776 54.465 129.324 55.182C128.625 55.5587 128.05 56.1297 127.668 56.826C127.335 57.141 127.068 57.537 127.227 57.918C127.572 58.746 127.917 59.298 127.434 60.195C126.951 61.092 127.227 61.917 127.641 62.262C128.055 62.607 128.055 63.504 127.365 64.194C126.675 64.884 126.882 65.433 127.503 65.778C128.124 66.123 128.814 67.02 128.193 67.848C127.572 68.676 127.779 69.846 129.021 70.122C129.417 70.1863 129.807 70.2868 130.185 70.422L130.485 71.745C130.398 72.318 130.29 72.84 130.749 72.945C130.943 72.9705 131.141 72.9337 131.313 72.84C131.532 72.7955 131.748 72.7343 131.958 72.657C132.411 72.474 132.591 73.557 133.044 74.457C133.497 75.357 134.844 74.91 135.582 74.274C135.656 74.2054 135.744 74.1544 135.84 74.1248C135.936 74.0952 136.038 74.0877 136.137 74.103C136.404 74.3095 136.727 74.4326 137.064 74.457C137.5 74.6823 137.992 74.7761 138.48 74.727C139.839 74.547 139.656 74.004 139.839 73.188C140.022 72.372 140.739 72.372 141.831 71.466C142.923 70.56 142.173 68.502 141.54 68.322Z" stroke="#263238" stroke-linecap="round" stroke-linejoin="round"/>
</g>
<g id="freepik--character-1--inject-2">
<path id="Vector_117" d="M16.2571 110.343L14.5651 130.968H15.1561L18.1981 110.514L16.2571 110.343Z" fill="white" stroke="#263238" stroke-linecap="round" stroke-linejoin="round"/>
<path id="Vector_118" d="M28.932 110.343L27.24 130.968H27.831L30.873 110.514L28.932 110.343Z" fill="white" stroke="#263238" stroke-linecap="round" stroke-linejoin="round"/>
<path id="Vector_119" d="M30.45 110.343L32.142 130.968H31.551L28.509 110.514L30.45 110.343Z" fill="white" stroke="#263238" stroke-linecap="round" stroke-linejoin="round"/>
<path id="Vector_120" d="M44.817 110.343L46.506 130.968H45.915L42.873 110.514L44.817 110.343Z" fill="white" stroke="#263238" stroke-linecap="round" stroke-linejoin="round"/>
<path id="Vector_121" d="M29.358 77.418H10.599C10.599 77.418 8.34903 78.042 9.34803 80.67C10.347 83.298 15.978 111.06 15.978 111.06H45.741L47.619 93.801C47.619 93.801 47.994 91.299 46.242 90.924C44.49 90.549 37.362 90.798 35.988 90.048C34.614 89.298 31.5 78.417 31.5 78.417C31.5 78.417 31.236 77.163 29.358 77.418Z" fill="#92E3A9" stroke="#263238" stroke-linecap="round" stroke-linejoin="round"/>
<path id="Vector_122" d="M30.7891 107.13H45.7531" stroke="#263238" stroke-linecap="round" stroke-linejoin="round"/>
<path id="Vector_123" d="M21.327 61.983C21.327 61.983 21.6 72.63 21.72 73.587C21.7901 74.3767 21.6906 75.1722 21.4283 75.9204C21.166 76.6685 20.7469 77.352 20.199 77.925C18.735 79.503 12.819 78.318 12.426 76.854C12.033 75.39 12.762 72.954 12.762 72.954C12.762 72.954 10.5 72.462 11.13 70.5C11.76 68.538 15.186 65.037 16.764 63.855C18.342 62.673 20.142 61.701 21.327 61.983Z" fill="#92E3A9" stroke="#263238" stroke-linecap="round" stroke-linejoin="round"/>
<path id="Vector_124" d="M17.199 64.2209C17.199 64.2209 13.683 70.3349 13.149 71.9399" stroke="#263238" stroke-linecap="round" stroke-linejoin="round"/>
<path id="Vector_125" d="M18.957 63.915C18.957 63.915 15.057 71.94 14.37 75.228" stroke="#263238" stroke-linecap="round" stroke-linejoin="round"/>
<path id="Vector_126" d="M19.11 66.9722C19.11 66.9722 17.55 71.4002 17.199 73.0892" stroke="#263238" stroke-linecap="round" stroke-linejoin="round"/>
<path id="Vector_127" d="M26.454 75.333C26.454 75.333 29.286 75.261 30.522 74.607C31.758 73.953 34.299 74.46 35.169 77.076C36.039 79.692 37.713 84.486 38.367 86.448C39.021 88.41 40.545 90.225 40.545 90.225L34.515 92.547L31.029 94.074C31.029 94.074 28.269 83.034 27.324 80.199C26.379 77.364 26.1 75.696 26.454 75.333Z" fill="#787878" stroke="#263238" stroke-linecap="round" stroke-linejoin="round"/>
<path id="Vector_128" d="M51.177 112.671L53.502 117.516L54.093 117.234L52.536 112.986L51.177 112.671Z" fill="#263238" stroke="#263238" stroke-linecap="round" stroke-linejoin="round"/>
<path id="Vector_129" d="M51.9571 102.87C51.9571 102.87 54.9271 109.905 55.5571 110.565C56.1871 111.225 59.6461 112.875 60.1651 112.947C60.6841 113.019 61.8841 113.007 61.7821 113.298C61.6801 113.589 56.5021 116.397 55.5961 116.025C54.6901 115.653 54.4321 114.843 53.4661 114.339C52.5001 113.835 51.1621 113.157 50.5651 111.912C49.9681 110.667 50.9611 109.548 50.9611 109.548L48.2461 104.727L51.9571 102.87Z" fill="white" stroke="#263238" stroke-linecap="round" stroke-linejoin="round"/>
<path id="Vector_130" d="M60.1741 112.947C59.9951 112.905 59.8203 112.847 59.6521 112.773C58.7011 113.673 56.7031 114.555 54.2101 112.893C52.9108 112.052 51.7551 111.008 50.7871 109.8C50.5746 110.103 50.4435 110.454 50.4062 110.822C50.3689 111.19 50.4267 111.561 50.5741 111.9C51.1741 113.145 52.5091 113.823 53.4751 114.327C54.4411 114.831 54.7021 115.641 55.6051 116.013C56.5081 116.385 61.6891 113.577 61.7911 113.286C61.8931 112.995 60.6901 113.022 60.1741 112.947Z" fill="#263238" stroke="#263238" stroke-linecap="round" stroke-linejoin="round"/>
<path id="Vector_131" d="M47.7481 89.6551C47.7481 89.6551 52.0951 99.6001 53.1001 101.628L54.5521 104.532L49.0321 107.295C49.0321 107.295 43.0021 95.8171 43.0021 94.1461C43.0021 92.4751 44.1271 90.7381 44.8531 89.8681C45.5791 88.9981 47.7481 89.6551 47.7481 89.6551Z" fill="#263238" stroke="#263238" stroke-linecap="round" stroke-linejoin="round"/>
<path id="Vector_132" d="M46.2001 116.736C46.2001 116.736 45.8371 124.362 46.1251 125.235C46.4131 126.108 48.8251 129.084 49.2511 129.375C49.6771 129.666 50.7751 130.173 50.5561 130.392C50.3371 130.611 44.4571 130.902 43.8031 130.173C43.1491 129.444 43.4401 127.413 42.7861 126.543C42.1321 125.673 41.0431 125.67 41.0431 124.29C41.0431 122.91 42.4231 122.328 42.4231 122.328L42.0601 116.808L46.2001 116.736Z" fill="white" stroke="#263238" stroke-linecap="round" stroke-linejoin="round"/>
<path id="Vector_133" d="M49.2631 129.375C49.079 129.223 48.9093 129.054 48.7561 128.871C47.9521 129.171 47.0821 129.366 46.4281 129.156C44.8321 128.649 43.5961 127.632 43.2331 125.598C43.0081 124.332 42.0751 123.573 41.4061 123.18C41.1759 123.504 41.0532 123.893 41.0551 124.29C41.0551 125.67 42.1441 125.67 42.7981 126.543C43.4521 127.416 43.1611 129.447 43.8151 130.173C44.4691 130.899 50.3521 130.611 50.5681 130.392C50.7841 130.173 49.6981 129.666 49.2631 129.375Z" fill="#263238" stroke="#263238" stroke-linecap="round" stroke-linejoin="round"/>
<path id="Vector_134" d="M41.271 125.235V130.611H41.925L42.36 126.108L41.271 125.235Z" fill="#263238" stroke="#263238" stroke-linecap="round" stroke-linejoin="round"/>
<path id="Vector_135" d="M43.5241 94.074C43.5241 94.074 48.4621 94.581 48.3901 97.923C48.3181 101.265 48.0901 117.171 48.0901 117.171L41.4181 117.9C41.4181 117.9 39.9631 109.692 40.3261 106.35C40.6891 103.008 41.2711 102.354 41.2711 102.354H30.4501C30.4501 102.354 31.5391 99.885 35.0251 97.269C38.5111 94.653 43.5241 94.074 43.5241 94.074Z" fill="#263238" stroke="#263238" stroke-linecap="round" stroke-linejoin="round"/>
<g id="Vector_136">
<path d="M32.628 76.8571C32.6775 77.6865 32.7777 78.512 32.928 79.3291C33.144 80.4181 34.308 80.9251 34.671 82.5241C35.034 84.1231 34.452 84.8491 34.524 86.5201C34.596 88.1911 35.616 90.4411 35.76 91.2421C35.904 92.0431 35.034 92.6941 33.798 93.4921C32.562 94.2901 21.813 98.2921 20.361 96.6871C18.909 95.0821 20.142 92.8381 19.854 91.0231C19.566 89.2081 18.108 81.8701 17.454 79.0231C16.8 76.1761 16.452 74.7841 18 74.1601C19.089 73.7251 22.956 75.2611 22.956 75.2611C22.956 75.2611 24.339 75.4051 27.315 75.4051" fill="#787878"/>
<path d="M32.628 76.8571C32.6775 77.6865 32.7777 78.512 32.928 79.3291C33.144 80.4181 34.308 80.9251 34.671 82.5241C35.034 84.1231 34.452 84.8491 34.524 86.5201C34.596 88.1911 35.616 90.4411 35.76 91.2421C35.904 92.0431 35.034 92.6941 33.798 93.4921C32.562 94.2901 21.813 98.2921 20.361 96.6871C18.909 95.0821 20.142 92.8381 19.854 91.0231C19.566 89.2081 18.108 81.8701 17.454 79.0231C16.8 76.1761 16.452 74.7841 18 74.1601C19.089 73.7251 22.956 75.2611 22.956 75.2611C22.956 75.2611 24.339 75.4051 27.315 75.4051" stroke="#263238" stroke-linecap="round" stroke-linejoin="round"/>
</g>
<path id="Vector_137" d="M21.381 66.378V74.433C21.381 74.433 22.902 75.729 24.819 77.25C26.736 78.771 28.143 79.05 28.419 77.643C28.695 76.236 27.459 74.544 27.066 74.151C26.673 73.758 26.727 70.434 26.727 70.434C26.727 70.434 22.62 66.096 21.9 65.643C21.18 65.19 21.381 66.378 21.381 66.378Z" fill="white" stroke="#263238" stroke-linecap="round" stroke-linejoin="round"/>
<path id="Vector_138" d="M29.889 57.0809C29.889 57.0809 32.817 57.8699 32.889 59.9549C32.961 62.0399 29.775 62.8289 29.439 62.0999C29.103 61.3709 28.65 57.6479 28.704 57.1409C28.758 56.6339 29.889 57.0809 29.889 57.0809Z" fill="#92E3A9" stroke="#263238" stroke-linecap="round" stroke-linejoin="round"/>
<path id="Vector_139" d="M30.366 58.5481C30.366 58.5481 31.719 61.7581 31.128 64.4611C30.537 67.1641 29.352 70.2061 28.428 71.0611C27.504 71.9161 26.4 72.1321 24.456 70.5541C23.052 69.4141 21.33 67.1731 20.907 65.9911C20.484 64.8091 20.823 62.4421 22.344 60.1621C23.865 57.8821 29.439 56.8561 30.366 58.5481Z" fill="white" stroke="#263238" stroke-linecap="round" stroke-linejoin="round"/>
<path id="Vector_140" d="M27.378 64.4191C27.5702 64.4191 27.726 64.1545 27.726 63.8281C27.726 63.5017 27.5702 63.2371 27.378 63.2371C27.1858 63.2371 27.03 63.5017 27.03 63.8281C27.03 64.1545 27.1858 64.4191 27.378 64.4191Z" fill="#263238"/>
<path id="Vector_141" d="M30.468 63.882C30.468 64.209 30.312 64.482 30.12 64.482C29.928 64.482 29.769 64.218 29.769 63.882C29.769 63.546 29.925 63.282 30.12 63.282C30.315 63.282 30.468 63.555 30.468 63.882Z" fill="#263238"/>
<path id="Vector_142" d="M29.931 62.5381C29.931 62.5381 29.124 63.2371 29.331 64.2061C29.538 65.1751 29.931 65.8171 29.76 66.1411C29.589 66.4651 28.86 66.4621 28.86 66.4621" stroke="#263238" stroke-linecap="round" stroke-linejoin="round"/>
<path id="Vector_143" d="M26.0071 62.217C26.0071 62.217 27.2971 61.518 28.1581 61.839" stroke="#263238" stroke-linecap="round" stroke-linejoin="round"/>
<path id="Vector_144" d="M30.093 61.947C30.093 61.947 30.63 61.464 31.167 62.163" stroke="#263238" stroke-linecap="round" stroke-linejoin="round"/>
<path id="Vector_145" d="M27.729 67.6441C27.4484 67.6442 27.1738 67.5632 26.938 67.411C26.7023 67.2589 26.5155 67.0419 26.4 66.7861" stroke="#263238" stroke-linecap="round" stroke-linejoin="round"/>
<path id="Vector_146" d="M16.0111 64.2601C16.0111 64.2601 22.8901 63.3601 26.2111 61.6261C29.5321 59.8921 30.7801 58.6681 30.5101 57.2731C30.2401 55.8781 26.9101 53.5651 23.2021 53.6161C21.6235 53.6525 20.0912 54.1565 18.7994 55.0644C17.5075 55.9723 16.5141 57.2432 15.9451 58.7161C15.0961 61.1431 16.0111 64.2601 16.0111 64.2601Z" fill="#92E3A9" stroke="#263238" stroke-linecap="round" stroke-linejoin="round"/>
<path id="Vector_147" d="M27.9001 56.8801C26.3823 58.5191 24.5981 59.8895 22.6231 60.9331C20.631 61.9235 18.4857 62.5697 16.2781 62.8441" stroke="#263238" stroke-linecap="round" stroke-linejoin="round"/>
<path id="Vector_148" d="M16.053 62.0791C17.8804 61.5176 19.6472 60.7749 21.327 59.8621" stroke="#263238" stroke-linecap="round" stroke-linejoin="round"/>
<path id="Vector_149" d="M22.473 59.175C22.473 59.175 25.533 57.033 27.06 55.5" stroke="#263238" stroke-linecap="round" stroke-linejoin="round"/>
<g id="Vector_150">
<path d="M22.593 64.3771C22.593 64.3771 21.495 61.9261 20.226 62.8561C18.957 63.7861 19.806 66.4891 20.565 66.9961C21.324 67.5031 22.425 66.7441 22.425 66.7441" fill="white"/>
<path d="M22.593 64.3771C22.593 64.3771 21.495 61.9261 20.226 62.8561C18.957 63.7861 19.806 66.4891 20.565 66.9961C21.324 67.5031 22.425 66.7441 22.425 66.7441" stroke="#263238" stroke-linecap="round" stroke-linejoin="round"/>
</g>
<path id="Vector_151" d="M32.4 87.2459C32.4 87.2459 35.379 86.7359 36.468 86.5919C37.557 86.4479 40.392 87.4649 40.245 87.9719C40.098 88.4789 37.05 88.8449 36.045 89.2079C35.04 89.5709 32.775 89.0609 32.775 89.0609L32.4 87.2459Z" fill="white" stroke="#263238" stroke-linecap="round" stroke-linejoin="round"/>
<g id="Vector_152">
<path d="M21.6 75.1141C21.6 75.1141 20.583 73.5181 18.186 73.9531C15.789 74.3881 15.06 76.8571 15.135 79.3291C15.21 81.8011 17.835 92.6221 18.765 93.2761C19.695 93.9301 32.919 90.0001 32.919 90.0001L32.409 87.2401L22.53 87.8281L21.441 78.9001" fill="#787878"/>
<path d="M21.6 75.1141C21.6 75.1141 20.583 73.5181 18.186 73.9531C15.789 74.3881 15.06 76.8571 15.135 79.3291C15.21 81.8011 17.835 92.6221 18.765 93.2761C19.695 93.9301 32.919 90.0001 32.919 90.0001L32.409 87.2401L22.53 87.8281L21.441 78.9001" stroke="#263238" stroke-linecap="round" stroke-linejoin="round"/>
</g>
<path id="Vector_153" d="M40.296 87.1951L29.751 92.1871L32.565 93.3811L46.059 88.6711L40.296 87.1951Z" fill="white" stroke="#263238" stroke-linecap="round" stroke-linejoin="round"/>
<g id="Vector_154">
<path d="M48.519 91.2C48.519 91.2 47.817 88.668 46.059 88.668C44.301 88.668 33.057 92.325 29.19 93.87C25.323 95.415 22.02 96.33 21.246 97.527C20.472 98.724 21.879 103.29 24.339 103.992C26.799 104.694 31.158 103.782 32.985 102.792C34.812 101.802 47.325 92.952 47.325 92.952" fill="#263238"/>
<path d="M48.519 91.2C48.519 91.2 47.817 88.668 46.059 88.668C44.301 88.668 33.057 92.325 29.19 93.87C25.323 95.415 22.02 96.33 21.246 97.527C20.472 98.724 21.879 103.29 24.339 103.992C26.799 104.694 31.158 103.782 32.985 102.792C34.812 101.802 47.325 92.952 47.325 92.952" stroke="#263238" stroke-linecap="round" stroke-linejoin="round"/>
</g>
<path id="Vector_155" d="M11.796 90.9421C11.796 90.9421 16.296 94.4701 21.81 94.8421C27.324 95.2141 29.745 96.2431 30.096 99.2911C30.447 102.339 30.864 110.955 30.864 110.955L15.978 111.048L13.047 96.5371L11.796 90.9421Z" fill="#92E3A9" stroke="#263238" stroke-linecap="round" stroke-linejoin="round"/>
<path id="Vector_156" d="M15.2101 95.0071C15.2101 95.0071 16.5901 96.8491 20.0461 97.1551C23.5021 97.4611 26.1061 97.9231 26.9461 99.0751" stroke="#263238" stroke-linecap="round" stroke-linejoin="round"/>
</g>
</g>
</svg>
