<svg width="98" height="98" viewBox="0 0 98 98" fill="none" xmlns="http://www.w3.org/2000/svg">
<g clip-path="url(#clip0_372_3013)">
<path fill-rule="evenodd" clip-rule="evenodd" d="M10.1883 10.8281C3.19305 18.0296 0 29.848 0 49C0 68.152 3.19305 79.9703 10.1883 87.1719C17.1545 94.3434 28.9389 98 49 98C69.0611 98 80.8455 94.3434 87.8117 87.1719C94.807 79.9703 98 68.152 98 49C98 29.848 94.807 18.0296 87.8117 10.8281C80.8455 3.65666 69.0611 0 49 0C28.9389 0 17.1545 3.65666 10.1883 10.8281Z" fill="#FFE2E2"/>
<path d="M63.8114 27.7295H54.5014C53.5659 25.1458 51.1159 23.2749 48.2204 23.2749C45.325 23.2749 42.875 25.1458 41.9396 27.7295H32.6296C30.1796 27.7295 28.175 29.734 28.175 32.184V67.8203C28.175 70.2703 30.1796 72.2749 32.6296 72.2749H63.8114C66.2614 72.2749 68.2659 70.2703 68.2659 67.8203V32.184C68.2659 29.734 66.2614 27.7295 63.8114 27.7295ZM48.2204 27.7295C49.4454 27.7295 50.4477 28.7317 50.4477 29.9567C50.4477 31.1817 49.4454 32.184 48.2204 32.184C46.9954 32.184 45.9932 31.1817 45.9932 29.9567C45.9932 28.7317 46.9954 27.7295 48.2204 27.7295ZM63.8114 67.8203H32.6296V32.184H37.0841V36.6385C37.0841 37.8686 38.0813 38.8658 39.3114 38.8658H57.1296C58.3596 38.8658 59.3568 37.8686 59.3568 36.6385V32.184H63.8114V67.8203Z" fill="#FFAEAE"/>
<path d="M36.75 51.45H60.025" stroke="#FFAEAE" stroke-width="4"/>
<path d="M36.75 60.0249H60.025" stroke="#FFAEAE" stroke-width="4"/>
</g>
<defs>
<clipPath id="clip0_372_3013">
<rect width="98" height="98" fill="white"/>
</clipPath>
</defs>
</svg>
