<svg xmlns="http://www.w3.org/2000/svg" xmlns:xlink="http://www.w3.org/1999/xlink" id="Layer_1" data-name="Layer 1" viewBox="0 0 96.06 96.123"><defs><style>.cls-1{fill:url(#linear-gradient);}.cls-2{fill:url(#linear-gradient-2);}.cls-3{fill:#fff;}.cls-4,.cls-5,.cls-6,.cls-7{fill:#306efb;}.cls-5{opacity:0.75;}.cls-6{opacity:0.5;}.cls-7{opacity:0.25;}</style><linearGradient id="linear-gradient" x1="-8.392" y1="48.81" x2="38.351" y2="95.553" gradientTransform="matrix(-1, 0, 0, 1, 38.737, 0.061)" gradientUnits="userSpaceOnUse"><stop offset="0" stop-color="#eaf0ff"></stop><stop offset="1" stop-color="#fffdfe" stop-opacity="0"></stop></linearGradient><linearGradient id="linear-gradient-2" x1="-41.263" y1="47.939" x2="22.737" y2="47.939" gradientTransform="matrix(-1, 0, 0, 1, 38.737, 0.061)" gradientUnits="userSpaceOnUse"><stop offset="0" stop-color="#1fa6dd"></stop><stop offset="1" stop-color="#51bdb5"></stop></linearGradient></defs><title>porque-elegir_unicidad-de-la-persona</title><circle class="cls-1" cx="48" cy="48" r="48"></circle><circle class="cls-2" cx="48" cy="48" r="32"></circle><path class="cls-3" d="M48.339,61.972a9.443,9.443,0,0,1,7.28-9.179v-20.2H36.9V66.825H49.686A9.4,9.4,0,0,1,48.339,61.972Z" transform="translate(0.03 0.061)"></path><path class="cls-4" d="M57.762,53.953a8.019,8.019,0,1,0,8.019,8.019A8.026,8.026,0,0,0,57.762,53.953Z" transform="translate(0.03 0.061)"></path><path class="cls-4" d="M57.835,51.989a0.817,0.817,0,0,0,.82-0.82V31.65a2.161,2.161,0,0,0-2.167-2.167H35.93a2.161,2.161,0,0,0-2.167,2.167V67.815a2.161,2.161,0,0,0,2.167,2.167H49.751a0.82,0.82,0,1,0,0-1.639H35.93a0.535,0.535,0,0,1-.373-0.154,0.55,0.55,0,0,1-.154-0.373V31.65a0.535,0.535,0,0,1,.154-0.373,0.55,0.55,0,0,1,.373-0.154H56.488a0.535,0.535,0,0,1,.373.154,0.55,0.55,0,0,1,.154.373V51.169A0.823,0.823,0,0,0,57.835,51.989Z" transform="translate(0.03 0.061)"></path><path class="cls-4" d="M54.24,25.887H32.326a2.161,2.161,0,0,0-2.167,2.167V65.567a0.82,0.82,0,0,0,1.639,0V28.054a0.535,0.535,0,0,1,.154-0.373,0.55,0.55,0,0,1,.373-0.154H54.24A0.82,0.82,0,1,0,54.24,25.887Z" transform="translate(0.03 0.061)"></path><path class="cls-4" d="M53.436,45.374H48.079a0.82,0.82,0,1,0,0,1.639h5.357A0.82,0.82,0,1,0,53.436,45.374Z" transform="translate(0.03 0.061)"></path><path class="cls-4" d="M53.436,48.978H39.079a0.82,0.82,0,1,0,0,1.639H53.436A0.82,0.82,0,1,0,53.436,48.978Z" transform="translate(0.03 0.061)"></path><path class="cls-4" d="M44.938,52.573h-5.86a0.82,0.82,0,1,0,0,1.639h5.86A0.82,0.82,0,1,0,44.938,52.573Z" transform="translate(0.03 0.061)"></path><path class="cls-4" d="M49.995,52.573H48.079a0.82,0.82,0,1,0,0,1.639h1.915A0.82,0.82,0,1,0,49.995,52.573Z" transform="translate(0.03 0.061)"></path><path class="cls-4" d="M45.807,59.943h-3.6a0.82,0.82,0,1,0,0,1.639h3.6A0.82,0.82,0,1,0,45.807,59.943Z" transform="translate(0.03 0.061)"></path><path class="cls-4" d="M45.807,56.177H39.079a0.82,0.82,0,1,0,0,1.639h6.728A0.82,0.82,0,1,0,45.807,56.177Z" transform="translate(0.03 0.061)"></path><path class="cls-3" d="M57.762,68.343a6.379,6.379,0,1,1,6.379-6.379A6.391,6.391,0,0,1,57.762,68.343Z" transform="translate(0.03 0.061)"></path><path class="cls-4" d="M61.171,59.464a0.828,0.828,0,0,0-1.161,0L56.772,62.7l-1.331-1.331a0.8,0.8,0,0,0-.576-0.235,0.817,0.817,0,0,0-.576.235,0.828,0.828,0,0,0,0,1.161L56.2,64.439a0.828,0.828,0,0,0,1.161,0l3.815-3.815A0.828,0.828,0,0,0,61.171,59.464Z" transform="translate(0.03 0.061)"></path><path class="cls-4" d="M39.338,41.77H40.9v1.55a0.814,0.814,0,0,0,.812.812h3.384a0.814,0.814,0,0,0,.812-0.812V41.762h1.558a0.814,0.814,0,0,0,.812-0.812V37.566a0.819,0.819,0,0,0-.82-0.8H45.9V35.2a0.814,0.814,0,0,0-.812-0.812H41.7a0.814,0.814,0,0,0-.812.812v1.558h-1.55a0.814,0.814,0,0,0-.812.812v3.384A0.814,0.814,0,0,0,39.338,41.77Zm0.812-3.393h1.558a0.814,0.814,0,0,0,.812-0.812v-1.55h1.761v1.558a0.814,0.814,0,0,0,.812.812h1.558v1.753H45.085a0.814,0.814,0,0,0-.812.812v1.558H42.512V40.951a0.814,0.814,0,0,0-.812-0.812H40.15V38.378Z" transform="translate(0.03 0.061)"></path><polygon class="cls-5" points="8.593 77.239 8.593 78.49 7.342 78.49 7.342 79.454 8.593 79.454 8.593 80.706 9.557 80.706 9.557 79.454 10.809 79.454 10.809 78.49 9.557 78.49 9.557 77.239 8.593 77.239"></polygon><polygon class="cls-6" points="2.709 88.782 2.709 91.431 0.06 91.431 0.06 93.473 2.709 93.473 2.709 96.123 4.752 96.123 4.752 93.473 7.401 93.473 7.401 91.431 4.752 91.431 4.752 88.782 2.709 88.782"></polygon><polygon class="cls-7" points="16.193 78.972 16.193 82.7 12.465 82.7 12.465 85.574 16.193 85.574 16.193 89.302 19.067 89.302 19.067 85.574 22.795 85.574 22.795 82.7 19.067 82.7 19.067 78.972 16.193 78.972"></polygon><polygon class="cls-7" points="86.232 17.768 86.232 20.054 83.946 20.054 83.946 21.817 86.232 21.817 86.232 24.103 87.995 24.103 87.995 21.817 90.281 21.817 90.281 20.054 87.995 20.054 87.995 17.768 86.232 17.768"></polygon><polygon class="cls-4" points="93.472 11.452 93.472 12.914 92.011 12.914 92.011 14.04 93.472 14.04 93.472 15.501 94.599 15.501 94.599 14.04 96.06 14.04 96.06 12.914 94.599 12.914 94.599 11.452 93.472 11.452"></polygon><polygon class="cls-6" points="84.112 0.148 84.112 3.482 80.778 3.482 80.778 6.052 84.112 6.052 84.112 9.387 86.682 9.387 86.682 6.052 90.017 6.052 90.017 3.482 86.682 3.482 86.682 0.148 84.112 0.148"></polygon></svg>