<svg xmlns="http://www.w3.org/2000/svg" xmlns:xlink="http://www.w3.org/1999/xlink" id="Layer_1" data-name="Layer 1" viewBox="0 0 96.05 96.023"><defs><style>.cls-1{fill:url(#linear-gradient);}.cls-2{fill:url(#linear-gradient-2);}.cls-3{fill:#fff;}.cls-4{fill:none;}.cls-5,.cls-6,.cls-7,.cls-8,.cls-9{fill:#306efb;}.cls-6{opacity:0.75;}.cls-7{opacity:0.25;}.cls-8{opacity:0.1;}.cls-9{opacity:0.5;}</style><linearGradient id="linear-gradient" x1="-8.397" y1="48.86" x2="38.346" y2="95.603" gradientTransform="matrix(-1, 0, 0, 1, 38.732, 0.011)" gradientUnits="userSpaceOnUse"><stop offset="0" stop-color="#eaf0ff"></stop><stop offset="1" stop-color="#fffdfe" stop-opacity="0"></stop></linearGradient><linearGradient id="linear-gradient-2" x1="-41.268" y1="47.989" x2="22.732" y2="47.989" gradientTransform="matrix(-1, 0, 0, 1, 38.732, 0.011)" gradientUnits="userSpaceOnUse"><stop offset="0" stop-color="#1fa6dd"></stop><stop offset="1" stop-color="#51bdb5"></stop></linearGradient></defs><title>porque-elegir_interoperable</title><circle class="cls-1" cx="48" cy="48" r="48"></circle><circle class="cls-2" cx="48" cy="48" r="32"></circle><rect class="cls-3" x="28.367" y="36.422" width="17.409" height="29.632"></rect><polygon class="cls-3" points="55.045 69.552 31.849 69.739 31.849 40.708 48.373 40.708 54.46 46.9 55.045 69.552"></polygon><path class="cls-4" d="M36.864,39.219h8.522V38.756A1.884,1.884,0,0,0,43.5,36.873H30.233a1.9,1.9,0,0,0-1.891,1.883V62.585l0.008,0.008v0.893a1.884,1.884,0,0,0,1.883,1.883H30.7V41.386a2.161,2.161,0,0,1,2.167-2.167h4Z" transform="translate(0.025 0.011)"></path><path class="cls-4" d="M38.666,49.957v1.558h1.761V49.957a0.814,0.814,0,0,1,.812-0.812H42.8V47.392H41.247a0.814,0.814,0,0,1-.812-0.812V45.022H38.674v1.55a0.814,0.814,0,0,1-.812.812H36.3v1.761h1.55A0.814,0.814,0,0,1,38.666,49.957Z" transform="translate(0.025 0.011)"></path><path class="cls-4" d="M48.348,40.867H32.871a0.55,0.55,0,0,0-.373.154,0.535,0.535,0,0,0-.154.373V68.518a0.55,0.55,0,0,0,.154.373,0.535,0.535,0,0,0,.373.154H53.429a0.55,0.55,0,0,0,.373-0.154,0.535,0.535,0,0,0,.154-0.373V46.743A6.66,6.66,0,0,1,48.348,40.867ZM34.681,46.58a0.814,0.814,0,0,1,.812-0.812h1.55V44.21a0.814,0.814,0,0,1,.812-0.812h3.384a0.814,0.814,0,0,1,.812.812v1.558h1.558a0.819,0.819,0,0,1,.82.8v3.384a0.814,0.814,0,0,1-.812.812H42.058v1.558a0.814,0.814,0,0,1-.812.812H37.862a0.814,0.814,0,0,1-.812-0.812v-1.55H35.492a0.814,0.814,0,0,1-.812-0.812V46.58h0ZM34.494,58.958h7.158a0.82,0.82,0,1,1,0,1.639H34.494A0.82,0.82,0,1,1,34.494,58.958Zm14.358,5.519H34.494a0.82,0.82,0,1,1,0-1.639H48.852A0.82,0.82,0,1,1,48.852,64.477Zm2.273-7.759H40.37a0.82,0.82,0,1,1,0-1.639H51.124A0.82,0.82,0,1,1,51.124,56.717Zm0-3.88h-3.6a0.82,0.82,0,1,1,0-1.639h3.6A0.82,0.82,0,1,1,51.124,52.838Zm0.82-4.707a0.817,0.817,0,0,1-.82.82h-3.6a0.82,0.82,0,1,1,0-1.639h3.6A0.817,0.817,0,0,1,51.944,48.131Z" transform="translate(0.025 0.011)"></path><path class="cls-4" d="M46.717,26.923A1.786,1.786,0,1,0,48.5,28.709,1.791,1.791,0,0,0,46.717,26.923Z" transform="translate(0.025 0.011)"></path><path class="cls-4" d="M64.426,52.7a3.084,3.084,0,1,0-2.078-5.365,0.613,0.613,0,0,1-.089.114,1.091,1.091,0,0,1-.114.089A3.085,3.085,0,0,0,64.426,52.7Z" transform="translate(0.025 0.011)"></path><path class="cls-5" d="M50.808,62.837H36.45a0.82,0.82,0,1,0,0,1.639H50.808A0.82,0.82,0,1,0,50.808,62.837Z" transform="translate(0.025 0.011)"></path><path class="cls-5" d="M34.494,60.6h7.158a0.82,0.82,0,1,0,0-1.639H34.494A0.82,0.82,0,1,0,34.494,60.6Z" transform="translate(0.025 0.011)"></path><path class="cls-5" d="M27.652,60.6h7.158a0.82,0.82,0,1,0,0-1.639H27.652A0.82,0.82,0,1,0,27.652,60.6Z" transform="translate(0.025 0.011)"></path><path class="cls-5" d="M51.124,51.2h-3.6a0.82,0.82,0,1,0,0,1.639h3.6A0.82,0.82,0,1,0,51.124,51.2Z" transform="translate(0.025 0.011)"></path><path class="cls-5" d="M46.709,48.131a0.817,0.817,0,0,0,.82.82h3.6a0.82,0.82,0,1,0,0-1.639h-3.6A0.817,0.817,0,0,0,46.709,48.131Z" transform="translate(0.025 0.011)"></path><path class="cls-5" d="M51.124,55.078H40.37a0.82,0.82,0,1,0,0,1.639H51.124A0.82,0.82,0,1,0,51.124,55.078Z" transform="translate(0.025 0.011)"></path><path class="cls-5" d="M35.492,50.776h1.558v1.55a0.814,0.814,0,0,0,.812.812h3.384a0.814,0.814,0,0,0,.812-0.812V50.768h1.558a0.814,0.814,0,0,0,.812-0.812V46.572a0.819,0.819,0,0,0-.82-0.8H42.05V44.21a0.814,0.814,0,0,0-.812-0.812H37.854a0.814,0.814,0,0,0-.812.812v1.558h-1.55a0.814,0.814,0,0,0-.812.812v3.384A0.814,0.814,0,0,0,35.492,50.776Zm0.812-3.4h1.558a0.814,0.814,0,0,0,.812-0.812v-1.55h1.761v1.558a0.814,0.814,0,0,0,.812.812H42.8v1.753H41.239a0.814,0.814,0,0,0-.812.812v1.558H38.666V49.949a0.814,0.814,0,0,0-.812-0.812H36.3V47.376h0Z" transform="translate(0.025 0.011)"></path><path class="cls-5" d="M59.062,34.917a6.624,6.624,0,0,0-7.28-.592L49.3,30.916a3.408,3.408,0,1,0-2.589,1.193,3.447,3.447,0,0,0,1.266-.243l2.484,3.409a6.686,6.686,0,0,0-2.086,3.953H46.887V38.765a3.4,3.4,0,0,0-3.393-3.393H30.225a3.389,3.389,0,0,0-3.393,3.384L26.84,49.94V63.5A3.389,3.389,0,0,0,30.225,66.9H30.7v1.623a2.29,2.29,0,0,0,.065.528,1.957,1.957,0,0,0,.065.2,2.2,2.2,0,0,0,.5.8,2.168,2.168,0,0,0,1.534.633H53.421a2.161,2.161,0,0,0,2.167-2.167V46.8a6.613,6.613,0,0,0,3.466-1.38l1.51,1.51a4.7,4.7,0,1,0,3.847-2,4.639,4.639,0,0,0-2.7.86l-1.51-1.51a6.63,6.63,0,0,0,0-8.181m-29.5,5.3V65.386H30.233A1.884,1.884,0,0,1,28.35,63.5V62.61L28.342,62.6V38.765a1.9,1.9,0,0,1,1.891-1.883H43.5a1.884,1.884,0,0,1,1.883,1.883v0.463H32.863A2.161,2.161,0,0,0,30.7,41.394Zm23.261,5.357V68.518a0.535,0.535,0,0,1-.154.373,0.55,0.55,0,0,1-.373.154H32.871a0.535,0.535,0,0,1-.373-0.154,0.55,0.55,0,0,1-.154-0.373V41.394a0.535,0.535,0,0,1,.154-0.373,0.55,0.55,0,0,1,.373-0.154H48.348a6.676,6.676,0,0,0,5.608,5.884" transform="translate(0.025 0.011)"></path><path class="cls-3" d="M55.588,45.16a5.134,5.134,0,0,1-.617.041,4.627,4.627,0,0,1-1.015-.106,5.053,5.053,0,0,1-3.969-4.229,4.99,4.99,0,0,1-.049-0.706A5.032,5.032,0,1,1,55.588,45.16Z" transform="translate(0.025 0.011)"></path><path class="cls-5" d="M55.02,37.3a2.759,2.759,0,1,0,2.759,2.759A2.768,2.768,0,0,0,55.02,37.3Z" transform="translate(0.025 0.011)"></path><path class="cls-5" d="M65.287,28.238a3.408,3.408,0,0,0-3.409,3.409,3.447,3.447,0,0,0,.243,1.266L58.713,35.4l0.95,1.323,3.409-2.484A3.408,3.408,0,1,0,65.287,28.238Zm0,5.2a1.786,1.786,0,1,1,1.786-1.786A1.791,1.791,0,0,1,65.287,33.44Z" transform="translate(0.025 0.011)"></path><path class="cls-3" d="M46.717,30.494A1.786,1.786,0,1,1,48.5,28.709,1.786,1.786,0,0,1,46.717,30.494Z" transform="translate(0.025 0.011)"></path><path class="cls-3" d="M62.146,47.538a1.091,1.091,0,0,0,.114-0.089,0.614,0.614,0,0,0,.089-0.114,3.085,3.085,0,1,1-1.006,2.281A3.112,3.112,0,0,1,62.146,47.538Z" transform="translate(0.025 0.011)"></path><path class="cls-3" d="M55.02,41.2a1.136,1.136,0,1,1,1.136-1.136A1.14,1.14,0,0,1,55.02,41.2Z" transform="translate(0.025 0.011)"></path><polygon class="cls-6" points="14.856 85.532 14.856 86.784 13.605 86.784 13.605 87.748 14.856 87.748 14.856 88.999 15.821 88.999 15.821 87.748 17.072 87.748 17.072 86.784 15.821 86.784 15.821 85.532 14.856 85.532"></polygon><polygon class="cls-5" points="8.973 88.682 8.973 91.332 6.323 91.332 6.323 93.374 8.973 93.374 8.973 96.023 11.015 96.023 11.015 93.374 13.664 93.374 13.664 91.332 11.015 91.332 11.015 88.682 8.973 88.682"></polygon><polygon class="cls-7" points="3.778 75.202 3.778 78.931 0.05 78.931 0.05 81.804 3.778 81.804 3.778 85.532 6.652 85.532 6.652 81.804 10.38 81.804 10.38 78.931 6.652 78.931 6.652 75.202 3.778 75.202"></polygon><polygon class="cls-7" points="84.671 9.922 84.671 7.635 86.958 7.635 86.958 5.873 84.671 5.873 84.671 3.586 82.909 3.586 82.909 5.873 80.622 5.873 80.622 7.635 82.909 7.635 82.909 9.922 84.671 9.922"></polygon><polygon class="cls-8" points="92.031 4.197 92.031 2.735 93.492 2.735 93.492 1.609 92.031 1.609 92.031 0.148 90.905 0.148 90.905 1.609 89.443 1.609 89.443 2.735 90.905 2.735 90.905 4.197 92.031 4.197"></polygon><polygon class="cls-9" points="92.716 26.683 92.716 23.348 96.05 23.348 96.05 20.778 92.716 20.778 92.716 17.443 90.145 17.443 90.145 20.778 86.811 20.778 86.811 23.348 90.145 23.348 90.145 26.683 92.716 26.683"></polygon></svg>