<svg width="98" height="99" viewBox="0 0 98 99" fill="none" xmlns="http://www.w3.org/2000/svg">
<g clip-path="url(#clip0_372_3028)">
<path fill-rule="evenodd" clip-rule="evenodd" d="M10.1883 11.3281C3.19305 18.5296 0 30.348 0 49.5C0 68.652 3.19305 80.4703 10.1883 87.6719C17.1545 94.8434 28.9389 98.5 49 98.5C69.0611 98.5 80.8455 94.8434 87.8117 87.6719C94.807 80.4703 98 68.652 98 49.5C98 30.348 94.807 18.5296 87.8117 11.3281C80.8455 4.15666 69.0611 0.5 49 0.5C28.9389 0.5 17.1545 4.15666 10.1883 11.3281Z" fill="#E7E3F1"/>
<path d="M48.9355 53.3684C64.4091 53.3684 72.146 59.2786 72.146 71.0987C72.146 72.5947 70.9985 73.8357 69.5403 73.9849L69.2447 74H28.6263C27.0306 74 25.725 72.6944 25.725 71.0987C25.725 59.4896 33.1879 53.5813 48.1139 53.3741L48.9355 53.3684ZM48.9366 58.5263C37.1251 58.5263 31.6933 61.7001 30.9138 68.533L30.8828 68.8421H66.9881L66.9593 68.533C66.1967 61.8456 60.9773 58.663 49.6819 58.5306L48.9366 58.5263ZM48.9355 25C55.3474 25 60.5408 30.1934 60.5408 36.6053C60.5408 42.8485 55.6172 47.9364 49.4391 48.1998L48.9355 48.2106C42.5236 48.2106 37.3303 43.0172 37.3303 36.6053C37.3303 30.3621 42.2539 25.2742 48.4319 25.0107L48.9355 25ZM48.9355 30.1579C45.3724 30.1579 42.4881 33.0421 42.4881 36.6053C42.4881 40.1683 45.3724 43.0526 48.9355 43.0526C52.4986 43.0526 55.3828 40.1683 55.3828 36.6053C55.3828 33.0421 52.4986 30.1579 48.9355 30.1579Z" fill="#4A1EA7"/>
</g>
<defs>
<clipPath id="clip0_372_3028">
<rect width="98" height="98" fill="white" transform="translate(0 0.5)"/>
</clipPath>
</defs>
</svg>
