<svg width="98" height="99" viewBox="0 0 98 99" fill="none" xmlns="http://www.w3.org/2000/svg">
<g clip-path="url(#clip0_372_3018)">
<path fill-rule="evenodd" clip-rule="evenodd" d="M10.1883 11.3281C3.19305 18.5296 0 30.348 0 49.5C0 68.652 3.19305 80.4703 10.1883 87.6719C17.1545 94.8434 28.9389 98.5 49 98.5C69.0611 98.5 80.8455 94.8434 87.8117 87.6719C94.807 80.4703 98 68.652 98 49.5C98 30.348 94.807 18.5296 87.8117 11.3281C80.8455 4.15666 69.0611 0.5 49 0.5C28.9389 0.5 17.1545 4.15666 10.1883 11.3281Z" fill="#E4F4EB"/>
<path d="M23.2936 63.3833L23.3866 35.4806C23.3915 34.0006 23.9841 32.5831 25.0342 31.54C26.0842 30.4969 27.5057 29.9137 28.9857 29.9187L68.0494 30.0488C69.5294 30.0537 70.9468 30.6464 71.9899 31.6965C73.033 32.7465 73.6162 34.1679 73.6112 35.6479L73.5594 51.2343C73.5567 51.9742 73.5594 53.2043 73.5594 53.2043V68.9012V69.0714C73.5594 69.0714 56.343 69.0738 55.603 69.0714L28.8556 68.9824C27.3756 68.9775 25.958 68.3847 24.915 67.3348C23.8719 66.2847 23.2887 64.8633 23.2936 63.3833Z" fill="#96D7B3"/>
<path d="M30.758 39.103H41.1705H30.758ZM30.758 59.928H67.508H30.758ZM30.758 53.1905H67.508H30.758ZM23.2936 63.3833L23.3866 35.4806C23.3915 34.0006 23.9841 32.5831 25.0342 31.54C26.0842 30.4969 27.5057 29.9137 28.9857 29.9187L68.0494 30.0488C69.5294 30.0537 70.9468 30.6464 71.9899 31.6965C73.033 32.7465 73.6162 34.1679 73.6112 35.6479L73.5594 51.2343C73.5567 51.9742 73.5594 53.2043 73.5594 53.2043V68.9012V69.0714C73.5594 69.0714 56.343 69.0738 55.603 69.0714L28.8556 68.9824C27.3756 68.9775 25.958 68.3847 24.915 67.3348C23.8719 66.2847 23.2887 64.8633 23.2936 63.3833Z" fill="#CBD5E1"/>
<path d="M30.758 39.103H41.1705M30.758 59.928H67.508M30.758 53.1905H67.508M23.2936 63.3833L23.3866 35.4806C23.3915 34.0006 23.9841 32.5831 25.0342 31.54C26.0842 30.4969 27.5057 29.9137 28.9857 29.9187L68.0494 30.0488C69.5294 30.0537 70.9468 30.6464 71.9899 31.6965C73.033 32.7465 73.6162 34.1679 73.6112 35.6479L73.5594 51.2343C73.5567 51.9742 73.5594 53.2043 73.5594 53.2043V68.9012V69.0715C73.5594 69.0715 56.343 69.0738 55.603 69.0715L28.8556 68.9824C27.3756 68.9775 25.958 68.3847 24.915 67.3348C23.8719 66.2847 23.2887 64.8633 23.2936 63.3833Z" stroke="#E4F4EB" stroke-width="2.43" stroke-linecap="round" stroke-linejoin="round"/>
</g>
<defs>
<clipPath id="clip0_372_3018">
<rect width="98" height="98" fill="white" transform="translate(0 0.5)"/>
</clipPath>
</defs>
</svg>
