<svg xmlns="http://www.w3.org/2000/svg" xmlns:xlink="http://www.w3.org/1999/xlink" id="Layer_1" data-name="Layer 1" viewBox="0 0 96.05 96.123"><defs><style>.cls-1{fill:url(#linear-gradient);}.cls-2{fill:url(#linear-gradient-2);}.cls-3{fill:#fff;}.cls-4,.cls-6,.cls-7,.cls-8,.cls-9{fill:#306efb;}.cls-5{fill:none;}.cls-6{opacity:0.75;}.cls-7{opacity:0.25;}.cls-8{opacity:0.15;}.cls-9{opacity:0.1;}</style><linearGradient id="linear-gradient" x1="48.921" y1="48.871" x2="95.664" y2="95.614" gradientUnits="userSpaceOnUse"><stop offset="0" stop-color="#eaf0ff"></stop><stop offset="1" stop-color="#fffdfe" stop-opacity="0"></stop></linearGradient><linearGradient id="linear-gradient-2" x1="16.05" y1="48" x2="80.05" y2="48" gradientUnits="userSpaceOnUse"><stop offset="0" stop-color="#1fa6dd"></stop><stop offset="1" stop-color="#51bdb5"></stop></linearGradient></defs><title>porque-elegir_orientado-al-paciente</title><circle class="cls-1" cx="48.05" cy="48" r="48"></circle><circle class="cls-2" cx="48.05" cy="48" r="32"></circle><polygon class="cls-3" points="52.664 68.432 52.201 63.157 44.304 63.254 43.444 68.432 52.664 68.432"></polygon><rect class="cls-3" x="32.219" y="27.421" width="32.018" height="29.989"></rect><rect class="cls-3" x="28.153" y="57.468" width="39.087" height="5.389"></rect><path class="cls-4" d="M54.262,50.012a0.8,0.8,0,0,0-.576-0.235,0.853,0.853,0,0,0-.576.235,0.8,0.8,0,0,0-.235.576,0.854,0.854,0,0,0,.235.576,0.8,0.8,0,0,0,.576.235,0.853,0.853,0,0,0,.576-0.235A0.823,0.823,0,0,0,54.262,50.012Z" transform="translate(0.025 0.061)"></path><path class="cls-4" d="M51.43,50.012a0.8,0.8,0,0,0-.576-0.235,0.853,0.853,0,0,0-.576.235,0.8,0.8,0,0,0-.235.576,0.854,0.854,0,0,0,.235.576,0.8,0.8,0,0,0,.576.235,0.853,0.853,0,0,0,.576-0.235,0.8,0.8,0,0,0,.235-0.576A0.79,0.79,0,0,0,51.43,50.012Z" transform="translate(0.025 0.061)"></path><path class="cls-4" d="M48.6,50.012a0.8,0.8,0,0,0-.576-0.235,0.853,0.853,0,0,0-.576.235,0.8,0.8,0,0,0-.235.576,0.854,0.854,0,0,0,.235.576,0.8,0.8,0,0,0,.576.235,0.853,0.853,0,0,0,.576-0.235A0.823,0.823,0,0,0,48.6,50.012Z" transform="translate(0.025 0.061)"></path><path class="cls-4" d="M45.765,50.012a0.8,0.8,0,0,0-.576-0.235,0.853,0.853,0,0,0-.576.235,0.8,0.8,0,0,0-.235.576,0.854,0.854,0,0,0,.235.576,0.8,0.8,0,0,0,.576.235,0.853,0.853,0,0,0,.576-0.235A0.8,0.8,0,0,0,46,50.589,0.79,0.79,0,0,0,45.765,50.012Z" transform="translate(0.025 0.061)"></path><path class="cls-4" d="M42.932,50.012a0.8,0.8,0,0,0-.576-0.235,0.853,0.853,0,0,0-.576.235,0.8,0.8,0,0,0-.235.576,0.854,0.854,0,0,0,.235.576,0.8,0.8,0,0,0,.576.235,0.853,0.853,0,0,0,.576-0.235A0.823,0.823,0,0,0,42.932,50.012Z" transform="translate(0.025 0.061)"></path><path class="cls-5" d="M28.842,58.331v2.337A1.233,1.233,0,0,0,30.076,61.9h35.89A1.233,1.233,0,0,0,67.2,60.669V58.331H28.842Z" transform="translate(0.025 0.061)"></path><path class="cls-5" d="M30.084,35.566A1.233,1.233,0,0,0,28.851,36.8V56.724h2.159V35.566H30.084Z" transform="translate(0.025 0.061)"></path><path class="cls-5" d="M44.9,63.526a35.577,35.577,0,0,1-.414,4.651h7.061a37.016,37.016,0,0,1-.422-4.651H44.9Z" transform="translate(0.025 0.061)"></path><path class="cls-5" d="M65.487,56.724h1.729V36.8a1.233,1.233,0,0,0-1.234-1.234h-0.95V56.724h0.455Z" transform="translate(0.025 0.061)"></path><rect class="cls-4" x="63.418" y="35.627" width="1.639" height="21.159"></rect><path class="cls-4" d="M32.657,28.253a0.535,0.535,0,0,1,.154-0.373,0.55,0.55,0,0,1,.373-0.154H62.874a0.535,0.535,0,0,1,.373.154,0.55,0.55,0,0,1,.154.373v5.7h1.639v-5.7a2.161,2.161,0,0,0-2.167-2.167H33.185a2.161,2.161,0,0,0-2.167,2.167v5.706h1.639V28.253h0Z" transform="translate(0.025 0.061)"></path><polygon class="cls-4" points="31.043 35.627 31.043 56.786 31.392 56.786 32.682 56.786 32.682 35.627 31.043 35.627"></polygon><path class="cls-4" d="M65.966,33.95H65.032v1.615h0.95A1.233,1.233,0,0,1,67.216,36.8V56.724H65.032v0.519a0.837,0.837,0,0,1-.666.828,0.822,0.822,0,0,1-.974-0.8V56.724H54.652a0.8,0.8,0,0,1,0,1.607H67.2v2.337A1.233,1.233,0,0,1,65.966,61.9H30.076a1.233,1.233,0,0,1-1.234-1.234V58.331H51.957a0.8,0.8,0,0,1,0-1.607h-19.3v0.43a0.82,0.82,0,0,1-1.639,0v-0.43H28.859V36.8a1.233,1.233,0,0,1,1.234-1.234h0.925V33.959H30.084a2.852,2.852,0,0,0-2.849,2.849V60.685a2.852,2.852,0,0,0,2.849,2.849H43.305a31.822,31.822,0,0,1-.446,4.651h-1.94a0.8,0.8,0,0,0,0,1.607h14.2a0.8,0.8,0,0,0,0-1.607H53.191a34.248,34.248,0,0,1-.446-4.651H65.966a2.852,2.852,0,0,0,2.849-2.849V36.8A2.852,2.852,0,0,0,65.966,33.95ZM44.49,68.176a35.584,35.584,0,0,0,.414-4.651h6.225a37.009,37.009,0,0,0,.422,4.651H44.49Z" transform="translate(0.025 0.061)"></path><path class="cls-4" d="M51.154,57.528a0.811,0.811,0,0,0,.8.8h2.7a0.8,0.8,0,0,0,0-1.607h-2.7A0.805,0.805,0,0,0,51.154,57.528Z" transform="translate(0.025 0.061)"></path><path class="cls-4" d="M63.393,57.268a0.822,0.822,0,0,0,.974.8,0.837,0.837,0,0,0,.666-0.828V56.724H63.393v0.544Z" transform="translate(0.025 0.061)"></path><rect class="cls-4" x="31.043" y="34.02" width="1.639" height="1.607"></rect><path class="cls-4" d="M31.018,56.724v0.43a0.82,0.82,0,0,0,1.639,0v-0.43H31.018Z" transform="translate(0.025 0.061)"></path><polygon class="cls-4" points="63.418 35.627 65.057 35.627 65.057 34.012 63.418 34.012 63.418 35.627"></polygon><path class="cls-4" d="M55.147,54.3H40.9a3.7,3.7,0,1,1,0-7.4H55.147A3.7,3.7,0,1,1,55.147,54.3ZM40.9,48.511a2.078,2.078,0,1,0,0,4.155H55.147a2.078,2.078,0,1,0,0-4.155H40.9Z" transform="translate(0.025 0.061)"></path><path class="cls-4" d="M40.449,37.432a7.572,7.572,0,1,0,15.145,0A7.572,7.572,0,1,0,40.449,37.432Zm11.76,4.659a6.3,6.3,0,0,1-8.839-.471,5.386,5.386,0,0,1,9.317,0A6.529,6.529,0,0,1,52.209,42.091Zm-6.136-6.4a1.948,1.948,0,1,1,1.948,1.948h0A1.954,1.954,0,0,1,46.073,35.7Zm8.23,1.737a6.19,6.19,0,0,1-.8,3.052,6.6,6.6,0,0,0-3.238-2.443,3.249,3.249,0,1,0-4.594-.114l0.114,0.114a6.6,6.6,0,0,0-3.238,2.443A6.275,6.275,0,1,1,54.3,37.432h0Z" transform="translate(0.025 0.061)"></path><polygon class="cls-6" points="93.321 77.581 93.321 79.093 91.809 79.093 91.809 80.259 93.321 80.259 93.321 81.772 94.487 81.772 94.487 80.259 96 80.259 96 79.093 94.487 79.093 94.487 77.581 93.321 77.581"></polygon><polygon class="cls-4" points="89.213 88.782 89.213 91.431 86.564 91.431 86.564 93.473 89.213 93.473 89.213 96.123 91.255 96.123 91.255 93.473 93.904 93.473 93.904 91.431 91.255 91.431 91.255 88.782 89.213 88.782"></polygon><polygon class="cls-7" points="84.108 81.992 84.108 83.97 82.129 83.97 82.129 85.495 84.108 85.495 84.108 87.473 85.633 87.473 85.633 85.495 87.611 85.495 87.611 83.97 85.633 83.97 85.633 81.992 84.108 81.992"></polygon><polygon class="cls-8" points="13.85 18.336 13.85 12.802 19.384 12.802 19.384 8.536 13.85 8.536 13.85 3.001 9.584 3.001 9.584 8.536 4.049 8.536 4.049 12.802 9.584 12.802 9.584 18.336 13.85 18.336"></polygon><polygon class="cls-9" points="2.588 4.172 2.588 2.71 4.049 2.71 4.049 1.584 2.588 1.584 2.588 0.123 1.461 0.123 1.461 1.584 0 1.584 0 2.71 1.461 2.71 1.461 4.172 2.588 4.172"></polygon></svg>