<svg width="150" height="150" viewBox="0 0 150 150" fill="none" xmlns="http://www.w3.org/2000/svg">
<path d="M18.816 61.6859C18.816 61.6859 14.667 79.9859 26.658 96.0269C38.649 112.068 59.4 118.41 76.101 123.99C92.802 129.57 108.351 123.357 114.111 109.332C119.871 95.3069 108 87.6509 105.273 69.2639C102.546 50.8769 104.592 45.5999 92.346 31.5329C80.1 17.4659 55.146 17.6339 38.379 31.8839C21.612 46.1339 18.816 61.6859 18.816 61.6859Z" fill="#92E3A9"/>
<path opacity="0.7" d="M18.816 61.6859C18.816 61.6859 14.667 79.9859 26.658 96.0269C38.649 112.068 59.4 118.41 76.101 123.99C92.802 129.57 108.351 123.357 114.111 109.332C119.871 95.3069 108 87.6509 105.273 69.2639C102.546 50.8769 104.592 45.5999 92.346 31.5329C80.1 17.4659 55.146 17.6339 38.379 31.8839C21.612 46.1339 18.816 61.6859 18.816 61.6859Z" fill="white"/>
<path d="M116.253 37.362C116.253 37.362 116.553 35.808 114.804 33.204C113.055 30.6 111.9 29.082 111.9 29.082C111.9 29.082 110.1 32.448 111.708 35.022C112.896 36.8445 114.235 38.5645 115.71 40.164L116.253 37.362Z" fill="#92E3A9"/>
<path d="M111.192 46.4609C111.192 46.4609 111.492 44.9069 109.743 42.3029C107.994 39.6989 106.833 38.1809 106.833 38.1809C106.833 38.1809 105.033 41.5469 106.644 44.1179C107.832 45.9417 109.171 47.6628 110.646 49.2629L111.192 46.4609Z" fill="#92E3A9"/>
<path d="M115.596 39.9871C115.596 39.9871 116.064 38.4871 118.839 37.0051C121.614 35.5231 123.339 34.7461 123.339 34.7461C123.339 34.7461 123.339 38.5561 120.705 40.0711C118.796 41.1155 116.803 41.9996 114.747 42.7141L115.596 39.9871Z" fill="#92E3A9"/>
<path d="M109.536 50.7151C109.536 50.7151 110.16 49.2571 113.073 48.0901C115.986 46.9231 117.795 46.3171 117.795 46.3171C117.795 46.3171 117.384 50.1061 114.615 51.3361C112.608 52.1756 110.533 52.8449 108.414 53.3371L109.536 50.7151Z" fill="#92E3A9"/>
<path d="M107.808 63.366C107.808 63.366 108.108 61.809 110.718 60.066C113.328 58.323 114.963 57.342 114.963 57.342C114.963 57.342 115.353 61.134 112.905 62.916C111.119 64.1585 109.231 65.2483 107.262 66.174L107.808 63.366Z" fill="#92E3A9"/>
<path d="M107.175 66.4111C107.175 66.4111 107.697 64.9111 106.335 62.0881C104.973 59.2651 104.04 57.5881 104.04 57.5881C104.04 57.5881 101.79 60.6631 103.005 63.4381C103.922 65.4113 105.003 67.3039 106.236 69.0961L107.175 66.4111Z" fill="#92E3A9"/>
<path d="M103.26 75.042C103.26 75.042 103.56 73.488 106.167 71.742C108.774 69.996 110.415 69 110.415 69C110.415 69 110.805 72.789 108.357 74.574C106.57 75.8152 104.682 76.905 102.714 77.832L103.26 75.042Z" fill="#92E3A9"/>
<path d="M103.11 83.5321C103.11 83.5321 103.011 81.9511 105.087 79.5961C107.163 77.2411 108.504 75.9001 108.504 75.9001C108.504 75.9001 109.842 79.4671 107.925 81.8131C106.511 83.4672 104.96 84.9996 103.29 86.3941L103.11 83.5321Z" fill="#92E3A9"/>
<path d="M116.526 37.002C116.1 38.601 115.586 40.1754 114.987 41.718C113.256 45.999 110.544 48.447 108.897 52.296C107.25 56.145 108.711 61.806 107.04 66.837C105.369 71.868 102.801 74.337 102.702 77.901C102.603 81.465 103.8 91.374 103.8 91.374" stroke="#263238" stroke-width="0.5" stroke-linecap="round" stroke-linejoin="round"/>
<path d="M115.374 41.016L118.074 39.675" stroke="#263238" stroke-width="0.5" stroke-linecap="round" stroke-linejoin="round"/>
<path d="M115.887 38.9641L115.248 37.0261" stroke="#263238" stroke-width="0.5" stroke-linecap="round" stroke-linejoin="round"/>
<path d="M109.062 52.137C109.062 52.137 111.318 51.048 113.625 49.968" stroke="#263238" stroke-width="0.5" stroke-linecap="round" stroke-linejoin="round"/>
<path d="M110.646 49.2629C110.646 49.2629 109.635 45.7319 108.195 43.2419" stroke="#263238" stroke-width="0.5" stroke-linecap="round" stroke-linejoin="round"/>
<path d="M107.454 65.5949C108.979 63.7467 110.765 62.1298 112.755 60.7949" stroke="#263238" stroke-width="0.5" stroke-linecap="round" stroke-linejoin="round"/>
<path d="M106.644 67.7041C106.321 66.1832 105.871 64.692 105.3 63.2461C104.484 61.3321 104.364 61.0801 104.364 61.0801" stroke="#263238" stroke-width="0.5" stroke-linecap="round" stroke-linejoin="round"/>
<path d="M102.702 77.901C103.441 76.7621 104.266 75.6818 105.171 74.67C106.059 73.7403 107.022 72.8854 108.051 72.114" stroke="#263238" stroke-width="0.5" stroke-linecap="round" stroke-linejoin="round"/>
<path d="M103.29 86.3791C103.408 85.1765 103.844 84.0271 104.553 83.0491C105.681 81.6241 107.016 79.7341 107.553 78.9871" stroke="#263238" stroke-width="0.5" stroke-linecap="round" stroke-linejoin="round"/>
<path d="M97.929 55.362C97.929 55.362 97.95 54.351 99.393 52.962C100.836 51.573 101.76 50.793 101.76 50.793C101.76 50.793 102.417 53.127 101.073 54.51C100.088 55.4835 99.0236 56.3726 97.89 57.168L97.929 55.362Z" fill="#92E3A9"/>
<path d="M99.84 61.704C99.84 61.704 99.864 60.696 101.304 59.304C102.744 57.912 103.674 57.135 103.674 57.135C103.674 57.135 104.328 59.469 102.987 60.855C102.001 61.8275 100.935 62.7156 99.801 63.51L99.84 61.704Z" fill="#92E3A9"/>
<path d="M97.98 57.081C97.98 57.081 97.896 56.076 96.369 54.786C94.842 53.496 93.87 52.77 93.87 52.77C93.87 52.77 93.36 55.143 94.788 56.439C95.8329 57.3477 96.9518 58.1675 98.133 58.89L97.98 57.081Z" fill="#92E3A9"/>
<path d="M100.296 64.572C100.296 64.572 100.104 63.582 98.4509 62.472C96.7979 61.362 95.7509 60.729 95.7509 60.729C95.7509 60.729 95.4959 63.129 97.0499 64.281C98.1844 65.0796 99.3836 65.782 100.635 66.381L100.296 64.572Z" fill="#92E3A9"/>
<path d="M99.654 72.6721C99.654 72.6721 99.675 71.6641 98.295 70.2211C96.915 68.7781 96.024 67.9531 96.024 67.9531C96.024 67.9531 95.268 70.2571 96.546 71.6971C97.4894 72.7112 98.5159 73.6444 99.615 74.4871L99.654 72.6721Z" fill="#92E3A9"/>
<path d="M99.636 74.6521C99.636 74.6521 99.513 73.6531 100.746 72.0781C101.979 70.5031 102.78 69.6001 102.78 69.6001C102.78 69.6001 103.761 71.8171 102.63 73.3771C101.793 74.4797 100.864 75.5103 99.855 76.4581L99.636 74.6521Z" fill="#92E3A9"/>
<path d="M100.83 83.0579C100.83 83.0579 101.13 82.0949 102.909 81.1769C104.688 80.2589 105.792 79.7639 105.792 79.7639C105.792 79.7639 105.765 82.1879 104.088 83.1359C102.867 83.7925 101.594 84.3454 100.281 84.7889L100.83 83.0579Z" fill="#92E3A9"/>
<path d="M100.902 80.5501C100.902 80.5501 100.923 79.542 99.5399 78.099C98.1569 76.656 97.2689 75.8311 97.2689 75.8311C97.2689 75.8311 96.5129 78.1351 97.7939 79.5751C98.7372 80.5891 99.7638 81.5224 100.863 82.365L100.902 80.5501Z" fill="#92E3A9"/>
<path d="M99.8429 85.848C99.8429 85.848 100.119 84.879 99.1499 83.133C98.1809 81.387 97.5269 80.364 97.5269 80.364C97.5269 80.364 96.2099 82.401 97.0859 84.12C97.7404 85.3411 98.496 86.5052 99.3449 87.6L99.8429 85.848Z" fill="#92E3A9"/>
<path d="M97.7999 55.0981C97.8484 56.1502 97.9546 57.1987 98.1179 58.2391C98.6159 61.1341 99.9689 63.0391 100.473 65.6431C100.977 68.2471 99.2999 71.5801 99.6569 74.9431C100.014 78.3061 101.274 80.1841 100.857 82.4101C100.44 84.6361 98.3549 90.6391 98.3549 90.6391" stroke="#263238" stroke-width="0.5" stroke-linecap="round" stroke-linejoin="round"/>
<path d="M97.98 57.75L96.483 56.55" stroke="#263238" stroke-width="0.5" stroke-linecap="round" stroke-linejoin="round"/>
<path d="M97.938 56.4061L98.598 55.2871" stroke="#263238" stroke-width="0.5" stroke-linecap="round" stroke-linejoin="round"/>
<path d="M100.395 65.5199C100.395 65.5199 99.144 64.5389 97.854 63.5549" stroke="#263238" stroke-width="0.5" stroke-linecap="round" stroke-linejoin="round"/>
<path d="M99.801 63.519C100.463 62.3046 101.247 61.1607 102.141 60.105" stroke="#263238" stroke-width="0.5" stroke-linecap="round" stroke-linejoin="round"/>
<path d="M99.573 74.0999C98.8754 72.744 97.984 71.497 96.927 70.3979" stroke="#263238" stroke-width="0.5" stroke-linecap="round" stroke-linejoin="round"/>
<path d="M99.792 75.528C100.197 74.6267 100.677 73.7608 101.226 72.939C101.994 71.859 102.102 71.718 102.102 71.718" stroke="#263238" stroke-width="0.5" stroke-linecap="round" stroke-linejoin="round"/>
<path d="M100.455 84.0751C101.128 83.5124 101.85 83.0105 102.612 82.5751C103.087 82.3512 103.543 82.0883 103.974 81.7891" stroke="#263238" stroke-width="0.5" stroke-linecap="round" stroke-linejoin="round"/>
<path d="M100.86 82.4041C100.556 81.5951 100.19 80.8107 99.765 80.0581C99.3381 79.3605 98.8545 78.6992 98.319 78.0811" stroke="#263238" stroke-width="0.5" stroke-linecap="round" stroke-linejoin="round"/>
<path d="M99.3449 87.6C99.4362 86.8366 99.3212 86.0628 99.012 85.359C98.505 84.321 97.9319 82.959 97.6949 82.428" stroke="#263238" stroke-width="0.5" stroke-linecap="round" stroke-linejoin="round"/>
<path d="M25.446 76.4639C25.446 76.4639 24.972 75.0929 22.392 73.8419C19.812 72.5909 18.192 71.9189 18.192 71.9189C18.192 71.9189 18.324 75.3989 20.766 76.6979C22.5414 77.5942 24.3889 78.3398 26.289 78.9269L25.446 76.4639Z" fill="#92E3A9"/>
<path d="M25.623 85.974C25.623 85.974 25.149 84.606 22.569 83.352C19.989 82.098 18.369 81.429 18.369 81.429C18.369 81.429 18.501 84.909 20.943 86.211C22.7188 87.1055 24.5662 87.8501 26.466 88.437L25.623 85.974Z" fill="#92E3A9"/>
<path d="M26.1329 78.837C26.1329 78.837 25.8059 77.424 27.3329 74.991C28.8599 72.558 29.8619 71.136 29.8619 71.136C29.8619 71.136 31.5989 74.154 30.2219 76.554C29.1941 78.2561 28.025 79.8688 26.7269 81.375L26.1329 78.837Z" fill="#92E3A9"/>
<path d="M26.2649 90.0961C26.2649 90.0961 26.0879 88.6561 27.8549 86.3971C29.6219 84.1381 30.7739 82.8301 30.7739 82.8301C30.7739 82.8301 32.1869 86.0131 30.5639 88.2541C29.3623 89.8382 28.0307 91.3193 26.5829 92.6821L26.2649 90.0961Z" fill="#92E3A9"/>
<path d="M30.7049 100.884C30.7049 100.884 30.2309 99.516 31.4849 96.936C32.7389 94.356 33.5849 92.835 33.5849 92.835C33.5849 92.835 35.6339 95.652 34.5179 98.184C33.6759 99.9848 32.6844 101.712 31.5539 103.347L30.7049 100.884Z" fill="#92E3A9"/>
<path d="M31.605 103.581C31.605 103.581 31.329 102.159 28.953 100.551C26.577 98.9429 25.08 98.0549 25.08 98.0549C25.08 98.0549 24.714 101.517 26.949 103.155C28.5782 104.297 30.3002 105.3 32.097 106.155L31.605 103.581Z" fill="#92E3A9"/>
<path d="M32.469 112.2C32.469 112.2 31.995 110.829 33.249 108.249C34.503 105.669 35.349 104.148 35.349 104.148C35.349 104.148 37.398 106.965 36.282 109.497C35.4386 111.299 34.4462 113.027 33.315 114.663L32.469 112.2Z" fill="#92E3A9"/>
<path d="M36.249 118.974C36.249 118.974 35.442 117.774 36.003 114.957C36.564 112.14 37.002 110.457 37.002 110.457C37.002 110.457 39.702 112.665 39.255 115.395C38.8966 117.351 38.3748 119.274 37.695 121.143L36.249 118.974Z" fill="#92E3A9"/>
<path d="M25.5 76.053C25.8975 77.5114 26.214 78.9906 26.448 80.484C27.048 84.66 26.022 87.84 26.49 91.638C26.958 95.436 30.69 99.237 31.695 103.98C32.7 108.723 31.791 111.858 33.342 114.714C34.893 117.57 40.389 124.86 40.389 124.86" stroke="#263238" stroke-width="0.5" stroke-linecap="round" stroke-linejoin="round"/>
<path d="M26.427 79.7521L27.945 77.4541" stroke="#263238" stroke-width="0.5" stroke-linecap="round" stroke-linejoin="round"/>
<path d="M25.893 77.895L24.495 76.656" stroke="#263238" stroke-width="0.5" stroke-linecap="round" stroke-linejoin="round"/>
<path d="M26.5439 91.4371C26.5439 91.4371 27.8249 89.5411 29.1539 87.6301" stroke="#263238" stroke-width="0.5" stroke-linecap="round" stroke-linejoin="round"/>
<path d="M26.475 88.437C26.475 88.437 24.057 86.1 21.777 84.804" stroke="#263238" stroke-width="0.5" stroke-linecap="round" stroke-linejoin="round"/>
<path d="M31.449 102.807C31.8056 100.647 32.4746 98.5497 33.435 96.582" stroke="#263238" stroke-width="0.5" stroke-linecap="round" stroke-linejoin="round"/>
<path d="M31.7759 104.844C30.8242 103.792 29.7866 102.82 28.6739 101.94C27.1499 100.8 26.9399 100.656 26.9399 100.656" stroke="#263238" stroke-width="0.5" stroke-linecap="round" stroke-linejoin="round"/>
<path d="M33.339 114.714C33.4017 113.475 33.5581 112.242 33.807 111.027C34.0835 109.89 34.4528 108.777 34.911 107.7" stroke="#263238" stroke-width="0.5" stroke-linecap="round" stroke-linejoin="round"/>
<path d="M37.695 121.143C37.2364 120.139 37.0532 119.031 37.164 117.933C37.404 116.289 37.59 114.183 37.674 113.346" stroke="#263238" stroke-width="0.5" stroke-linecap="round" stroke-linejoin="round"/>
<path d="M19.224 99.0929C19.224 99.0929 18.777 98.2859 19.284 96.5309C19.791 94.7759 20.16 93.7319 20.16 93.7319C20.16 93.7319 21.75 95.2769 21.324 96.9839C20.9909 98.205 20.5564 99.3962 20.025 100.545L19.224 99.0929Z" fill="#92E3A9"/>
<path d="M23.646 103.227C23.646 103.227 23.202 102.42 23.706 100.665C24.21 98.91 24.582 97.866 24.582 97.866C24.582 97.866 26.172 99.411 25.746 101.118C25.4148 102.339 24.9813 103.53 24.45 104.679L23.646 103.227Z" fill="#92E3A9"/>
<path d="M20.055 100.428C20.055 100.428 19.527 99.672 17.727 99.354C15.927 99.036 14.829 98.907 14.829 98.907C14.829 98.907 15.516 101.007 17.229 101.385C18.4725 101.625 19.7339 101.759 21 101.787L20.055 100.428Z" fill="#92E3A9"/>
<path d="M25.323 105.3C25.323 105.3 24.723 104.604 22.896 104.478C21.069 104.352 19.965 104.34 19.965 104.34C19.965 104.34 20.865 106.362 22.62 106.551C23.8808 106.656 25.1481 106.656 26.409 106.551L25.323 105.3Z" fill="#92E3A9"/>
<path d="M28.533 111.981C28.533 111.981 28.086 111.174 26.334 110.667C24.582 110.16 23.496 109.917 23.496 109.917C23.496 109.917 23.958 112.086 25.629 112.635C26.8394 113.004 28.0788 113.271 29.334 113.433L28.533 111.981Z" fill="#92E3A9"/>
<path d="M29.4269 113.553C29.4269 113.553 28.8719 112.818 29.1269 111.012C29.3819 109.206 29.5979 108.114 29.5979 108.114C29.5979 108.114 31.3979 109.416 31.2119 111.171C31.0567 112.427 30.7957 113.667 30.4319 114.879L29.4269 113.553Z" fill="#92E3A9"/>
<path d="M34.227 119.646C34.227 119.646 34.029 118.746 35.007 117.207C35.985 115.668 36.636 114.765 36.636 114.765C36.636 114.765 37.728 116.697 36.837 118.215C36.1743 119.294 35.4217 120.314 34.587 121.266L34.227 119.646Z" fill="#92E3A9"/>
<path d="M33.132 117.633C33.132 117.633 32.688 116.826 30.933 116.322C29.178 115.818 28.098 115.569 28.098 115.569C28.098 115.569 28.557 117.738 30.231 118.29C31.4412 118.663 32.6806 118.934 33.936 119.1L33.132 117.633Z" fill="#92E3A9"/>
<path d="M34.728 122.307C34.728 122.307 34.503 121.407 32.928 120.48C31.353 119.553 30.375 119.034 30.375 119.034C30.375 119.034 30.27 121.248 31.749 122.205C32.8262 122.868 33.9572 123.44 35.13 123.915L34.728 122.307Z" fill="#92E3A9"/>
<path d="M19.0079 98.9431C19.5295 99.751 20.0943 100.53 20.6999 101.277C22.4219 103.338 24.3599 104.211 25.9589 106.047C27.5579 107.883 27.7589 111.279 29.5769 113.766C31.3949 116.253 33.2639 117.165 33.9509 119.118C34.6379 121.071 35.7509 126.768 35.7509 126.768" stroke="#263238" stroke-width="0.5" stroke-linecap="round" stroke-linejoin="round"/>
<path d="M20.361 100.959L18.627 100.695" stroke="#263238" stroke-width="0.5" stroke-linecap="round" stroke-linejoin="round"/>
<path d="M19.71 99.9121L19.719 98.7271" stroke="#263238" stroke-width="0.5" stroke-linecap="round" stroke-linejoin="round"/>
<path d="M25.836 105.99C25.836 105.99 24.396 105.789 22.926 105.603" stroke="#263238" stroke-width="0.5" stroke-linecap="round" stroke-linejoin="round"/>
<path d="M24.45 104.679C24.4146 103.417 24.5091 102.154 24.732 100.911" stroke="#263238" stroke-width="0.5" stroke-linecap="round" stroke-linejoin="round"/>
<path d="M29.127 113.151C27.9523 112.4 26.675 111.823 25.335 111.438" stroke="#263238" stroke-width="0.5" stroke-linecap="round" stroke-linejoin="round"/>
<path d="M29.952 114.174C29.8585 113.277 29.8404 112.374 29.898 111.474C30.009 110.274 30.03 110.109 30.03 110.109" stroke="#263238" stroke-width="0.5" stroke-linecap="round" stroke-linejoin="round"/>
<path d="M34.3979 120.621C34.6671 119.866 35.0024 119.136 35.3999 118.44C35.6715 118.044 35.9112 117.626 36.1169 117.192" stroke="#263238" stroke-width="0.5" stroke-linecap="round" stroke-linejoin="round"/>
<path d="M33.951 119.118C33.3396 118.619 32.6907 118.167 32.01 117.768C31.3515 117.413 30.6653 117.112 29.958 116.868" stroke="#263238" stroke-width="0.5" stroke-linecap="round" stroke-linejoin="round"/>
<path d="M35.136 123.915C34.8566 123.27 34.4103 122.71 33.843 122.295C32.967 121.71 31.89 120.9 31.443 120.585" stroke="#263238" stroke-width="0.5" stroke-linecap="round" stroke-linejoin="round"/>
<path d="M105.072 81.1799H83.9489C83.2017 81.1799 82.5959 81.7857 82.5959 82.5329V128.094C82.5959 128.841 83.2017 129.447 83.9489 129.447H105.072C105.819 129.447 106.425 128.841 106.425 128.094V82.5329C106.425 81.7857 105.819 81.1799 105.072 81.1799Z" fill="white" stroke="#263238" stroke-width="1.01" stroke-linecap="round" stroke-linejoin="round"/>
<path d="M104.433 87.5129H84.5909C83.8437 87.5129 83.2379 88.1187 83.2379 88.8659V126.942C83.2379 127.689 83.8437 128.295 84.5909 128.295H104.433C105.18 128.295 105.786 127.689 105.786 126.942V88.8659C105.786 88.1187 105.18 87.5129 104.433 87.5129Z" fill="#92E3A9"/>
<path opacity="0.5" d="M104.433 87.5129H84.5909C83.8437 87.5129 83.2379 88.1187 83.2379 88.8659V126.942C83.2379 127.689 83.8437 128.295 84.5909 128.295H104.433C105.18 128.295 105.786 127.689 105.786 126.942V88.8659C105.786 88.1187 105.18 87.5129 104.433 87.5129Z" fill="white"/>
<path d="M100.182 70.77H88.845V81.18H100.182V70.77Z" fill="#263238" stroke="#263238" stroke-width="1.01" stroke-linecap="round" stroke-linejoin="round"/>
<path d="M89.7899 71.7991V80.0581" stroke="white" stroke-width="1.01" stroke-linecap="round" stroke-linejoin="round"/>
<path d="M91.542 71.7991V80.0581" stroke="white" stroke-width="1.01" stroke-linecap="round" stroke-linejoin="round"/>
<path d="M94.0439 74.427V80.058" stroke="white" stroke-width="1.01" stroke-linecap="round" stroke-linejoin="round"/>
<path d="M94.0439 71.7991V73.1761" stroke="white" stroke-width="1.01" stroke-linecap="round" stroke-linejoin="round"/>
<path d="M105.066 91.4221H83.9579V114.717H105.066V91.4221Z" fill="white"/>
<path d="M94.371 111.489C98.6887 111.489 102.189 107.989 102.189 103.671C102.189 99.3533 98.6887 95.853 94.371 95.853C90.0532 95.853 86.553 99.3533 86.553 103.671C86.553 107.989 90.0532 111.489 94.371 111.489Z" fill="#263238"/>
<path d="M95.8019 98.292H92.9399V109.05H95.8019V98.292Z" fill="#92E3A9"/>
<path d="M99.75 105.102V102.24H88.992V105.102H99.75Z" fill="#92E3A9"/>
<path d="M127.374 107.37H94.143C93.356 107.37 92.718 108.008 92.718 108.795V128.124C92.718 128.911 93.356 129.549 94.143 129.549H127.374C128.161 129.549 128.799 128.911 128.799 128.124V108.795C128.799 108.008 128.161 107.37 127.374 107.37Z" fill="white" stroke="#263238" stroke-linecap="round" stroke-linejoin="round"/>
<path d="M96.171 117C95.8177 117 95.4789 116.86 95.2291 116.61C94.9793 116.36 94.839 116.021 94.839 115.668V112.068C94.8386 111.893 94.8728 111.719 94.9395 111.558C95.0063 111.396 95.1043 111.248 95.2281 111.124C95.3518 111 95.4988 110.902 95.6606 110.835C95.8224 110.768 95.9958 110.733 96.171 110.733C96.5251 110.733 96.8646 110.874 97.115 111.124C97.3653 111.375 97.506 111.714 97.506 112.068V115.668C97.506 115.843 97.4714 116.017 97.4043 116.179C97.3372 116.34 97.2388 116.487 97.1148 116.611C96.9908 116.735 96.8436 116.833 96.6816 116.9C96.5197 116.966 96.3462 117.001 96.171 117Z" fill="#263238" stroke="#263238" stroke-width="1.01" stroke-linecap="round" stroke-linejoin="round"/>
<path d="M97.074 111.945V114.177" stroke="white" stroke-width="1.01" stroke-linecap="round" stroke-linejoin="round"/>
<path d="M97.074 114.753V115.977" stroke="white" stroke-width="1.01" stroke-linecap="round" stroke-linejoin="round"/>
<path d="M102 117C101.647 117 101.308 116.86 101.058 116.61C100.808 116.36 100.668 116.021 100.668 115.668V112.068C100.668 111.893 100.702 111.719 100.769 111.558C100.835 111.396 100.933 111.248 101.057 111.124C101.181 111 101.328 110.902 101.49 110.835C101.651 110.768 101.825 110.733 102 110.733C102.175 110.733 102.349 110.768 102.51 110.835C102.672 110.902 102.819 111 102.943 111.124C103.067 111.248 103.165 111.396 103.231 111.558C103.298 111.719 103.332 111.893 103.332 112.068V115.668C103.332 116.021 103.192 116.36 102.942 116.61C102.692 116.86 102.353 117 102 117Z" fill="#263238" stroke="#263238" stroke-width="1.01" stroke-linecap="round" stroke-linejoin="round"/>
<path d="M102.906 111.945V114.177" stroke="white" stroke-width="1.01" stroke-linecap="round" stroke-linejoin="round"/>
<path d="M102.906 114.753V115.977" stroke="white" stroke-width="1.01" stroke-linecap="round" stroke-linejoin="round"/>
<path d="M107.841 117C107.488 117 107.149 116.86 106.899 116.61C106.649 116.36 106.509 116.021 106.509 115.668V112.068C106.509 111.893 106.543 111.719 106.61 111.558C106.676 111.396 106.774 111.248 106.898 111.124C107.022 111 107.169 110.902 107.331 110.835C107.492 110.768 107.666 110.733 107.841 110.733C108.016 110.733 108.19 110.768 108.351 110.835C108.513 110.902 108.66 111 108.784 111.124C108.908 111.248 109.006 111.396 109.073 111.558C109.139 111.719 109.173 111.893 109.173 112.068V115.668C109.173 116.021 109.033 116.36 108.783 116.61C108.533 116.86 108.194 117 107.841 117Z" fill="#263238" stroke="#263238" stroke-width="1.01" stroke-linecap="round" stroke-linejoin="round"/>
<path d="M108.741 111.945V114.177" stroke="white" stroke-width="1.01" stroke-linecap="round" stroke-linejoin="round"/>
<path d="M108.741 114.753V115.977" stroke="white" stroke-width="1.01" stroke-linecap="round" stroke-linejoin="round"/>
<path d="M113.676 117C113.323 117 112.984 116.86 112.734 116.61C112.484 116.36 112.344 116.021 112.344 115.668V112.068C112.344 111.893 112.378 111.719 112.445 111.558C112.511 111.396 112.609 111.248 112.733 111.124C112.857 111 113.004 110.902 113.166 110.835C113.327 110.768 113.501 110.733 113.676 110.733C113.851 110.733 114.025 110.768 114.186 110.835C114.348 110.902 114.495 111 114.619 111.124C114.743 111.248 114.841 111.396 114.907 111.558C114.974 111.719 115.008 111.893 115.008 112.068V115.668C115.008 116.021 114.868 116.36 114.618 116.61C114.368 116.86 114.029 117 113.676 117Z" fill="#263238" stroke="#263238" stroke-width="1.01" stroke-linecap="round" stroke-linejoin="round"/>
<path d="M114.576 111.945V114.177" stroke="white" stroke-width="1.01" stroke-linecap="round" stroke-linejoin="round"/>
<path d="M114.576 114.753V115.977" stroke="white" stroke-width="1.01" stroke-linecap="round" stroke-linejoin="round"/>
<path d="M119.511 117C119.336 117.001 119.162 116.966 119 116.9C118.838 116.833 118.691 116.735 118.567 116.611C118.443 116.487 118.345 116.34 118.278 116.179C118.211 116.017 118.176 115.843 118.176 115.668V112.068C118.176 111.714 118.317 111.375 118.567 111.124C118.817 110.874 119.157 110.733 119.511 110.733C119.686 110.733 119.86 110.768 120.021 110.835C120.183 110.902 120.33 111 120.454 111.124C120.578 111.248 120.676 111.396 120.742 111.558C120.809 111.719 120.843 111.893 120.843 112.068V115.668C120.843 116.021 120.703 116.36 120.453 116.61C120.203 116.86 119.864 117 119.511 117Z" fill="#263238" stroke="#263238" stroke-width="1.01" stroke-linecap="round" stroke-linejoin="round"/>
<path d="M120.411 111.945V114.177" stroke="white" stroke-width="1.01" stroke-linecap="round" stroke-linejoin="round"/>
<path d="M120.411 114.753V115.977" stroke="white" stroke-width="1.01" stroke-linecap="round" stroke-linejoin="round"/>
<path d="M125.343 117C124.99 117 124.651 116.86 124.401 116.61C124.151 116.36 124.011 116.021 124.011 115.668V112.068C124.011 111.893 124.045 111.719 124.112 111.558C124.178 111.396 124.276 111.248 124.4 111.124C124.524 111 124.671 110.902 124.833 110.835C124.994 110.768 125.168 110.733 125.343 110.733C125.518 110.733 125.692 110.768 125.853 110.835C126.015 110.902 126.162 111 126.286 111.124C126.41 111.248 126.508 111.396 126.574 111.558C126.641 111.719 126.675 111.893 126.675 112.068V115.668C126.675 116.021 126.535 116.36 126.285 116.61C126.035 116.86 125.696 117 125.343 117Z" fill="#263238" stroke="#263238" stroke-width="1.01" stroke-linecap="round" stroke-linejoin="round"/>
<path d="M126.243 111.945V114.177" stroke="white" stroke-width="1.01" stroke-linecap="round" stroke-linejoin="round"/>
<path d="M126.243 114.753V115.977" stroke="white" stroke-width="1.01" stroke-linecap="round" stroke-linejoin="round"/>
<path d="M96.171 126.564C95.8177 126.564 95.4789 126.424 95.2291 126.174C94.9793 125.924 94.839 125.585 94.839 125.232V121.632C94.839 121.279 94.9793 120.94 95.2291 120.69C95.4789 120.44 95.8177 120.3 96.171 120.3C96.3462 120.3 96.5197 120.334 96.6816 120.401C96.8436 120.467 96.9908 120.565 97.1148 120.689C97.2388 120.813 97.3372 120.96 97.4043 121.122C97.4714 121.283 97.506 121.457 97.506 121.632V125.232C97.506 125.407 97.4714 125.581 97.4043 125.742C97.3372 125.904 97.2388 126.051 97.1148 126.175C96.9908 126.299 96.8436 126.397 96.6816 126.464C96.5197 126.53 96.3462 126.564 96.171 126.564Z" fill="#263238" stroke="#263238" stroke-width="1.01" stroke-linecap="round" stroke-linejoin="round"/>
<path d="M97.074 121.524V123.756" stroke="white" stroke-width="1.01" stroke-linecap="round" stroke-linejoin="round"/>
<path d="M97.074 124.332V125.556" stroke="white" stroke-width="1.01" stroke-linecap="round" stroke-linejoin="round"/>
<path d="M102 126.564C101.647 126.564 101.308 126.424 101.058 126.174C100.808 125.924 100.668 125.585 100.668 125.232V121.632C100.668 121.279 100.808 120.94 101.058 120.69C101.308 120.44 101.647 120.3 102 120.3C102.175 120.3 102.348 120.334 102.51 120.401C102.672 120.467 102.819 120.566 102.943 120.689C103.066 120.813 103.165 120.96 103.231 121.122C103.298 121.284 103.332 121.457 103.332 121.632V125.232C103.332 125.407 103.298 125.58 103.231 125.742C103.165 125.904 103.066 126.051 102.943 126.175C102.819 126.299 102.672 126.397 102.51 126.463C102.348 126.53 102.175 126.564 102 126.564Z" fill="#263238" stroke="#263238" stroke-width="1.01" stroke-linecap="round" stroke-linejoin="round"/>
<path d="M102.906 121.524V123.756" stroke="white" stroke-width="1.01" stroke-linecap="round" stroke-linejoin="round"/>
<path d="M102.906 124.332V125.556" stroke="white" stroke-width="1.01" stroke-linecap="round" stroke-linejoin="round"/>
<path d="M107.841 126.564C107.488 126.564 107.149 126.424 106.899 126.174C106.649 125.924 106.509 125.585 106.509 125.232V121.632C106.509 121.279 106.649 120.94 106.899 120.69C107.149 120.44 107.488 120.3 107.841 120.3C108.194 120.3 108.533 120.44 108.783 120.69C109.033 120.94 109.173 121.279 109.173 121.632V125.232C109.173 125.585 109.033 125.924 108.783 126.174C108.533 126.424 108.194 126.564 107.841 126.564Z" fill="#263238" stroke="#263238" stroke-width="1.01" stroke-linecap="round" stroke-linejoin="round"/>
<path d="M108.741 121.524V123.756" stroke="white" stroke-width="1.01" stroke-linecap="round" stroke-linejoin="round"/>
<path d="M108.741 124.332V125.556" stroke="white" stroke-width="1.01" stroke-linecap="round" stroke-linejoin="round"/>
<path d="M113.676 126.564C113.501 126.564 113.328 126.53 113.166 126.463C113.004 126.397 112.857 126.299 112.733 126.175C112.609 126.051 112.511 125.904 112.445 125.742C112.378 125.58 112.344 125.407 112.344 125.232V121.632C112.344 121.457 112.378 121.284 112.445 121.122C112.511 120.96 112.609 120.813 112.733 120.689C112.857 120.566 113.004 120.467 113.166 120.401C113.328 120.334 113.501 120.3 113.676 120.3C114.029 120.3 114.368 120.44 114.618 120.69C114.868 120.94 115.008 121.279 115.008 121.632V125.232C115.008 125.585 114.868 125.924 114.618 126.174C114.368 126.424 114.029 126.564 113.676 126.564Z" fill="#263238" stroke="#263238" stroke-width="1.01" stroke-linecap="round" stroke-linejoin="round"/>
<path d="M114.576 121.524V123.756" stroke="white" stroke-width="1.01" stroke-linecap="round" stroke-linejoin="round"/>
<path d="M114.576 124.332V125.556" stroke="white" stroke-width="1.01" stroke-linecap="round" stroke-linejoin="round"/>
<path d="M119.511 126.564C119.336 126.564 119.162 126.53 119 126.464C118.838 126.397 118.691 126.299 118.567 126.175C118.443 126.051 118.345 125.904 118.278 125.742C118.211 125.581 118.176 125.407 118.176 125.232V121.632C118.176 121.457 118.211 121.283 118.278 121.122C118.345 120.96 118.443 120.813 118.567 120.689C118.691 120.565 118.838 120.467 119 120.401C119.162 120.334 119.336 120.3 119.511 120.3C119.864 120.3 120.203 120.44 120.453 120.69C120.703 120.94 120.843 121.279 120.843 121.632V125.232C120.843 125.585 120.703 125.924 120.453 126.174C120.203 126.424 119.864 126.564 119.511 126.564Z" fill="#263238" stroke="#263238" stroke-width="1.01" stroke-linecap="round" stroke-linejoin="round"/>
<path d="M120.411 121.524V123.756" stroke="white" stroke-width="1.01" stroke-linecap="round" stroke-linejoin="round"/>
<path d="M120.411 124.332V125.556" stroke="white" stroke-width="1.01" stroke-linecap="round" stroke-linejoin="round"/>
<path d="M125.343 126.564C124.99 126.564 124.651 126.424 124.401 126.174C124.151 125.924 124.011 125.585 124.011 125.232V121.632C124.011 121.279 124.151 120.94 124.401 120.69C124.651 120.44 124.99 120.3 125.343 120.3C125.518 120.3 125.691 120.334 125.853 120.401C126.015 120.467 126.162 120.566 126.286 120.689C126.409 120.813 126.508 120.96 126.574 121.122C126.641 121.284 126.675 121.457 126.675 121.632V125.232C126.675 125.407 126.641 125.58 126.574 125.742C126.508 125.904 126.409 126.051 126.286 126.175C126.162 126.299 126.015 126.397 125.853 126.463C125.691 126.53 125.518 126.564 125.343 126.564Z" fill="#263238" stroke="#263238" stroke-width="1.01" stroke-linecap="round" stroke-linejoin="round"/>
<path d="M126.243 121.524V123.756" stroke="white" stroke-width="1.01" stroke-linecap="round" stroke-linejoin="round"/>
<path d="M126.243 124.332V125.556" stroke="white" stroke-width="1.01" stroke-linecap="round" stroke-linejoin="round"/>
<path d="M99.123 108.522V109.272" stroke="#263238" stroke-width="0.5" stroke-linecap="round" stroke-linejoin="round"/>
<path d="M99.123 110.664V126.669" stroke="#263238" stroke-width="0.5" stroke-linecap="round" stroke-linejoin="round" stroke-dasharray="4.64 4.64"/>
<path d="M99.123 127.365V128.115" stroke="#263238" stroke-width="0.5" stroke-linecap="round" stroke-linejoin="round"/>
<path d="M104.958 108.522V109.272" stroke="#263238" stroke-width="0.5" stroke-linecap="round" stroke-linejoin="round"/>
<path d="M104.958 110.664V126.669" stroke="#263238" stroke-width="0.5" stroke-linecap="round" stroke-linejoin="round" stroke-dasharray="4.64 4.64"/>
<path d="M104.958 127.365V128.115" stroke="#263238" stroke-width="0.5" stroke-linecap="round" stroke-linejoin="round"/>
<path d="M110.793 108.522V109.272" stroke="#263238" stroke-width="0.5" stroke-linecap="round" stroke-linejoin="round"/>
<path d="M110.793 110.664V126.669" stroke="#263238" stroke-width="0.5" stroke-linecap="round" stroke-linejoin="round" stroke-dasharray="4.64 4.64"/>
<path d="M110.793 127.365V128.115" stroke="#263238" stroke-width="0.5" stroke-linecap="round" stroke-linejoin="round"/>
<path d="M116.625 108.522V109.272" stroke="#263238" stroke-width="0.5" stroke-linecap="round" stroke-linejoin="round"/>
<path d="M116.625 110.664V126.669" stroke="#263238" stroke-width="0.5" stroke-linecap="round" stroke-linejoin="round" stroke-dasharray="4.64 4.64"/>
<path d="M116.625 127.365V128.115" stroke="#263238" stroke-width="0.5" stroke-linecap="round" stroke-linejoin="round"/>
<path d="M122.46 108.522V109.272" stroke="#263238" stroke-width="0.5" stroke-linecap="round" stroke-linejoin="round"/>
<path d="M122.46 110.664V126.669" stroke="#263238" stroke-width="0.5" stroke-linecap="round" stroke-linejoin="round" stroke-dasharray="4.64 4.64"/>
<path d="M122.46 127.365V128.115" stroke="#263238" stroke-width="0.5" stroke-linecap="round" stroke-linejoin="round"/>
<path d="M93.6481 118.461H127.719" stroke="#263238" stroke-width="0.5" stroke-linecap="round" stroke-linejoin="round" stroke-dasharray="5 5"/>
<path d="M126.222 110.439V105.54H118.299V110.439L116.4 113.04C116.133 113.408 115.989 113.851 115.989 114.306V129.447H128.52V114.3C128.52 113.845 128.376 113.402 128.109 113.034L126.222 110.439Z" fill="#263238" stroke="#263238" stroke-width="1.01" stroke-linecap="round" stroke-linejoin="round"/>
<path d="M126.225 103.293H118.332V104.142H126.225V103.293Z" fill="#263238" stroke="#263238" stroke-width="1.01" stroke-linecap="round" stroke-linejoin="round"/>
<path d="M127.371 101.364H117.147V103.539H127.371V101.364Z" fill="#92E3A9" stroke="#263238" stroke-width="1.01" stroke-linecap="round" stroke-linejoin="round"/>
<path d="M126.99 104.1H117.528C117.318 104.1 117.147 104.271 117.147 104.481V105.447C117.147 105.658 117.318 105.828 117.528 105.828H126.99C127.2 105.828 127.371 105.658 127.371 105.447V104.481C127.371 104.271 127.2 104.1 126.99 104.1Z" fill="#263238" stroke="#263238" stroke-width="1.01" stroke-linecap="round" stroke-linejoin="round"/>
<path d="M124.092 115.233H115.992V125.319H124.092V115.233Z" fill="#92E3A9" stroke="#263238" stroke-width="1.01" stroke-linecap="round" stroke-linejoin="round"/>
<path d="M76.293 34.7041H36.48C34.0743 34.7041 32.124 36.6543 32.124 39.0601V125.046C32.124 127.452 34.0743 129.402 36.48 129.402H76.293C78.6988 129.402 80.649 127.452 80.649 125.046V39.0601C80.649 36.6543 78.6988 34.7041 76.293 34.7041Z" fill="#263238"/>
<mask id="mask0_339_3241" style="mask-type:luminance" maskUnits="userSpaceOnUse" x="32" y="34" width="49" height="96">
<path d="M76.293 34.7041H36.48C34.0743 34.7041 32.124 36.6543 32.124 39.0601V125.046C32.124 127.452 34.0743 129.402 36.48 129.402H76.293C78.6988 129.402 80.649 127.452 80.649 125.046V39.0601C80.649 36.6543 78.6988 34.7041 76.293 34.7041Z" fill="white"/>
</mask>
<g mask="url(#mask0_339_3241)">
<path opacity="0.2" d="M36.3 34.7041C35.1909 34.7041 34.1272 35.1447 33.3429 35.929C32.5586 36.7133 32.118 37.777 32.118 38.8861V125.22C32.1175 125.832 32.2516 126.436 32.5108 126.991C32.77 127.545 33.148 128.035 33.618 128.427L61.929 34.7041H36.3Z" fill="white"/>
<path d="M58.038 126.663C58.038 126.337 57.9413 126.018 57.76 125.746C57.5787 125.475 57.321 125.264 57.0195 125.139C56.718 125.014 56.3862 124.981 56.0661 125.045C55.7461 125.109 55.4521 125.266 55.2213 125.496C54.9906 125.727 54.8334 126.021 54.7697 126.341C54.7061 126.661 54.7388 126.993 54.8636 127.295C54.9885 127.596 55.2 127.854 55.4713 128.035C55.7427 128.216 56.0617 128.313 56.388 128.313C56.8256 128.313 57.2453 128.139 57.5548 127.83C57.8642 127.52 58.038 127.101 58.038 126.663Z" stroke="white" stroke-linecap="round" stroke-linejoin="round"/>
</g>
<path d="M76.293 34.7041H36.48C34.0743 34.7041 32.124 36.6543 32.124 39.0601V125.046C32.124 127.452 34.0743 129.402 36.48 129.402H76.293C78.6988 129.402 80.649 127.452 80.649 125.046V39.0601C80.649 36.6543 78.6988 34.7041 76.293 34.7041Z" stroke="#263238" stroke-linecap="round" stroke-linejoin="round"/>
<path d="M78.4951 41.136H34.2841V123.783H78.4951V41.136Z" fill="#92E3A9"/>
<mask id="mask1_339_3241" style="mask-type:luminance" maskUnits="userSpaceOnUse" x="34" y="41" width="45" height="83">
<path d="M78.4951 41.136H34.2841V123.783H78.4951V41.136Z" fill="white"/>
</mask>
<g mask="url(#mask1_339_3241)">
<path d="M70.2 81.918L63.192 75.585L56.388 75.702L49.584 75.585L42.576 81.918L26.004 92.832V125.034H55.512H57.264H86.772V92.832L70.2 81.918Z" fill="white" stroke="#263238" stroke-width="1.01" stroke-linecap="round" stroke-linejoin="round"/>
<path d="M55.8211 105.741L52.8 110.025C52.8 110.025 56.4 108.393 59.868 106.98C63.336 105.567 67.6951 101.109 68.6731 99.4799C69.6511 97.8509 71.0731 95.4569 71.0731 95.4569L66.717 92.0999H71.4C71.4 92.0999 71.289 86.9999 69.876 82.8569" stroke="#263238" stroke-width="1.01" stroke-linecap="round" stroke-linejoin="round"/>
<path d="M54.441 107.613C53.934 107.4 53.421 107.187 52.908 106.98C49.431 105.567 45.081 101.109 44.103 99.4799C43.125 97.8509 41.703 95.4569 41.703 95.4569L46.062 92.0999H41.4C41.4 92.0999 41.511 86.9999 42.924 82.8569" stroke="#263238" stroke-width="1.01" stroke-linecap="round" stroke-linejoin="round"/>
<path d="M48.981 76.0649C48.981 76.0649 47.628 97.5479 55.821 105.741C55.821 105.741 64.464 99.8069 64.464 76.3229L48.981 76.0649Z" fill="white"/>
<mask id="mask2_339_3241" style="mask-type:luminance" maskUnits="userSpaceOnUse" x="48" y="76" width="17" height="30">
<path d="M48.981 76.0649C48.981 76.0649 47.628 97.5479 55.821 105.741C55.821 105.741 64.464 99.8069 64.464 76.3229L48.981 76.0649Z" fill="white"/>
</mask>
<g mask="url(#mask2_339_3241)">
<path d="M53.556 51.6179H60.525C62.5229 51.6179 64.439 52.4116 65.8517 53.8243C67.2644 55.237 68.058 57.153 68.058 59.1509V74.7839C68.0584 76.112 67.7972 77.4271 67.2894 78.6542C66.7815 79.8813 66.0369 80.9964 65.0981 81.9358C64.1593 82.8751 63.0447 83.6204 61.8179 84.129C60.5911 84.6376 59.2761 84.8995 57.948 84.8999H56.148C54.82 84.8999 53.5049 84.6383 52.278 84.1301C51.051 83.6219 49.9361 82.877 48.9971 81.9379C48.058 80.9988 47.3131 79.884 46.8048 78.657C46.2966 77.43 46.035 76.115 46.035 74.7869V59.1509C46.035 57.153 46.8287 55.237 48.2414 53.8243C49.6541 52.4116 51.5702 51.6179 53.568 51.6179H53.556Z" fill="#92E3A9"/>
<path opacity="0.5" d="M53.556 51.6179H60.525C62.5229 51.6179 64.439 52.4116 65.8517 53.8243C67.2644 55.237 68.058 57.153 68.058 59.1509V74.7839C68.0584 76.112 67.7972 77.4271 67.2894 78.6542C66.7815 79.8813 66.0369 80.9964 65.0981 81.9358C64.1593 82.8751 63.0447 83.6204 61.8179 84.129C60.5911 84.6376 59.2761 84.8995 57.948 84.8999H56.148C54.82 84.8999 53.5049 84.6383 52.278 84.1301C51.051 83.6219 49.9361 82.877 48.9971 81.9379C48.058 80.9988 47.3131 79.884 46.8048 78.657C46.2966 77.43 46.035 76.115 46.035 74.7869V59.1509C46.035 57.153 46.8287 55.237 48.2414 53.8243C49.6541 52.4116 51.5702 51.6179 53.568 51.6179H53.556Z" fill="white"/>
</g>
<path d="M48.981 76.0649C48.981 76.0649 47.628 97.5479 55.821 105.741C55.821 105.741 64.464 99.8069 64.464 76.3229L48.981 76.0649Z" stroke="#263238" stroke-width="1.01" stroke-linecap="round" stroke-linejoin="round"/>
<path d="M52.428 74.2349C52.428 74.2349 51.6781 83.6099 56.2051 87.1859C56.2051 87.1859 60.9811 84.5969 60.9811 74.3489L52.428 74.2349Z" stroke="#263238" stroke-width="1.01" stroke-linecap="round" stroke-linejoin="round"/>
<path d="M50.916 90.1288L56.205 87.1858L62.142 91.2898" stroke="#263238" stroke-width="1.01" stroke-linecap="round" stroke-linejoin="round"/>
<path d="M57.627 91.9348L58.659 88.9678L56.205 87.1858L52.98 88.9678L54.657 91.6678L52.011 99.6148C52.965 101.991 54.207 104.115 55.821 105.732C55.821 105.732 58.119 104.154 60.345 99.4048L57.627 91.9348Z" fill="#92E3A9" stroke="#263238" stroke-width="1.01" stroke-linecap="round" stroke-linejoin="round"/>
<path d="M68.1986 108.133C70.5485 107.75 72.1429 105.534 71.7597 103.184C71.3766 100.834 69.1611 99.2401 66.8112 99.6232C64.4613 100.006 62.867 102.222 63.2501 104.572C63.6332 106.922 65.8488 108.516 68.1986 108.133Z" fill="white" stroke="#263238" stroke-width="1.01" stroke-linecap="round" stroke-linejoin="round"/>
<path d="M70.3666 105.054C71.0175 103.471 70.2618 101.661 68.6789 101.01C67.0959 100.359 65.2851 101.115 64.6342 102.698C63.9834 104.28 64.7391 106.091 66.322 106.742C67.905 107.393 69.7158 106.637 70.3666 105.054Z" fill="white" stroke="#263238" stroke-width="1.01" stroke-linecap="round" stroke-linejoin="round"/>
<path d="M67.5001 104.538C67.325 104.538 67.1572 104.468 67.0334 104.345C66.9096 104.221 66.8401 104.053 66.8401 103.878V78.5489C66.8401 78.3739 66.9096 78.206 67.0334 78.0822C67.1572 77.9584 67.325 77.8889 67.5001 77.8889C67.6751 77.8889 67.843 77.9584 67.9668 78.0822C68.0906 78.206 68.1601 78.3739 68.1601 78.5489V103.878C68.1605 103.965 68.1437 104.051 68.1107 104.131C68.0776 104.211 68.029 104.284 67.9677 104.345C67.9063 104.407 67.8334 104.455 67.7531 104.488C67.6729 104.522 67.5869 104.538 67.5001 104.538Z" fill="#263238"/>
<path d="M46.671 113.724H46.608C46.008 113.622 40.251 108.024 39.708 106.524C39.165 105.024 39.318 102.624 39.324 102.534C39.3296 102.446 39.3697 102.365 39.4355 102.307C39.5013 102.249 39.5875 102.219 39.675 102.225C39.7625 102.23 39.8443 102.27 39.9022 102.336C39.9602 102.402 39.9896 102.488 39.984 102.576C39.984 102.597 39.849 104.931 40.329 106.308C40.77 107.565 45.894 112.584 46.704 113.073C47.154 112.932 48.804 111.453 49.404 109.938C49.42 109.897 49.4437 109.861 49.4739 109.829C49.5041 109.798 49.5402 109.773 49.58 109.756C49.6198 109.739 49.6627 109.729 49.7061 109.729C49.7495 109.728 49.7926 109.736 49.833 109.752C49.8734 109.768 49.9102 109.791 49.9414 109.822C49.9726 109.852 49.9976 109.888 50.0149 109.928C50.0321 109.968 50.0414 110.01 50.0421 110.054C50.0428 110.097 50.035 110.14 50.019 110.181C49.395 111.786 47.43 113.724 46.671 113.724Z" fill="white" stroke="#263238" stroke-width="1.01" stroke-linecap="round" stroke-linejoin="round"/>
<path d="M41.556 113.724C40.794 113.724 38.832 111.786 38.196 110.163C38.1638 110.081 38.1653 109.99 38.2001 109.91C38.235 109.829 38.3004 109.766 38.382 109.734C38.4635 109.702 38.5546 109.703 38.635 109.738C38.7155 109.773 38.7788 109.838 38.811 109.92C39.411 111.435 41.058 112.92 41.511 113.055C42.321 112.566 47.445 107.547 47.886 106.29C48.366 104.913 48.234 102.579 48.231 102.558C48.2254 102.47 48.2548 102.384 48.3128 102.318C48.3707 102.253 48.4525 102.213 48.54 102.207C48.6275 102.201 48.7137 102.231 48.7795 102.289C48.8453 102.347 48.8854 102.428 48.891 102.516C48.891 102.618 49.035 105.006 48.507 106.506C47.979 108.006 42.234 113.616 41.607 113.706L41.556 113.724Z" fill="white" stroke="#263238" stroke-width="1.01" stroke-linecap="round" stroke-linejoin="round"/>
<path d="M44.1931 91.3348C44.0183 91.334 43.8509 91.2642 43.7273 91.1406C43.6037 91.017 43.5339 90.8496 43.5331 90.6748V79.6258C43.5331 79.4508 43.6026 79.2829 43.7264 79.1591C43.8502 79.0354 44.018 78.9658 44.1931 78.9658C44.3681 78.9658 44.536 79.0354 44.6598 79.1591C44.7835 79.2829 44.8531 79.4508 44.8531 79.6258V90.6748C44.8531 90.7615 44.836 90.8473 44.8028 90.9274C44.7697 91.0075 44.7211 91.0802 44.6598 91.1415C44.5985 91.2028 44.5257 91.2514 44.4457 91.2846C44.3656 91.3177 44.2798 91.3348 44.1931 91.3348Z" fill="#263238"/>
<path d="M48.504 103.866C48.3292 103.865 48.1618 103.795 48.0382 103.672C47.9146 103.548 47.8448 103.381 47.844 103.206V95.2559C47.844 94.2518 47.4451 93.2888 46.7351 92.5788C46.0251 91.8688 45.0621 91.4699 44.058 91.4699C43.0539 91.4699 42.0909 91.8688 41.3809 92.5788C40.6709 93.2888 40.272 94.2518 40.272 95.2559V103.2C40.272 103.375 40.2025 103.543 40.0787 103.667C39.9549 103.79 39.7871 103.86 39.612 103.86C39.437 103.86 39.2691 103.79 39.1453 103.667C39.0216 103.543 38.952 103.375 38.952 103.2V95.2499C38.952 93.8973 39.4893 92.6001 40.4458 91.6437C41.4022 90.6872 42.6994 90.1499 44.052 90.1499C45.4046 90.1499 46.7018 90.6872 47.6583 91.6437C48.6147 92.6001 49.152 93.8973 49.152 95.2499V103.2C49.1529 103.374 49.0854 103.541 48.9642 103.665C48.843 103.79 48.6778 103.862 48.504 103.866Z" fill="#263238"/>
<path d="M37.5863 108.934L37.4749 109.021C37.14 109.281 37.0793 109.763 37.3395 110.098L37.8272 110.726C38.0874 111.061 38.5699 111.122 38.9049 110.861L39.0162 110.775C39.3512 110.515 39.4118 110.032 39.1516 109.697L38.6639 109.069C38.4037 108.734 37.9212 108.674 37.5863 108.934Z" fill="white" stroke="#263238" stroke-width="1.01" stroke-linecap="round" stroke-linejoin="round"/>
<path d="M49.095 110.771L49.2064 110.857C49.5413 111.118 50.0238 111.057 50.284 110.722L50.7717 110.094C51.0319 109.759 50.9713 109.277 50.6363 109.017L50.525 108.93C50.19 108.67 49.7075 108.731 49.4473 109.065L48.9596 109.693C48.6994 110.028 48.76 110.511 49.095 110.771Z" fill="white" stroke="#263238" stroke-width="1.01" stroke-linecap="round" stroke-linejoin="round"/>
<path d="M45.453 62.1809H45.174C44.3092 62.1809 43.608 62.882 43.608 63.7469V66.5579C43.608 67.4228 44.3092 68.1239 45.174 68.1239H45.453C46.3179 68.1239 47.019 67.4228 47.019 66.5579V63.7469C47.019 62.882 46.3179 62.1809 45.453 62.1809Z" fill="white" stroke="#263238" stroke-width="1.01" stroke-linecap="round" stroke-linejoin="round"/>
<path d="M68.505 62.1809H68.226C67.3612 62.1809 66.66 62.882 66.66 63.7469V66.5579C66.66 67.4228 67.3612 68.1239 68.226 68.1239H68.505C69.3699 68.1239 70.071 67.4228 70.071 66.5579V63.7469C70.071 62.882 69.3699 62.1809 68.505 62.1809Z" fill="white" stroke="#263238" stroke-width="1.01" stroke-linecap="round" stroke-linejoin="round"/>
<path d="M53.556 47.292H60.525C62.5229 47.292 64.4389 48.0856 65.8516 49.4984C67.2643 50.9111 68.058 52.8271 68.058 54.825V70.458C68.058 73.1401 66.9925 75.7124 65.096 77.609C63.1994 79.5055 60.6271 80.571 57.945 80.571H56.145C54.8169 80.571 53.5019 80.3094 52.2749 79.8012C51.0479 79.293 49.9331 78.548 48.994 77.609C48.0549 76.6699 47.31 75.555 46.8018 74.3281C46.2936 73.1011 46.032 71.7861 46.032 70.458V54.825C46.032 52.8287 46.8244 50.914 48.2352 49.5015C49.6459 48.0891 51.5597 47.2944 53.556 47.292Z" fill="white" stroke="#263238" stroke-width="1.01" stroke-linecap="round" stroke-linejoin="round"/>
<path d="M54.4501 60.447H50.9761C50.6629 60.447 50.4091 60.7009 50.4091 61.014V61.116C50.4091 61.4292 50.6629 61.683 50.9761 61.683H54.4501C54.7632 61.683 55.0171 61.4292 55.0171 61.116V61.014C55.0171 60.7009 54.7632 60.447 54.4501 60.447Z" fill="#263238" stroke="#263238" stroke-width="1.01" stroke-linecap="round" stroke-linejoin="round"/>
<path d="M63.555 60.447H60.081C59.7679 60.447 59.514 60.7009 59.514 61.014V61.116C59.514 61.4292 59.7679 61.683 60.081 61.683H63.555C63.8682 61.683 64.122 61.4292 64.122 61.116V61.014C64.122 60.7009 63.8682 60.447 63.555 60.447Z" fill="#263238" stroke="#263238" stroke-width="1.01" stroke-linecap="round" stroke-linejoin="round"/>
<path d="M54.0001 64.2149C54.0001 64.9289 53.6731 65.5049 53.2681 65.5049C52.8631 65.5049 52.5391 64.9289 52.5391 64.2149C52.5391 63.5009 52.8661 62.9219 53.2681 62.9219C53.6701 62.9219 54.0001 63.5009 54.0001 64.2149Z" fill="#263238" stroke="#263238" stroke-width="1.01" stroke-linecap="round" stroke-linejoin="round"/>
<path d="M62.214 64.2149C62.214 64.9289 61.887 65.5049 61.482 65.5049C61.077 65.5049 60.75 64.9289 60.75 64.2149C60.75 63.5009 61.077 62.9219 61.482 62.9219C61.887 62.9219 62.214 63.5009 62.214 64.2149Z" fill="#263238" stroke="#263238" stroke-width="1.01" stroke-linecap="round" stroke-linejoin="round"/>
<path d="M60.9811 47.292H53.1001C51.2231 47.292 49.4231 48.0376 48.0959 49.3648C46.7687 50.692 46.0231 52.4921 46.0231 54.369V70.998C46.0231 73.5369 47.0317 75.9719 48.8269 77.7671C50.6222 79.5624 53.0572 80.571 55.5961 80.571H58.5001C59.7573 80.5714 61.0023 80.3241 62.164 79.8431C63.3256 79.3622 64.3811 78.657 65.2701 77.768C66.1591 76.879 66.8642 75.8235 67.3452 74.6619C67.8261 73.5003 68.0735 72.2553 68.0731 70.998V54.369C68.0731 53.4384 67.8895 52.5169 67.5329 51.6573C67.1763 50.7977 66.6537 50.0169 65.995 49.3595C65.3362 48.7021 64.5543 48.1812 63.6939 47.8264C62.8336 47.4716 61.9117 47.29 60.9811 47.292ZM66.3811 68.655C66.3811 68.655 66.3811 72.565 64.3591 74.59C64.3591 74.59 62.2231 71.779 61.3231 71.554C60.7411 71.41 58.5751 71.452 57.1051 71.5C55.6381 71.452 53.4691 71.41 52.9051 71.554C52.0051 71.779 49.8691 74.59 49.8691 74.59C47.8471 72.565 47.8471 68.655 47.8471 68.655V59.436L48.9001 58.05C49.3028 57.5348 49.5336 56.9061 49.56 56.2527C49.5864 55.5992 49.407 54.954 49.0471 54.408C48.6688 53.8281 48.5042 53.1346 48.5814 52.4465C48.6585 51.7585 48.9727 51.1187 49.4701 50.637L49.4911 50.619C49.9727 50.1531 50.5973 49.863 51.264 49.7955C51.9308 49.728 52.6008 49.8871 53.1661 50.247L54.7381 51.48C55.4236 52.0152 56.2684 52.3059 57.1381 52.3059C58.0078 52.3059 58.8525 52.0152 59.5381 51.48L61.1041 50.247C61.6724 49.8849 62.3461 49.7247 63.0166 49.7922C63.6871 49.8596 64.3153 50.1509 64.8001 50.619L64.8181 50.637C65.3161 51.128 65.6279 51.7769 65.7001 52.4725C65.7723 53.1681 65.6005 53.8671 65.2141 54.45C64.8667 54.9944 64.6971 55.6332 64.7288 56.2782C64.7605 56.9232 64.9919 57.5424 65.3911 58.05L66.4801 59.436L66.3811 68.655Z" fill="#263238" stroke="#263238" stroke-width="1.01" stroke-linecap="round" stroke-linejoin="round"/>
<path d="M58.728 68.2709C58.728 68.2709 60.078 68.0909 60.078 68.8709C60.078 69.6509 59.289 70.2179 57.717 69.6569" fill="white"/>
<path d="M58.728 68.2709C58.728 68.2709 60.078 68.0909 60.078 68.8709C60.078 69.6509 59.289 70.2179 57.717 69.6569" stroke="#263238" stroke-width="1.01" stroke-linecap="round" stroke-linejoin="round"/>
<path d="M58.614 61.908V68.43C58.614 68.7875 58.4722 69.1304 58.2197 69.3835C57.9671 69.6366 57.6245 69.7792 57.267 69.78H56.067C55.209 69.84 54.909 69.63 54.807 69.267C54.7752 69.1461 54.7689 69.0199 54.7885 68.8965C54.8081 68.773 54.8533 68.655 54.921 68.55C54.921 68.214 56.355 68.214 56.355 68.214" fill="white"/>
<path d="M58.614 61.908V68.43C58.614 68.7875 58.4722 69.1304 58.2197 69.3835C57.9671 69.6366 57.6245 69.7792 57.267 69.78H56.067C55.209 69.84 54.909 69.63 54.807 69.267C54.7752 69.1461 54.7689 69.0199 54.7885 68.8965C54.8081 68.773 54.8533 68.655 54.921 68.55C54.921 68.214 56.355 68.214 56.355 68.214" stroke="#263238" stroke-width="1.01" stroke-linecap="round" stroke-linejoin="round"/>
<path d="M57.201 74.8683C55.9489 74.8753 54.7169 74.5536 53.628 73.9353C53.5209 73.8636 53.446 73.7528 53.4193 73.6267C53.3926 73.5006 53.4161 73.369 53.4849 73.26C53.5537 73.151 53.6623 73.0731 53.7876 73.0429C53.913 73.0127 54.0451 73.0326 54.156 73.0983C55.099 73.6135 56.1573 73.881 57.2319 73.8757C58.3064 73.8705 59.3621 73.5927 60.3 73.0683C60.3576 73.0345 60.4214 73.0126 60.4876 73.0041C60.5538 72.9955 60.621 73.0005 60.6853 73.0186C60.7496 73.0367 60.8095 73.0676 60.8615 73.1095C60.9135 73.1514 60.9565 73.2034 60.9878 73.2623C61.0192 73.3212 61.0384 73.3859 61.0441 73.4524C61.0499 73.5189 61.0421 73.5859 61.0213 73.6493C61.0005 73.7128 60.967 73.7713 60.923 73.8215C60.8789 73.8717 60.8252 73.9125 60.765 73.9413C59.6725 74.5417 58.4476 74.8603 57.201 74.8683Z" fill="white"/>
<path d="M60.813 66.1648H62.991" stroke="#263238" stroke-width="1.01" stroke-linecap="round" stroke-linejoin="round"/>
<path d="M52.161 66.1648H54.339" stroke="#263238" stroke-width="1.01" stroke-linecap="round" stroke-linejoin="round"/>
<path d="M43.533 121.872C45.6836 121.872 47.427 120.129 47.427 117.978C47.427 115.827 45.6836 114.084 43.533 114.084C41.3824 114.084 39.639 115.827 39.639 117.978C39.639 120.129 41.3824 121.872 43.533 121.872Z" stroke="#263238" stroke-width="0.724166" stroke-linecap="round" stroke-linejoin="round"/>
<path d="M43.527 118.941C43.3185 118.941 43.1186 118.858 42.9712 118.711C42.8238 118.563 42.741 118.363 42.741 118.155V115.665C42.741 115.456 42.8238 115.257 42.9712 115.109C43.1186 114.962 43.3185 114.879 43.527 114.879C43.7354 114.879 43.9354 114.962 44.0828 115.109C44.2302 115.257 44.313 115.456 44.313 115.665V118.155C44.313 118.363 44.2302 118.563 44.0828 118.711C43.9354 118.858 43.7354 118.941 43.527 118.941Z" fill="#263238"/>
<path d="M43.533 119.508C43.1649 119.507 42.8121 119.361 42.5518 119.1C42.2914 118.84 42.1448 118.487 42.144 118.119V116.949C42.144 116.911 42.1592 116.874 42.1862 116.847C42.2132 116.82 42.2499 116.805 42.288 116.805C42.3071 116.805 42.326 116.808 42.3436 116.815C42.3613 116.822 42.3773 116.833 42.3908 116.846C42.4042 116.86 42.4148 116.876 42.4219 116.893C42.429 116.911 42.4325 116.93 42.432 116.949V118.119C42.4468 118.401 42.5694 118.667 42.7745 118.862C42.9797 119.057 43.2517 119.165 43.5345 119.165C43.8174 119.165 44.0894 119.057 44.2946 118.862C44.4997 118.667 44.6223 118.401 44.637 118.119V116.949C44.6366 116.93 44.6401 116.911 44.6472 116.893C44.6543 116.876 44.6649 116.86 44.6783 116.846C44.6918 116.833 44.7078 116.822 44.7255 116.815C44.7431 116.808 44.762 116.805 44.781 116.805C44.8192 116.805 44.8559 116.82 44.8829 116.847C44.9099 116.874 44.925 116.911 44.925 116.949V118.119C44.9242 118.488 44.7772 118.841 44.5163 119.101C44.2553 119.362 43.9017 119.508 43.533 119.508Z" fill="#263238"/>
<path d="M43.533 121.002C43.5142 121.002 43.4956 120.998 43.4783 120.991C43.461 120.984 43.4454 120.973 43.4322 120.96C43.4191 120.946 43.4088 120.93 43.4019 120.913C43.395 120.895 43.3916 120.877 43.392 120.858V119.358C43.392 119.318 43.4078 119.28 43.4359 119.252C43.4641 119.224 43.5022 119.208 43.542 119.208C43.5818 119.208 43.6199 119.224 43.6481 119.252C43.6762 119.28 43.692 119.318 43.692 119.358V120.858C43.6926 120.878 43.6888 120.899 43.6808 120.917C43.6728 120.936 43.6608 120.953 43.6457 120.967C43.6306 120.98 43.6127 120.991 43.5932 120.997C43.5738 121.003 43.5532 121.005 43.533 121.002Z" fill="#263238"/>
<path d="M44.493 121.08H42.576C42.5381 121.079 42.5019 121.064 42.475 121.037C42.4482 121.01 42.4328 120.974 42.432 120.936C42.432 120.898 42.4472 120.861 42.4742 120.834C42.5012 120.807 42.5378 120.792 42.576 120.792H44.493C44.5312 120.792 44.5678 120.807 44.5948 120.834C44.6218 120.861 44.637 120.898 44.637 120.936C44.6362 120.974 44.6208 121.01 44.594 121.037C44.5671 121.064 44.531 121.079 44.493 121.08Z" fill="#263238"/>
<path d="M69.3181 121.872C71.4687 121.872 73.2121 120.129 73.2121 117.978C73.2121 115.827 71.4687 114.084 69.3181 114.084C67.1675 114.084 65.4241 115.827 65.4241 117.978C65.4241 120.129 67.1675 121.872 69.3181 121.872Z" stroke="#263238" stroke-width="0.724166" stroke-linecap="round" stroke-linejoin="round"/>
<path d="M71.7211 116.838L70.5841 117.495V116.955C70.5833 116.832 70.5339 116.715 70.4468 116.628C70.3597 116.542 70.2419 116.493 70.1191 116.493H67.5511C67.4901 116.493 67.4297 116.504 67.3733 116.527C67.3169 116.55 67.2657 116.584 67.2224 116.627C67.1792 116.67 67.1449 116.721 67.1215 116.777C67.0981 116.834 67.0861 116.894 67.0861 116.955V119.025C67.0857 119.086 67.0974 119.147 67.1207 119.203C67.1439 119.26 67.1781 119.311 67.2214 119.355C67.2646 119.398 67.3161 119.432 67.3727 119.455C67.4292 119.479 67.4899 119.49 67.5511 119.49H70.1191C70.1801 119.49 70.2406 119.478 70.297 119.455C70.3534 119.431 70.4047 119.397 70.4479 119.354C70.4911 119.311 70.5253 119.259 70.5487 119.203C70.572 119.146 70.5841 119.086 70.5841 119.025V118.5L71.7211 119.157V116.838Z" fill="#263238"/>
<path d="M56.4271 121.872C58.5777 121.872 60.3211 120.129 60.3211 117.978C60.3211 115.827 58.5777 114.084 56.4271 114.084C54.2765 114.084 52.5331 115.827 52.5331 117.978C52.5331 120.129 54.2765 121.872 56.4271 121.872Z" fill="#263238" stroke="#263238" stroke-width="0.724166" stroke-linecap="round" stroke-linejoin="round"/>
<path d="M58.398 117.156H54.456C54.3469 117.156 54.239 117.18 54.1401 117.226C54.0413 117.273 53.9538 117.34 53.884 117.424C53.8141 117.508 53.7635 117.606 53.7359 117.712C53.7083 117.817 53.7042 117.928 53.724 118.035L53.838 118.653C53.8463 118.695 53.8687 118.733 53.9014 118.76C53.9342 118.787 53.9754 118.802 54.018 118.803H55.218C55.2674 118.803 55.3147 118.783 55.3495 118.749C55.3844 118.714 55.404 118.666 55.404 118.617V117.948H57.474V118.617C57.474 118.666 57.4936 118.714 57.5285 118.749C57.5634 118.783 57.6107 118.803 57.66 118.803H58.86C58.9032 118.803 58.9451 118.788 58.9784 118.761C59.0118 118.734 59.0347 118.695 59.043 118.653L59.157 118.035C59.1773 117.925 59.1727 117.813 59.1436 117.705C59.1144 117.597 59.0615 117.498 58.9886 117.413C58.9157 117.329 58.8248 117.262 58.7226 117.217C58.6204 117.173 58.5094 117.152 58.398 117.156Z" fill="#92E3A9"/>
<path d="M76.755 41.9939H73.089V44.0039H76.755V41.9939Z" stroke="#263238" stroke-width="0.821067" stroke-linecap="round" stroke-linejoin="round"/>
<path d="M75.948 41.9939H73.089V44.0039H75.948V41.9939Z" fill="#263238" stroke="#263238" stroke-width="0.725073" stroke-linecap="round" stroke-linejoin="round"/>
<path d="M77.2621 42.5549H76.7461V43.4399H77.2621V42.5549Z" fill="#263238" stroke="#263238" stroke-width="0.725073" stroke-linecap="round" stroke-linejoin="round"/>
<path d="M35.715 42.615H35.043V43.767H35.715V42.615Z" fill="#263238" stroke="#263238" stroke-width="0.883086" stroke-linecap="round" stroke-linejoin="round"/>
<path d="M36.771 42.2129H36.099V43.7699H36.771V42.2129Z" fill="#263238" stroke="#263238" stroke-width="0.883086" stroke-linecap="round" stroke-linejoin="round"/>
<path d="M37.827 41.7329H37.155V43.7669H37.827V41.7329Z" fill="#263238" stroke="#263238" stroke-width="0.883086" stroke-linecap="round" stroke-linejoin="round"/>
</g>
<path d="M78.4951 41.136H34.2841V123.783H78.4951V41.136Z" stroke="#263238" stroke-linecap="round" stroke-linejoin="round"/>
<path d="M24.0961 129.402H136.329" stroke="#263238" stroke-width="1.01" stroke-linecap="round" stroke-linejoin="round"/>
<path d="M17.946 129.402H20.913" stroke="#263238" stroke-width="1.01" stroke-linecap="round" stroke-linejoin="round"/>
</svg>
